#N canvas 34 78 1695 1108 12;
#X obj 53 153 r b/0;
#X obj 95 153 r d/0;
#X obj 136 153 r s/0;
#X obj 53 44 vsl 60 60 0 127 0 0 empty b/0 /0 0 90 0 10 #feffc6 #404040 #404040 0 1;
#X obj 532 47 vsl 60 60 0 127 0 0 empty b/3 /3 0 90 0 10 #ff8300 #404040 #404040 0 1;
#X obj 395 45 vsl 60 60 0 127 0 0 empty b/2 /2 0 90 0 10 #ffe3c6 #404040 #404040 0 1;
#X obj 189 43 vsl 60 60 0 127 0 0 empty b/1 /1 0 90 0 10 #faff00 #404040 #404040 0 1;
#X obj 524 341 vsl 60 60 0 127 0 0 empty b/7 /7 0 90 0 10 #9c00ff #404040 #404040 0 1;
#X obj 390 341 vsl 60 60 0 127 0 0 empty b/6 /6 0 90 0 10 #e3c6ff #404040 #404040 0 1;
#X obj 191 339 vsl 60 60 0 127 0 0 empty b/5 /5 0 90 0 10 #ff0400 #404040 #404040 0 1;
#X obj 54 338 vsl 60 60 0 127 0 0 empty b/4 /4 0 90 0 10 #ffc7c6 #404040 #404040 0 1;
#X obj 188 153 r b/1;
#X obj 229 153 r d/1;
#X obj 270 153 r s/1;
#X obj 396 153 r b/2;
#X obj 437 153 r d/2;
#X obj 478 153 r s/2;
#X obj 530 153 r b/3;
#X obj 571 153 r d/3;
#X obj 612 153 r s/3;
#X obj 54 439 r b/4;
#X obj 95 439 r d/4;
#X obj 136 439 r s/4;
#X obj 188 439 r b/5;
#X obj 229 439 r d/5;
#X obj 270 439 r s/5;
#X obj 390 440 r b/6;
#X obj 431 440 r d/6;
#X obj 472 440 r s/6;
#X obj 524 440 r b/7;
#X obj 565 440 r d/7;
#X obj 606 440 r s/7;
#N canvas 34 78 1695 1108 signal-routing 1;
#X obj 84 38 loadbang;
#X obj 84 91 s panelcount;
#X msg 84 66 7;
#X text 132 68 one less than panelcount;
#X text 866 246 velocity;
#X text 877 220 channel;
#X text 879 193 (omni);
#X text 848 268 note;
#X floatatom 813 268 4 0 127 0 - - - 0;
#X floatatom 832 245 4 0 127 0 - - - 0;
#X floatatom 852 220 0 1 64 0 - - - 0;
#X obj 813 194 notein;
#X obj 813 332 pack f f;
#X obj 813 453 s d/7;
#X obj 844 432 s d/6;
#X obj 875 413 s d/5;
#X obj 906 394 s d/4;
#X obj 1030 390 s d/0;
#X obj 999 409 s d/1;
#X obj 968 428 s d/2;
#X obj 937 449 s d/3;
#X text 814 165 DIGITAL;
#X text 901 300 SEND DIGITAL ON / OFF SIGNALS TO d/# \; BASED ON ZERO OR NON-ZERO VELOCITY;
#X obj 813 362 route 7 6 5 4 3 2 1 0, f 36;
#X obj 866 292 != 0;
#X text 1087 364 digital touches;
#X msg 93 272 /0 \$1;
#X msg 149 272 /1 \$1;
#X msg 205 273 /2 \$1;
#X msg 262 273 /3 \$1;
#X msg 94 419 /4 \$1;
#X msg 149 419 /5 \$1;
#X msg 206 419 /6 \$1;
#X msg 262 419 /7 \$1;
#X obj 487 50 ctlin, f 6;
#X obj 487 117 s midictlValue;
#X obj 506 95 s midictlNum;
#X obj 526 73 s midictlChan;
#X obj 641 50 notein;
#X obj 641 117 s midiNote;
#X obj 680 73 s midiNoteChan;
#X obj 660 95 s midiNoteVelocity;
#X msg 409 274 /0 \$1;
#X msg 474 274 /1 \$1;
#X msg 541 274 /2 \$1;
#X msg 606 273 /3 \$1;
#X msg 407 420 /4 \$1;
#X msg 473 421 /5 \$1;
#X msg 539 422 /6 \$1;
#X msg 605 421 /7 \$1;
#X obj 94 203 ctlin 0;
#X floatatom 94 226 5 0 0 0 - - - 0;
#X floatatom 150 226 5 0 0 0 - - - 0;
#X obj 150 203 ctlin 1;
#X floatatom 206 226 5 0 0 0 - - - 0;
#X obj 206 203 ctlin 2;
#X floatatom 262 226 5 0 0 0 - - - 0;
#X obj 262 203 ctlin 3;
#X floatatom 93 372 5 0 0 0 - - - 0;
#X floatatom 149 372 5 0 0 0 - - - 0;
#X floatatom 205 372 5 0 0 0 - - - 0;
#X floatatom 261 372 5 0 0 0 - - - 0;
#X obj 93 349 ctlin 4;
#X obj 149 349 ctlin 5;
#X obj 205 349 ctlin 6;
#X obj 261 349 ctlin 7;
#X obj 262 248 s b/3;
#X obj 206 248 s b/2;
#X obj 150 248 s b/1;
#X obj 94 248 s b/0;
#X obj 93 395 s b/4;
#X obj 149 395 s b/5;
#X obj 205 395 s b/6;
#X obj 261 395 s b/7;
#X floatatom 408 227 5 0 0 0 - - - 0;
#X floatatom 474 227 5 0 0 0 - - - 0;
#X floatatom 540 227 5 0 0 0 - - - 0;
#X floatatom 606 227 5 0 0 0 - - - 0;
#X floatatom 407 373 5 0 0 0 - - - 0;
#X floatatom 473 373 5 0 0 0 - - - 0;
#X floatatom 539 373 5 0 0 0 - - - 0;
#X floatatom 605 373 5 0 0 0 - - - 0;
#X obj 408 204 ctlin 8;
#X obj 474 204 ctlin 9;
#X obj 540 204 ctlin 10;
#X obj 606 204 ctlin 11;
#X obj 407 350 ctlin 12;
#X obj 473 350 ctlin 13;
#X obj 539 350 ctlin 14;
#X obj 605 350 ctlin 15;
#X obj 408 249 s s/0;
#X obj 474 249 s s/1;
#X obj 540 249 s s/2;
#X obj 606 249 s s/3;
#X obj 407 396 s s/4;
#X obj 473 396 s s/5;
#X obj 539 396 s s/6;
#X obj 605 396 s s/7;
#X text 98 146 ROUTE SIGNALS BASED ON CONTROLLER NUMBER \; CONTROL NUMBERS DECLARED;
#X obj 407 444 s /s;
#X obj 473 445 s /s;
#X obj 539 446 s /s;
#X obj 605 445 s /s;
#X obj 409 298 s /s;
#X obj 474 298 s /s;
#X obj 541 298 s /s;
#X obj 606 297 s /s;
#X obj 93 296 s /b;
#X obj 149 296 s /b;
#X obj 205 297 s /b;
#X obj 262 297 s /b;
#X obj 94 443 s /b;
#X obj 149 443 s /b;
#X obj 206 443 s /b;
#X obj 262 443 s /b;
#X connect 0 0 2 0;
#X connect 2 0 1 0;
#X connect 8 0 12 0;
#X connect 9 0 12 1;
#X connect 11 0 8 0;
#X connect 11 1 9 0;
#X connect 11 2 10 0;
#X connect 12 0 23 0;
#X connect 23 0 13 0;
#X connect 23 1 14 0;
#X connect 23 2 15 0;
#X connect 23 3 16 0;
#X connect 23 4 20 0;
#X connect 23 5 19 0;
#X connect 23 6 18 0;
#X connect 23 7 17 0;
#X connect 26 0 107 0;
#X connect 27 0 108 0;
#X connect 28 0 109 0;
#X connect 29 0 110 0;
#X connect 30 0 111 0;
#X connect 31 0 112 0;
#X connect 32 0 113 0;
#X connect 33 0 114 0;
#X connect 34 0 35 0;
#X connect 34 1 36 0;
#X connect 34 2 37 0;
#X connect 38 0 39 0;
#X connect 38 1 41 0;
#X connect 38 2 40 0;
#X connect 42 0 103 0;
#X connect 43 0 104 0;
#X connect 44 0 105 0;
#X connect 45 0 106 0;
#X connect 46 0 99 0;
#X connect 47 0 100 0;
#X connect 48 0 101 0;
#X connect 49 0 102 0;
#X connect 50 0 51 0;
#X connect 51 0 69 0;
#X connect 51 0 26 0;
#X connect 52 0 68 0;
#X connect 52 0 27 0;
#X connect 53 0 52 0;
#X connect 54 0 67 0;
#X connect 54 0 28 0;
#X connect 55 0 54 0;
#X connect 56 0 66 0;
#X connect 56 0 29 0;
#X connect 57 0 56 0;
#X connect 58 0 70 0;
#X connect 58 0 30 0;
#X connect 59 0 71 0;
#X connect 59 0 31 0;
#X connect 60 0 72 0;
#X connect 60 0 32 0;
#X connect 61 0 73 0;
#X connect 61 0 33 0;
#X connect 62 0 58 0;
#X connect 63 0 59 0;
#X connect 64 0 60 0;
#X connect 65 0 61 0;
#X connect 74 0 90 0;
#X connect 74 0 42 0;
#X connect 75 0 91 0;
#X connect 75 0 43 0;
#X connect 76 0 92 0;
#X connect 76 0 44 0;
#X connect 77 0 93 0;
#X connect 77 0 45 0;
#X connect 78 0 94 0;
#X connect 78 0 46 0;
#X connect 79 0 95 0;
#X connect 79 0 47 0;
#X connect 80 0 96 0;
#X connect 80 0 48 0;
#X connect 81 0 97 0;
#X connect 81 0 49 0;
#X connect 82 0 74 0;
#X connect 83 0 75 0;
#X connect 84 0 76 0;
#X connect 85 0 77 0;
#X connect 86 0 78 0;
#X connect 87 0 79 0;
#X connect 88 0 80 0;
#X connect 89 0 81 0;
#X restore 1106 65 pd signal-routing;
#X obj 98 174 tgl 19 0 empty empty empty 0 -10 0 12 #fcfcfc #000000 #000000 0 1;
#X obj 237 176 tgl 19 0 empty empty empty 0 -10 0 12 #fcfcfc #000000 #000000 0 1;
#X obj 437 176 tgl 19 0 empty empty empty 0 -10 0 12 #fcfcfc #000000 #000000 0 1;
#X obj 577 176 tgl 19 0 empty empty empty 0 -10 0 12 #fcfcfc #000000 #000000 0 1;
#X obj 98 460 tgl 19 0 empty empty empty 0 -10 0 12 #fcfcfc #000000 #000000 0 1;
#X obj 232 460 tgl 19 0 empty empty empty 0 -10 0 12 #fcfcfc #000000 #000000 0 1;
#X obj 433 461 tgl 19 0 empty empty empty 0 -10 0 12 #fcfcfc #000000 #000000 0 1;
#X obj 571 462 tgl 19 0 empty empty empty 0 -10 0 12 #fcfcfc #000000 #000000 0 1;
#X floatatom 270 460 5 0 0 0 - - - 0;
#X floatatom 136 460 5 0 0 0 - - - 0;
#X floatatom 472 461 5 0 0 0 - - - 0;
#X floatatom 606 461 5 0 0 0 - - - 0;
#X floatatom 270 175 5 0 0 0 - - - 0;
#X floatatom 136 175 5 0 0 0 - - - 0;
#X floatatom 478 175 5 0 0 0 - - - 0;
#X floatatom 612 175 5 0 0 0 - - - 0;
#X floatatom 396 175 5 0 0 0 - - - 0;
#X floatatom 530 175 5 0 0 0 - - - 0;
#X floatatom 188 175 5 0 0 0 - - - 0;
#X floatatom 54 461 5 0 0 0 - - - 0;
#X floatatom 188 461 5 0 0 0 - - - 0;
#X floatatom 390 461 5 0 0 0 - - - 0;
#X floatatom 524 461 5 0 0 0 - - - 0;
#X obj 437 201 oi/playmidi;
#X obj 229 199 oi/midinote;
#X msg 313 174 12;
#X obj 571 200 oi/playmidi;
#N canvas 34 78 1695 1108 midimix 0;
#X obj 84 97 inlet;
#X obj 187 95 inlet;
#X obj 98 119 bng 19 250 50 0 empty empty empty 0 -10 0 12 #fcfcfc #000000 #000000;
#X obj 56 227 tgl 19 0 empty empty empty 0 -10 0 12 #fcfcfc #000000 #000000 0 1;
#X obj 55 252 s midiON;
#X obj 98 141 tgl 19 0 empty empty empty 0 -10 0 12 #fcfcfc #000000 #000000 0 1;
#X obj 207 117 bng 19 250 50 0 empty empty empty 0 -10 0 12 #fcfcfc #000000 #000000;
#X obj 207 139 tgl 19 0 empty empty empty 0 -10 0 12 #fcfcfc #000000 #000000 0 1;
#X obj 284 95 inlet;
#X obj 305 117 bng 19 250 50 0 empty empty empty 0 -10 0 12 #fcfcfc #000000 #000000;
#X obj 305 139 tgl 19 0 empty empty empty 0 -10 0 12 #fcfcfc #000000 #000000 0 1;
#X obj 384 95 inlet;
#X obj 404 117 bng 19 250 50 0 empty empty empty 0 -10 0 12 #fcfcfc #000000 #000000;
#X obj 404 139 tgl 19 0 empty empty empty 0 -10 0 12 #fcfcfc #000000 #000000 0 1;
#X obj 477 96 inlet;
#X obj 499 118 bng 19 250 50 0 empty empty empty 0 -10 0 12 #fcfcfc #000000 #000000;
#X obj 499 140 tgl 19 0 empty empty empty 0 -10 0 12 #fcfcfc #000000 #000000 0 1;
#X obj 579 95 inlet;
#X obj 599 117 bng 19 250 50 0 empty empty empty 0 -10 0 12 #fcfcfc #000000 #000000;
#X obj 599 139 tgl 19 0 empty empty empty 0 -10 0 12 #fcfcfc #000000 #000000 0 1;
#X obj 684 94 inlet;
#X obj 705 116 bng 19 250 50 0 empty empty empty 0 -10 0 12 #fcfcfc #000000 #000000;
#X obj 705 138 tgl 19 0 empty empty empty 0 -10 0 12 #fcfcfc #000000 #000000 0 1;
#X obj 793 94 inlet;
#X obj 812 116 bng 19 250 50 0 empty empty empty 0 -10 0 12 #fcfcfc #000000 #000000;
#X obj 812 138 tgl 19 0 empty empty empty 0 -10 0 12 #fcfcfc #000000 #000000 0 1;
#X msg 207 162 \$1 45;
#X msg 306 164 \$1 37;
#X msg 704 161 \$1 28;
#X msg 812 161 \$1 64;
#X msg 498 163 \$1 81;
#X msg 598 162 \$1 88;
#X msg 97 163 \$1 40;
#X obj 63 51 loadbang;
#X msg 404 161 \$1 52;
#X obj 97 185 oi/playmidi;
#X obj 306 187 oi/playmidi;
#X obj 207 185 oi/playmidi;
#X obj 403 184 oi/playmidi;
#X obj 498 186 oi/playmidi;
#X obj 598 185 oi/playmidi;
#X obj 704 184 oi/playmidi;
#X obj 812 184 oi/playmidi;
#X connect 0 0 32 0;
#X connect 1 0 26 0;
#X connect 2 0 5 0;
#X connect 3 0 4 0;
#X connect 5 0 32 0;
#X connect 6 0 7 0;
#X connect 7 0 26 0;
#X connect 8 0 27 0;
#X connect 9 0 10 0;
#X connect 10 0 27 0;
#X connect 11 0 34 0;
#X connect 12 0 13 0;
#X connect 13 0 34 0;
#X connect 14 0 30 0;
#X connect 15 0 16 0;
#X connect 16 0 30 0;
#X connect 17 0 31 0;
#X connect 18 0 19 0;
#X connect 19 0 31 0;
#X connect 20 0 28 0;
#X connect 21 0 22 0;
#X connect 22 0 28 0;
#X connect 23 0 29 0;
#X connect 24 0 25 0;
#X connect 25 0 29 0;
#X connect 26 0 37 0;
#X connect 27 0 36 0;
#X connect 28 0 41 0;
#X connect 29 0 42 0;
#X connect 30 0 39 0;
#X connect 31 0 40 0;
#X connect 32 0 35 0;
#X connect 33 0 2 0;
#X connect 34 0 38 0;
#X restore 312 274 pd midimix;
#X f 14;
#X text 706 510 midi ports \; preferences > midi \; start your synths first use multiple output devices an;
#N canvas 34 78 1695 1108 controllers 0;
#X obj 826 127 inlet;
#X obj 930 127 inlet;
#X obj 1667 619;
#X msg 826 150 \$1 106;
#X msg 930 150 \$1 107;
#X obj 615 127 inlet;
#X obj 719 127 inlet;
#X obj 419 127 inlet;
#X obj 514 127 inlet;
#X obj 230 127 inlet;
#X obj 323 127 inlet;
#X msg 230 150 \$1 100;
#X msg 323 150 \$1 101;
#X msg 419 150 \$1 102;
#X msg 514 150 \$1 103;
#X msg 615 150 \$1 104;
#X msg 719 150 \$1 105;
#X obj 930 174 oi/ctlmidi;
#X obj 976 103 tgl 19 0 empty empty isolate 0 -10 0 12 #fcfcfc #000000 #000000 0 1;
#X obj 826 173 oi/ctlmidi;
#X obj 872 102 tgl 19 0 empty empty isolate 0 -10 0 12 #fcfcfc #000000 #000000 0 1;
#X obj 719 173 oi/ctlmidi;
#X obj 765 102 tgl 19 0 empty empty isolate 0 -10 0 12 #fcfcfc #000000 #000000 0 1;
#X obj 615 173 oi/ctlmidi;
#X obj 661 102 tgl 19 0 empty empty isolate 0 -10 0 12 #fcfcfc #000000 #000000 0 1;
#X obj 514 173 oi/ctlmidi;
#X obj 560 102 tgl 19 0 empty empty isolate 0 -10 0 12 #fcfcfc #000000 #000000 0 1;
#X obj 419 174 oi/ctlmidi;
#X obj 465 103 tgl 19 0 empty empty isolate 0 -10 0 12 #fcfcfc #000000 #000000 0 1;
#X obj 323 172 oi/ctlmidi;
#X obj 369 101 tgl 19 0 empty empty isolate 0 -10 0 12 #fcfcfc #000000 #000000 0 1;
#X obj 229 173 oi/ctlmidi;
#X obj 275 102 tgl 19 0 empty empty isolate 0 -10 0 12 #fcfcfc #000000 #000000 0 1;
#X connect 0 0 3 0;
#X connect 1 0 4 0;
#X connect 3 0 19 0;
#X connect 4 0 17 0;
#X connect 5 0 15 0;
#X connect 6 0 16 0;
#X connect 7 0 13 0;
#X connect 8 0 14 0;
#X connect 9 0 11 0;
#X connect 10 0 12 0;
#X connect 11 0 31 0;
#X connect 12 0 29 0;
#X connect 13 0 27 0;
#X connect 14 0 25 0;
#X connect 15 0 23 0;
#X connect 16 0 21 0;
#X connect 18 0 17 1;
#X connect 20 0 19 1;
#X connect 22 0 21 1;
#X connect 24 0 23 1;
#X connect 26 0 25 1;
#X connect 28 0 27 1;
#X connect 30 0 29 1;
#X connect 32 0 31 1;
#X restore 312 250 pd controllers;
#N canvas 34 78 1695 1108 configure 1;
#N canvas 0 22 450 278 (subpatch) 0;
#X array /0 200 float 4;
#X coords 0 127 199 0 500 50 1 0 0;
#X restore 52 162 graph;
#N canvas 0 22 450 278 (subpatch) 0;
#X array /2 200 float 4;
#X coords 0 127 199 0 500 50 1 0 0;
#X restore 52 294 graph;
#N canvas 0 22 450 278 (subpatch) 0;
#X array /1 200 float 4;
#X coords 0 127 199 0 500 50 1 0 0;
#X restore 52 228 graph;
#N canvas 0 22 450 278 (subpatch) 0;
#X array /3 200 float 4;
#X coords 0 127 199 0 500 50 2 0 0;
#X restore 52 361 graph;
#N canvas 0 22 450 278 (subpatch) 0;
#X array /5 200 float 4;
#X coords 0 127 199 0 500 50 1 0 0;
#X restore 52 498 graph;
#N canvas 0 22 450 278 (subpatch) 0;
#X array /4 200 float 4;
#X coords 0 127 199 0 500 50 1 0 0;
#X restore 52 429 graph;
#N canvas 0 22 450 278 (subpatch) 0;
#X array /6 200 float 4;
#X coords 0 150 199 0 500 50 1 0 0;
#X restore 52 566 graph;
#N canvas 0 22 450 278 (subpatch) 0;
#X array /7 200 float 4;
#X coords 0 127 199 0 500 50 1 0 0;
#X restore 53 634 graph;
#N canvas 0 22 450 278 (subpatch) 0;
#X array /1_min 1 float 0;
#X coords 0 0 1 1023 500 50 1 0 0;
#X restore 568 228 graph;
#N canvas 34 78 1284 1038 (subpatch) 0;
#X array /0_min 1 float 2;
#X coords 0 0 1 255 500 50 1 0 0;
#X restore 567 162 graph;
#N canvas 0 22 450 278 (subpatch) 0;
#X array /2_min 1 float 0;
#X coords 0 0 1 1023 500 50 1 0 0;
#X restore 568 294 graph;
#N canvas 0 22 450 278 (subpatch) 0;
#X array /3_min 1 float 0;
#X coords 0 0 1 1023 500 50 1 0 0;
#X restore 567 361 graph;
#N canvas 0 22 450 278 (subpatch) 0;
#X array /4_min 1 float 0;
#X coords 0 0 1 1023 500 50 1 0 0;
#X restore 566 429 graph;
#N canvas 0 22 450 278 (subpatch) 0;
#X array /5_min 1 float 0;
#X coords 0 0 1 1023 500 50 1 0 0;
#X restore 565 497 graph;
#N canvas 0 22 450 278 (subpatch) 0;
#X array /6_min 1 float 0;
#X coords 0 0 1 1023 500 50 1 0 0;
#X restore 564 566 graph;
#N canvas 0 22 450 278 (subpatch) 0;
#X array /7_min 1 float 0;
#X coords 0 0 1 1023 500 50 1 0 0;
#X restore 565 635 graph;
#X obj 122 758 bng 19 250 50 0 empty empty 3 0 -10 0 12 #feffc6 #000000 #000000;
#X obj 100 758 bng 19 250 50 0 empty empty 2 0 -10 0 12 #feffc6 #000000 #000000;
#X obj 78 758 bng 19 250 50 0 empty empty 1 0 -10 0 12 #feffc6 #000000 #000000;
#X obj 56 758 bng 19 250 50 0 empty empty 0 0 -10 0 12 #feffc6 #000000 #000000;
#N canvas 1448 135 1548 890 setFFI 0;
#X msg 87 68 1;
#X msg 130 68 2;
#X msg 175 68 3;
#X obj 87 41 inlet;
#X obj 130 41 inlet;
#X obj 174 41 inlet;
#X obj 42 40 inlet;
#X msg 42 67 0;
#X obj 49 245 s sendOSC;
#X msg 49 223 \$2 \$1;
#X symbolatom 103 178 17 0 0 0 - - - 0;
#X obj 49 201 pack f s;
#X obj 134 260 print;
#X obj 93 123 makefilename /setFFIFilter;
#X connect 0 0 11 0;
#X connect 0 0 13 0;
#X connect 1 0 11 0;
#X connect 1 0 13 0;
#X connect 2 0 11 0;
#X connect 2 0 13 0;
#X connect 3 0 0 0;
#X connect 4 0 1 0;
#X connect 5 0 2 0;
#X connect 6 0 7 0;
#X connect 7 0 11 0;
#X connect 7 0 13 0;
#X connect 9 0 8 0;
#X connect 9 0 12 0;
#X connect 10 0 11 1;
#X connect 11 0 9 0;
#X connect 13 0 10 0;
#X restore 56 783 pd setFFI;
#X f 10;
#X obj 222 758 bng 19 250 50 0 empty empty 3 0 -10 0 12 #feffc6 #000000 #000000;
#X obj 200 758 bng 19 250 50 0 empty empty 2 0 -10 0 12 #feffc6 #000000 #000000;
#X obj 178 758 bng 19 250 50 0 empty empty 1 0 -10 0 12 #feffc6 #000000 #000000;
#X obj 156 758 bng 19 250 50 0 empty empty 0 0 -10 0 12 #feffc6 #000000 #000000;
#N canvas 101 161 1617 974 setSFI 0;
#X msg 226 188 1;
#X msg 269 188 2;
#X msg 314 188 3;
#X obj 226 161 inlet;
#X obj 269 161 inlet;
#X obj 313 161 inlet;
#X obj 181 160 inlet;
#X msg 181 187 0;
#X obj 188 365 s sendOSC;
#X msg 188 343 \$2 \$1;
#X symbolatom 242 298 17 0 0 0 - - - 0;
#X obj 188 321 pack f s;
#X obj 232 243 makefilename /setSFIFilter;
#X obj 273 380 print;
#X connect 0 0 12 0;
#X connect 0 0 11 0;
#X connect 1 0 12 0;
#X connect 1 0 11 0;
#X connect 2 0 12 0;
#X connect 2 0 11 0;
#X connect 3 0 0 0;
#X connect 4 0 1 0;
#X connect 5 0 2 0;
#X connect 6 0 7 0;
#X connect 7 0 11 0;
#X connect 7 0 12 0;
#X connect 9 0 8 0;
#X connect 9 0 13 0;
#X connect 10 0 11 1;
#X connect 11 0 9 0;
#X connect 12 0 10 0;
#X restore 156 783 pd setSFI;
#X f 10;
#X obj 526 758 bng 19 250 50 0 empty empty 4 0 -10 0 12 #feffc6 #000000 #000000;
#X obj 504 758 bng 19 250 50 0 empty empty 2 0 -10 0 12 #feffc6 #000000 #000000;
#X obj 482 758 bng 19 250 50 0 empty empty 1 0 -10 0 12 #feffc6 #000000 #000000;
#X obj 453 758 bng 19 250 50 0 empty empty 0.5 0 -10 0 12 #feffc6 #000000 #000000;
#N canvas 53 74 1334 1090 setCDT 0;
#X msg 226 188 1;
#X msg 269 188 2;
#X obj 226 161 inlet;
#X obj 269 161 inlet;
#X obj 313 161 inlet;
#X obj 182 161 inlet;
#X obj 182 365 s sendOSC;
#X msg 182 343 \$2 \$1;
#X symbolatom 310 303 17 0 0 0 - - - 0;
#X obj 182 321 pack f s;
#X obj 140 406 print;
#X obj 310 278 makefilename /setCDT;
#X obj 358 161 inlet;
#X obj 403 161 inlet;
#X msg 182 188 0;
#X msg 314 188 4;
#X msg 359 188 8;
#X msg 404 188 16;
#X obj 448 161 inlet;
#X msg 449 188 32;
#X connect 0 0 9 0;
#X connect 0 0 11 0;
#X connect 1 0 9 0;
#X connect 1 0 11 0;
#X connect 2 0 0 0;
#X connect 3 0 1 0;
#X connect 4 0 15 0;
#X connect 5 0 14 0;
#X connect 7 0 6 0;
#X connect 7 0 10 0;
#X connect 8 0 9 1;
#X connect 9 0 7 0;
#X connect 11 0 8 0;
#X connect 12 0 16 0;
#X connect 13 0 17 0;
#X connect 14 0 9 0;
#X connect 14 0 11 0;
#X connect 15 0 9 0;
#X connect 15 0 11 0;
#X connect 16 0 9 0;
#X connect 16 0 11 0;
#X connect 17 0 9 0;
#X connect 17 0 11 0;
#X connect 18 0 19 0;
#X connect 19 0 9 0;
#X connect 19 0 11 0;
#X restore 453 783 pd setCDT;
#X f 22;
#X obj 548 758 bng 19 250 50 0 empty empty 8 0 -10 0 12 #feffc6 #000000 #000000;
#X obj 570 758 bng 19 250 50 0 empty empty 16 0 -10 0 12 #feffc6 #000000 #000000;
#X obj 592 758 bng 19 250 50 0 empty empty 32 0 -10 0 12 #feffc6 #000000 #000000;
#X obj 304 758 bng 19 250 50 0 empty empty 4 0 -10 0 12 #feffc6 #000000 #000000;
#X obj 282 758 bng 19 250 50 0 empty empty 2 0 -10 0 12 #feffc6 #000000 #000000;
#X obj 260 758 bng 19 250 50 0 empty empty 1 0 -10 0 12 #feffc6 #000000 #000000;
#X obj 326 758 bng 19 250 50 0 empty empty 8 0 -10 0 12 #feffc6 #000000 #000000;
#X obj 348 758 bng 19 250 50 0 empty empty 16 0 -10 0 12 #feffc6 #000000 #000000;
#X obj 370 758 bng 19 250 50 0 empty empty 32 0 -10 0 12 #feffc6 #000000 #000000;
#N canvas 53 74 1334 1090 setInterval 0;
#X msg 188 186 1;
#X msg 231 187 2;
#X obj 188 161 inlet;
#X obj 231 161 inlet;
#X obj 275 161 inlet;
#X obj 188 365 s sendOSC;
#X msg 188 343 \$2 \$1;
#X symbolatom 318 304 17 0 0 0 - - - 0;
#X obj 188 321 pack f s;
#X obj 119 393 print;
#X obj 318 282 makefilename /setCDT;
#X obj 322 161 inlet;
#X obj 368 161 inlet;
#X msg 275 187 4;
#X msg 322 187 8;
#X msg 368 187 16;
#X obj 414 161 inlet;
#X msg 414 187 32;
#X obj 459 161 inlet;
#X msg 459 187 64;
#X obj 505 161 inlet;
#X msg 505 187 128;
#X connect 0 0 8 0;
#X connect 0 0 10 0;
#X connect 1 0 8 0;
#X connect 1 0 10 0;
#X connect 2 0 0 0;
#X connect 3 0 1 0;
#X connect 4 0 13 0;
#X connect 6 0 5 0;
#X connect 6 0 9 0;
#X connect 7 0 8 1;
#X connect 8 0 6 0;
#X connect 10 0 7 0;
#X connect 11 0 14 0;
#X connect 12 0 15 0;
#X connect 13 0 8 0;
#X connect 13 0 10 0;
#X connect 14 0 8 0;
#X connect 14 0 10 0;
#X connect 15 0 8 0;
#X connect 15 0 10 0;
#X connect 16 0 17 0;
#X connect 17 0 8 0;
#X connect 17 0 10 0;
#X connect 18 0 19 0;
#X connect 19 0 10 0;
#X connect 20 0 21 0;
#X connect 21 0 8 0;
#X connect 21 0 10 0;
#X restore 260 783 pd setInterval;
#X f 23;
#X obj 393 758 bng 19 250 50 0 empty empty 64 0 -10 0 12 #feffc6 #000000 #000000;
#X obj 416 758 bng 19 250 50 0 empty empty 128 0 -10 0 12 #feffc6 #000000 #000000;
#X text 561 102 IN PROGRESS \, expected to be a MIN MAX overlay on the main graphs \, haven't worked that out yet;
#X obj 187 42 bng 30 250 50 0 behi empty UNFOLDED 0 -10 0 12 #c6feff #000000 #000000;
#X obj 134 42 bng 30 250 50 0 belo empty FOLDED 0 -10 0 12 #feffc6 #000000 #000000;
#X obj 62 42 bng 30 250 50 0 calibrate empty CALIBRATE 0 -10 0 12 #ff0400 #000000 #000000;
#N canvas 34 78 1695 1108 guts 1;
#X obj 173 77 tgl 19 0 empty startGraph empty 0 -10 0 12 #c6ffc7 #000000 #000000 0 1;
#X obj 184 139 f;
#X obj 226 138 + 1;
#X listbox 184 181 7 0 0 0 - - - 0;
#X obj 184 160 mod 200;
#X obj 84 128 unpack s f;
#X obj 83 199 tabwrite;
#X msg 84 151 set \$1;
#X floatatom 96 341 5 0 0 0 - - - 0;
#X floatatom 156 341 5 0 0 0 - - - 0;
#X floatatom 188 438 5 0 0 0 - - - 0;
#X floatatom 269 438 5 0 0 0 - - - 0;
#X obj 69 413 tabwrite;
#X obj 96 291 bng 19 250 50 0 empty empty empty 0 -10 0 12 #fcfcfc #000000 #000000;
#X obj 188 414 array min;
#X msg 59 240 set \$1_min;
#X floatatom 175 378 5 0 0 0 - - - 0;
#X obj 220 339 bng 19 250 50 0 empty empty empty 0 -10 0 12 #fcfcfc #000000 #000000;
#X obj 96 316 array min;
#X obj 176 118 metro 10;
#X obj 333 89 r graphRate;
#X msg 293 139 200;
#X obj 84 83 r /s;
#X connect 0 0 19 0;
#X connect 1 0 2 0;
#X connect 1 0 4 0;
#X connect 2 0 1 1;
#X connect 3 0 6 1;
#X connect 4 0 3 0;
#X connect 5 0 7 0;
#X connect 5 0 15 0;
#X connect 5 0 18 2;
#X connect 5 1 6 0;
#X connect 7 0 6 0;
#X connect 8 0 12 0;
#X connect 13 0 16 0;
#X connect 13 0 18 0;
#X connect 14 0 10 0;
#X connect 14 1 11 0;
#X connect 15 0 12 0;
#X connect 15 0 13 0;
#X connect 16 0 12 1;
#X connect 17 0 16 0;
#X connect 18 0 8 0;
#X connect 18 1 9 0;
#X connect 19 0 1 0;
#X connect 20 0 19 1;
#X connect 21 0 4 1;
#X connect 22 0 5 0;
#X restore 1004 31 pd guts;
#X obj 62 94 tgl 30 0 startGraph empty start\ graph 40 15 0 12 #dfdfdf #000000 #000000 0 1;
#X text 52 703 OSC ONLY SO FAR @TODO IMPLEMENT MIDI \; FINE TUNING FOR MPR121 DATA - dont use unless you know what you are doing, f 77;
#X obj 1099 162 bng 19 250 50 0 setFFI0 empty FFI_6 25 11 0 12 #ffe3c6 #000000 #000000;
#X obj 1099 183 bng 19 250 50 0 setFFI1 empty FFI_10 25 11 0 12 #ffe3c6 #000000 #000000;
#X obj 1099 204 bng 19 250 50 0 setFFI2 empty FFI_18 25 11 0 12 #ffe3c6 #000000 #000000;
#X obj 1099 225 bng 19 250 50 0 setFFI3 empty FFI_34 25 11 0 12 #ffe3c6 #000000 #000000;
#X obj 1099 283 bng 19 250 50 0 setSFI1 empty SFI_6 25 11 0 12 #c6feff #000000 #000000;
#X obj 1099 304 bng 19 250 50 0 setSFI2 empty FFI_10 25 11 0 12 #c6feff #000000 #000000;
#X obj 1099 325 bng 19 250 50 0 setSFI3 empty FFI_18 25 11 0 12 #c6feff #000000 #000000;
#X obj 1099 261 bng 19 250 50 0 setSFI0 empty SFI_4 25 11 0 12 #c6feff #000000 #000000;
#X obj 1099 382 bng 19 250 50 0 setCDT1 empty CDT\ 1 25 11 0 12 #feffc6 #000000 #000000;
#X obj 1099 403 bng 19 250 50 0 setCDT2 empty CDT\ 2 25 11 0 12 #feffc6 #000000 #000000;
#X obj 1099 360 bng 19 250 50 0 setCDT0 empty CDT\ 0.5 25 11 0 12 #feffc6 #000000 #000000;
#X obj 1099 446 bng 19 250 50 0 setCDT4 empty CDT\ 8 25 11 0 12 #feffc6 #000000 #000000;
#X obj 1099 467 bng 19 250 50 0 setCDT5 empty CDT\ 16 25 11 0 12 #feffc6 #000000 #000000;
#X obj 1099 424 bng 19 250 50 0 setCDT3 empty CDT\ 4 25 11 0 12 #feffc6 #000000 #000000;
#X obj 1099 511 bng 19 250 50 0 setCDT7 empty CDT\ 64 25 11 0 12 #feffc6 #000000 #000000;
#X obj 1099 532 bng 19 250 50 0 setCDT8 empty CDT\ 128 25 11 0 12 #feffc6 #000000 #000000;
#X obj 1099 489 bng 19 250 50 0 setCDT6 empty CDT\ 32 25 11 0 12 #feffc6 #000000 #000000;
#X obj 1099 587 bng 19 250 50 0 setINT1 empty INT\ 1 25 11 0 12 #c6ffc7 #000000 #000000;
#X obj 1099 608 bng 19 250 50 0 setINT2 empty INT\ 2 25 11 0 12 #c6ffc7 #000000 #000000;
#X obj 1099 565 bng 19 250 50 0 setINT0 empty INT\ 0.5 25 11 0 12 #c6ffc7 #000000 #000000;
#X obj 1099 651 bng 19 250 50 0 setINT4 empty INT\ 8 25 11 0 12 #c6ffc7 #000000 #000000;
#X obj 1099 672 bng 19 250 50 0 setINT5 empty INT\ 16 25 11 0 12 #c6ffc7 #000000 #000000;
#X obj 1099 629 bng 19 250 50 0 setINT3 empty INT\ 4 25 11 0 12 #c6ffc7 #000000 #000000;
#X obj 1099 716 bng 19 250 50 0 setINT7 empty INT\ 64 25 11 0 12 #c6ffc7 #000000 #000000;
#X obj 1099 737 bng 19 250 50 0 setINT8 empty INT\ 128 25 11 0 12 #c6ffc7 #000000 #000000;
#X obj 1099 694 bng 19 250 50 0 setINT6 empty INT\ 32 25 11 0 12 #c6ffc7 #000000 #000000;
#X floatatom 263 103 5 5 200 0 - - graphRate 0;
#X connect 16 0 20 3;
#X connect 17 0 20 2;
#X connect 18 0 20 1;
#X connect 19 0 20 0;
#X connect 21 0 25 3;
#X connect 22 0 25 2;
#X connect 23 0 25 1;
#X connect 24 0 25 0;
#X connect 26 0 30 3;
#X connect 27 0 30 2;
#X connect 28 0 30 1;
#X connect 29 0 30 0;
#X connect 31 0 30 4;
#X connect 32 0 30 5;
#X connect 33 0 30 6;
#X connect 34 0 40 2;
#X connect 35 0 40 1;
#X connect 36 0 40 0;
#X connect 37 0 40 3;
#X connect 38 0 40 4;
#X connect 39 0 40 5;
#X connect 41 0 40 6;
#X connect 42 0 40 7;
#X coords 0 0 0.25 0.25 0 0 0;
#X restore 1106 43 pd configure;
#X floatatom 52 176 5 0 0 0 - - - 0;
#X obj 690 244 cnv 19 400 80 empty empty empty 20 12 0 12 #feffc6 #404040 0;
#X obj 690 224 cnv 30 400 20 empty empty empty 20 12 0 16 #faff00 #404040 0;
#X text 700 224 AUDIO SETUP;
#N canvas 34 78 1695 1108 audiomixer 0;
#X obj 386 332 *~;
#X obj 386 356 dac~ 2;
#X obj 386 272 r startaudio;
#X obj 492 272 r stopaudio;
#X obj 379 477 *~;
#X obj 379 501 dac~ 2;
#X obj 379 417 r startaudio;
#X obj 485 417 r stopaudio;
#X obj 376 609 *~;
#X obj 376 633 dac~ 2;
#X obj 376 549 r startaudio;
#X obj 482 549 r stopaudio;
#X obj 996 149 *~;
#X obj 996 173 dac~ 2;
#X obj 996 89 r startaudio;
#X obj 1102 89 r stopaudio;
#X obj 370 747 *~;
#X obj 370 771 dac~ 2;
#X obj 370 687 r startaudio;
#X obj 476 687 r stopaudio;
#X obj 992 298 *~;
#X obj 992 322 dac~ 2;
#X obj 992 238 r startaudio;
#X obj 1098 238 r stopaudio;
#X obj 991 440 *~;
#X obj 991 464 dac~ 2;
#X obj 991 380 r startaudio;
#X obj 1097 380 r stopaudio;
#X obj 390 153 *~;
#X obj 390 124 tabplay~ audio1_R;
#X obj 390 177 dac~ 2;
#X obj 390 93 r startaudio;
#X obj 496 93 r stopaudio;
#X obj 386 303 tabplay~ audio2_R;
#X obj 379 448 tabplay~ audio3_R;
#X obj 376 580 tabplay~ audio4_R;
#X obj 370 718 tabplay~ audio5_R;
#X obj 996 120 tabplay~ audio6_R;
#X obj 992 269 tabplay~ audio7_R;
#X obj 991 411 tabplay~ audio8_R;
#X obj 516 125 r vR1;
#X obj 512 304 r vR2;
#X obj 505 449 r vR3;
#X obj 502 581 r vR4;
#X obj 496 719 r vR5;
#X obj 1122 121 r vR6;
#X obj 1118 270 r vR7;
#X obj 1117 412 r vR8;
#X obj 87 336 *~;
#X obj 87 276 r startaudio;
#X obj 193 276 r stopaudio;
#X obj 85 475 *~;
#X obj 85 415 r startaudio;
#X obj 191 415 r stopaudio;
#X obj 83 614 *~;
#X obj 83 554 r startaudio;
#X obj 189 554 r stopaudio;
#X obj 709 146 *~;
#X obj 709 86 r startaudio;
#X obj 815 86 r stopaudio;
#X obj 84 744 *~;
#X obj 84 684 r startaudio;
#X obj 190 684 r stopaudio;
#X obj 706 296 *~;
#X obj 706 236 r startaudio;
#X obj 812 236 r stopaudio;
#X obj 708 442 *~;
#X obj 708 382 r startaudio;
#X obj 814 382 r stopaudio;
#X obj 89 191 *~;
#X obj 90 77 r startaudio;
#X obj 186 77 r stopaudio;
#X obj 212 98 r vL1;
#X obj 89 215 dac~ 1;
#X obj 84 768 dac~ 1;
#X obj 87 360 dac~ 1;
#X obj 709 170 dac~ 1;
#X obj 85 499 dac~ 1;
#X obj 706 320 dac~ 1;
#X obj 83 638 dac~ 1;
#X obj 708 466 dac~ 1;
#X obj 89 142 tabplay~ audio1_L;
#X obj 87 307 tabplay~ audio2_L;
#X obj 85 446 tabplay~ audio3_L;
#X obj 83 585 tabplay~ audio4_L;
#X obj 84 715 tabplay~ audio5_L;
#X obj 709 117 tabplay~ audio6_L;
#X obj 706 267 tabplay~ audio7_L;
#X obj 708 413 tabplay~ audio8_L;
#X obj 224 313 r vL2;
#X obj 211 447 r vL3;
#X obj 209 586 r vL4;
#X obj 834 414 r vL8;
#X obj 832 268 r vL7;
#X obj 835 118 r vL6;
#X obj 210 716 r vL5;
#X obj 203 184 s loop;
#X obj 36 38 r loop;
#X obj 52 148 bng 19 250 50 0 empty empty empty 0 -10 0 12 #fcfcfc #000000 #000000;
#X obj 212 144 vline~;
#X obj 212 121 pack \$1 \$2;
#X obj 279 95 r ramptime;
#X obj 224 360 vline~;
#X obj 224 337 pack \$1 \$2;
#X obj 291 311 r ramptime;
#X obj 212 493 vline~;
#X obj 212 470 pack \$1 \$2;
#X obj 279 444 r ramptime;
#X obj 208 640 vline~;
#X obj 208 617 pack \$1 \$2;
#X obj 275 591 r ramptime;
#X obj 205 765 vline~;
#X obj 205 742 pack \$1 \$2;
#X obj 272 716 r ramptime;
#X obj 833 169 vline~;
#X obj 833 146 pack \$1 \$2;
#X obj 900 120 r ramptime;
#X obj 833 319 vline~;
#X obj 833 296 pack \$1 \$2;
#X obj 900 270 r ramptime;
#X obj 833 465 vline~;
#X obj 833 442 pack \$1 \$2;
#X obj 900 416 r ramptime;
#X obj 512 173 vline~;
#X obj 512 150 pack \$1 \$2;
#X obj 579 124 r ramptime;
#X obj 511 351 vline~;
#X obj 511 328 pack \$1 \$2;
#X obj 578 302 r ramptime;
#X obj 502 499 vline~;
#X obj 502 476 pack \$1 \$2;
#X obj 569 450 r ramptime;
#X obj 500 627 vline~;
#X obj 500 604 pack \$1 \$2;
#X obj 567 578 r ramptime;
#X obj 493 767 vline~;
#X obj 493 744 pack \$1 \$2;
#X obj 560 718 r ramptime;
#X obj 1117 173 vline~;
#X obj 1117 150 pack \$1 \$2;
#X obj 1184 124 r ramptime;
#X obj 1117 321 vline~;
#X obj 1117 298 pack \$1 \$2;
#X obj 1184 272 r ramptime;
#X obj 1115 466 vline~;
#X obj 1115 443 pack \$1 \$2;
#X obj 1182 417 r ramptime;
#X obj 990 712 *~;
#X obj 990 736 dac~ 2;
#X obj 990 652 r startaudio;
#X obj 1096 652 r stopaudio;
#X obj 699 717 *~;
#X obj 699 741 dac~ 2;
#X obj 699 657 r startaudio;
#X obj 805 657 r stopaudio;
#X obj 702 524 r startaudio;
#X obj 808 524 r stopaudio;
#X obj 990 583 *~;
#X obj 990 523 r startaudio;
#X obj 1096 523 r stopaudio;
#X obj 702 608 dac~ 1;
#X obj 990 607 dac~ 1;
#X obj 827 610 vline~;
#X obj 827 587 pack \$1 \$2;
#X obj 894 561 r ramptime;
#X obj 1115 606 vline~;
#X obj 1115 583 pack \$1 \$2;
#X obj 1182 557 r ramptime;
#X obj 1124 730 vline~;
#X obj 1124 707 pack \$1 \$2;
#X obj 1191 681 r ramptime;
#X obj 833 743 vline~;
#X obj 833 720 pack \$1 \$2;
#X obj 900 694 r ramptime;
#X obj 828 556 r vL9;
#X obj 702 555 tabplay~ audio9_L;
#X obj 990 554 tabplay~ audio9_L;
#X obj 990 683 tabplay~ audio10_R;
#X obj 702 580 *~;
#X obj 696 785 r startaudio;
#X obj 802 785 r stopaudio;
#X obj 696 869 dac~ 1;
#X obj 828 870 vline~;
#X obj 828 847 pack \$1 \$2;
#X obj 895 816 r ramptime;
#X obj 696 841 *~;
#X obj 696 816 tabplay~ audio11_L;
#X obj 829 816 r vL11;
#X obj 986 843 *~;
#X obj 986 867 dac~ 2;
#X obj 986 783 r startaudio;
#X obj 1092 783 r stopaudio;
#X obj 1120 869 vline~;
#X obj 1120 846 pack \$1 \$2;
#X obj 1187 820 r ramptime;
#X obj 672 45 r loop;
#X obj 986 814 tabplay~ audio11_R;
#X obj 1123 815 r vR11;
#X obj 699 688 tabplay~ audio10_L;
#X obj 835 689 r vL10;
#X obj 953 36 r loop;
#X obj 369 40 r loop;
#X obj 1126 684 r vR10;
#X obj 1116 555 r vR9;
#X text 1331 48 DSP on/off;
#X msg 1345 70 \; pd dsp \$1;
#X obj 1308 48 tgl 19 0 empty dspON empty 17 7 0 10 #faff00 #000000 #000000 0 1;
#X obj 1308 122 s ramptime;
#X obj 1308 73 bng 19 250 50 0 empty empty empty 0 -10 0 12 #fcfcfc #000000 #000000;
#X msg 1308 98 50;
#X obj 1305 214 r audiostop;
#X msg 1305 239 stop;
#X obj 1305 263 s stopaudio;
#X obj 1305 316 loadbang;
#X obj 1379 402 s mixnumber;
#X msg 1379 364 1;
#X msg 1305 362 0;
#X obj 1305 402 s invert;
#X connect 0 0 1 0;
#X connect 2 0 33 0;
#X connect 3 0 33 0;
#X connect 4 0 5 0;
#X connect 6 0 34 0;
#X connect 7 0 34 0;
#X connect 8 0 9 0;
#X connect 10 0 35 0;
#X connect 11 0 35 0;
#X connect 12 0 13 0;
#X connect 14 0 37 0;
#X connect 15 0 37 0;
#X connect 16 0 17 0;
#X connect 18 0 36 0;
#X connect 19 0 36 0;
#X connect 20 0 21 0;
#X connect 22 0 38 0;
#X connect 23 0 38 0;
#X connect 24 0 25 0;
#X connect 26 0 39 0;
#X connect 27 0 39 0;
#X connect 28 0 30 0;
#X connect 29 0 28 0;
#X connect 31 0 29 0;
#X connect 32 0 29 0;
#X connect 33 0 0 0;
#X connect 34 0 4 0;
#X connect 35 0 8 0;
#X connect 36 0 16 0;
#X connect 37 0 12 0;
#X connect 38 0 20 0;
#X connect 39 0 24 0;
#X connect 40 0 124 0;
#X connect 41 0 127 0;
#X connect 42 0 130 0;
#X connect 43 0 133 0;
#X connect 44 0 136 0;
#X connect 45 0 139 0;
#X connect 46 0 142 0;
#X connect 47 0 145 0;
#X connect 48 0 75 0;
#X connect 49 0 82 0;
#X connect 50 0 82 0;
#X connect 51 0 77 0;
#X connect 52 0 83 0;
#X connect 53 0 83 0;
#X connect 54 0 79 0;
#X connect 55 0 84 0;
#X connect 56 0 84 0;
#X connect 57 0 76 0;
#X connect 58 0 86 0;
#X connect 59 0 86 0;
#X connect 60 0 74 0;
#X connect 61 0 85 0;
#X connect 62 0 85 0;
#X connect 63 0 78 0;
#X connect 64 0 87 0;
#X connect 65 0 87 0;
#X connect 66 0 80 0;
#X connect 67 0 88 0;
#X connect 68 0 88 0;
#X connect 69 0 73 0;
#X connect 70 0 81 0;
#X connect 71 0 81 0;
#X connect 72 0 100 0;
#X connect 81 0 69 0;
#X connect 81 1 96 0;
#X connect 82 0 48 0;
#X connect 83 0 51 0;
#X connect 84 0 54 0;
#X connect 85 0 60 0;
#X connect 86 0 57 0;
#X connect 87 0 63 0;
#X connect 88 0 66 0;
#X connect 89 0 103 0;
#X connect 90 0 106 0;
#X connect 91 0 109 0;
#X connect 92 0 121 0;
#X connect 93 0 118 0;
#X connect 94 0 115 0;
#X connect 95 0 112 0;
#X connect 97 0 81 0;
#X connect 97 0 82 0;
#X connect 97 0 83 0;
#X connect 97 0 98 0;
#X connect 97 0 84 0;
#X connect 97 0 85 0;
#X connect 99 0 69 1;
#X connect 100 0 99 0;
#X connect 101 0 100 1;
#X connect 102 0 48 1;
#X connect 103 0 102 0;
#X connect 104 0 103 1;
#X connect 105 0 51 1;
#X connect 106 0 105 0;
#X connect 107 0 106 1;
#X connect 108 0 54 1;
#X connect 109 0 108 0;
#X connect 110 0 109 1;
#X connect 111 0 60 1;
#X connect 112 0 111 0;
#X connect 113 0 112 1;
#X connect 114 0 57 1;
#X connect 115 0 114 0;
#X connect 116 0 115 1;
#X connect 117 0 63 1;
#X connect 118 0 117 0;
#X connect 119 0 118 1;
#X connect 120 0 66 1;
#X connect 121 0 120 0;
#X connect 122 0 121 1;
#X connect 123 0 28 1;
#X connect 124 0 123 0;
#X connect 125 0 124 1;
#X connect 126 0 0 1;
#X connect 127 0 126 0;
#X connect 128 0 127 1;
#X connect 129 0 4 1;
#X connect 130 0 129 0;
#X connect 131 0 130 1;
#X connect 132 0 8 1;
#X connect 133 0 132 0;
#X connect 134 0 133 1;
#X connect 135 0 16 1;
#X connect 136 0 135 0;
#X connect 137 0 136 1;
#X connect 138 0 12 1;
#X connect 139 0 138 0;
#X connect 140 0 139 1;
#X connect 141 0 20 1;
#X connect 142 0 141 0;
#X connect 143 0 142 1;
#X connect 144 0 24 1;
#X connect 145 0 144 0;
#X connect 146 0 145 1;
#X connect 147 0 148 0;
#X connect 149 0 177 0;
#X connect 150 0 177 0;
#X connect 151 0 152 0;
#X connect 153 0 198 0;
#X connect 154 0 198 0;
#X connect 155 0 175 0;
#X connect 156 0 175 0;
#X connect 157 0 161 0;
#X connect 158 0 176 0;
#X connect 159 0 176 0;
#X connect 162 0 178 1;
#X connect 163 0 162 0;
#X connect 164 0 163 1;
#X connect 165 0 157 1;
#X connect 166 0 165 0;
#X connect 167 0 166 1;
#X connect 168 0 147 1;
#X connect 169 0 168 0;
#X connect 170 0 169 1;
#X connect 171 0 151 1;
#X connect 172 0 171 0;
#X connect 173 0 172 1;
#X connect 174 0 163 0;
#X connect 175 0 178 0;
#X connect 176 0 157 0;
#X connect 177 0 147 0;
#X connect 178 0 160 0;
#X connect 179 0 186 0;
#X connect 180 0 186 0;
#X connect 182 0 185 1;
#X connect 183 0 182 0;
#X connect 184 0 183 1;
#X connect 185 0 181 0;
#X connect 186 0 185 0;
#X connect 187 0 183 0;
#X connect 188 0 189 0;
#X connect 190 0 196 0;
#X connect 191 0 196 0;
#X connect 192 0 188 1;
#X connect 193 0 192 0;
#X connect 194 0 193 1;
#X connect 195 0 186 0;
#X connect 195 0 86 0;
#X connect 195 0 87 0;
#X connect 195 0 88 0;
#X connect 195 0 175 0;
#X connect 195 0 198 0;
#X connect 196 0 188 0;
#X connect 197 0 193 0;
#X connect 198 0 151 0;
#X connect 199 0 172 0;
#X connect 200 0 37 0;
#X connect 200 0 38 0;
#X connect 200 0 39 0;
#X connect 200 0 176 0;
#X connect 200 0 177 0;
#X connect 200 0 196 0;
#X connect 201 0 29 0;
#X connect 201 0 33 0;
#X connect 201 0 34 0;
#X connect 201 0 35 0;
#X connect 201 0 36 0;
#X connect 202 0 169 0;
#X connect 203 0 166 0;
#X connect 206 0 205 0;
#X connect 206 0 208 0;
#X connect 208 0 209 0;
#X connect 209 0 207 0;
#X connect 210 0 211 0;
#X connect 211 0 212 0;
#X connect 213 0 215 0;
#X connect 213 0 216 0;
#X connect 215 0 214 0;
#X connect 216 0 217 0;
#X restore 991 227 pd audiomixer;
#X obj 691 355 cnv 19 400 150 empty empty empty 20 12 0 12 #c6feff #404040 0;
#X obj 691 335 cnv 30 400 20 empty empty empty 20 12 0 16 #00faff #404040 0;
#X obj 755 427 bng 19 250 50 0 midiport3 empty 3 0 -10 0 12 #00faff #000000 #000000;
#X obj 733 427 bng 19 250 50 0 midiport2 empty 2 0 -10 0 12 #00faff #000000 #000000;
#X obj 711 427 bng 19 250 50 0 midiport1 empty 1 0 -10 0 12 #00faff #000000 #000000;
#X obj 778 427 bng 19 250 50 0 midiport4 empty 4 0 -10 0 12 #00faff #000000 #000000;
#X text 708 385 1-4 (1-16 channels per port);
#X text 708 367 SELECT OUTBOUND MIDI PORT;
#N canvas 34 78 1695 1108 midiport 0;
#X obj 72 163 * 16;
#X obj 184 164 s synth-channel;
#X msg 72 136 1;
#X msg 122 136 2;
#X msg 172 136 3;
#X floatatom 121 164 5 0 0 0 - - - 0;
#X msg 221 136 4;
#X obj 72 16 r midiport1;
#X obj 122 40 r midiport2;
#X obj 172 61 r midiport3;
#X obj 222 82 r midiport4;
#X connect 0 0 5 0;
#X connect 2 0 0 0;
#X connect 3 0 0 0;
#X connect 4 0 0 0;
#X connect 5 0 1 0;
#X connect 6 0 0 0;
#X connect 7 0 2 0;
#X connect 8 0 3 0;
#X connect 9 0 4 0;
#X connect 10 0 6 0;
#X restore 1009 335 pd midiport;
#N canvas 588 47 1695 1108 calibrate 1;
#X msg 75 95 0;
#X msg 126 95 5;
#X msg 178 95 10;
#X msg 231 95 15;
#X msg 283 95 20;
#X floatatom 75 133 5 0 0 0 - - - 0;
#X msg 335 95 100;
#X msg 37 94 111;
#X floatatom 116 133 5 0 0 0 - - - 0;
#X obj 339 42 r calibrate;
#X obj 183 42 r belo;
#X obj 235 42 r behi;
#X obj 287 42 r lohs;
#X obj 79 42 r hard;
#X obj 131 42 r soft;
#X obj 21 33 loadbang;
#X text 659 56 CC 111 CALIBRATE FUNCTIONS;
#X text 660 75 VALUE 0 HARD \; VALUE 5 SOFT \; VALUE 10 BELO \; VALUE 15 BEHI \; VALUE 20 LOHS \; VALUE 100 CALIBRATE;
#X obj 195 347 bng 19 250 50 0 empty empty 3 0 -10 0 12 #feffc6 #000000 #000000;
#X obj 155 347 bng 19 250 50 0 empty empty 2 0 -10 0 12 #feffc6 #000000 #000000;
#X obj 115 347 bng 19 250 50 0 empty empty 1 0 -10 0 12 #feffc6 #000000 #000000;
#X obj 75 347 bng 19 250 50 0 empty empty 0 0 -10 0 12 #feffc6 #000000 #000000;
#X obj 235 347 bng 19 250 50 0 empty empty 4 0 -10 0 12 #feffc6 #000000 #000000;
#X msg 75 370 0;
#X floatatom 75 392 5 0 0 0 - - - 0;
#X obj 274 347 bng 19 250 50 0 empty empty 5 0 -10 0 12 #ff0400 #000000 #000000;
#X floatatom 142 402 5 0 0 0 - - - 0;
#X obj 74 427 ctlout;
#X msg 47 366 110;
#X msg 115 370 1;
#X msg 155 370 2;
#X msg 195 370 3;
#X msg 235 370 4;
#X msg 271 370 5;
#X text 561 265 CC 110 SET MODE;
#X obj 371 287 bng 19 250 50 0 setmode0 empty 0\ SERIAL\ DEBUG 25 11 0 12 #ffe3c6 #000000 #000000;
#X obj 75 258 r setmode0;
#X obj 115 278 r setmode1;
#X obj 154 297 r setmode2;
#X obj 195 257 r setmode3;
#X obj 235 277 r setmode4;
#X obj 274 296 r setmode5;
#X text 369 259 SET MODE;
#X text 552 288 #define MODE_SERIAL_DEBUG 0 // useful only for serial output checks \; #define MODE_SERIAL_DEBUG_RAW 1 // useful only for serial output checks \; #define MODE_RAW 2 // works for midi and osc \; #define MODE_NORMALISED 3 // works for midi and osc \; #define MODE_RAW_PLUS_NORMALISED 4 // only works on osc \; #define MODE_TOUCH_PLAY 5 // works on midi and osc - default mode \;, f 86;
#X obj 371 308 bng 19 250 50 0 setmode1 empty 1\ SERIAL\ RAW 25 11 0 12 #ffe3c6 #000000 #000000;
#X obj 371 329 bng 19 250 50 0 setmode2 empty 2\ RAW 25 11 0 12 #feffc6 #000000 #000000;
#X obj 371 350 bng 19 250 50 0 setmode3 empty 3\ NORMALISED 25 11 0 12 #faff00 #000000 #000000;
#X obj 371 372 bng 19 250 50 0 setmode4 empty 4\ RAW\ +\ NORM 25 11 0 12 #faff00 #000000 #000000;
#X obj 371 393 bng 19 250 50 0 setmode5 empty 5\ PLAY 25 11 0 12 #c6feff #000000 #000000;
#X text 1020 36 109 = note base;
#X text 57 784 106 = MPR / B;
#X text 57 802 105 = MPR / C;
#X text 57 820 104 = MPR / D;
#X obj 359 660 tgl 30 0 empty MPRA MPR-A\ STATUS 40 15 0 12 #dfdfdf #000000 #000000 0 1;
#X obj 359 693 tgl 30 0 empty MPRB MPR-B\ STATUS 40 15 0 12 #dfdfdf #000000 #000000 0 1;
#X obj 359 726 tgl 30 0 empty MPRC MPR-C\ STATUS 40 15 0 12 #dfdfdf #000000 #000000 0 1;
#X obj 359 759 tgl 30 0 empty MPRD MPR-D\ STATUS 40 15 0 12 #dfdfdf #000000 #000000 0 1;
#X text 57 766 107 = MPR / A;
#X obj 61 736 s MPRA;
#X obj 131 736 s MPRB;
#X obj 201 736 s MPRC;
#X obj 272 736 s MPRD;
#X obj 349 161 s MPRA;
#X msg 349 136 0;
#X obj 397 161 s MPRB;
#X obj 445 161 s MPRC;
#X obj 495 161 s MPRD;
#X obj 373 470 tgl 18 0 empty MODE0 MODE\ 0 25 12 0 12 #ffe3c6 #000000 #000000 0 1;
#X obj 373 491 tgl 18 0 empty MODE1 MODE\ 1 25 12 0 12 #ffe3c6 #000000 #000000 0 1;
#X obj 373 512 tgl 18 0 empty MODE2 MODE\ 2 25 12 0 12 #feffc6 #000000 #000000 0 1;
#X obj 373 533 tgl 18 0 empty MODE3 MODE\ 3 25 12 0 12 #faff00 #000000 #000000 0 1;
#X obj 373 554 tgl 18 0 empty MODE4 MODE\ 4 25 12 0 12 #faff00 #000000 #000000 0 1;
#X obj 373 576 tgl 18 0 empty MODE5 MODE\ 5 25 12 0 12 #c6feff #000000 #000000 0 1;
#X obj 58 516 list append 1;
#X obj 58 572 s MODE0;
#X obj 77 593 s MODE1;
#X obj 95 614 s MODE2;
#X msg 177 492 0;
#X obj 114 572 s MODE3;
#X obj 151 614 s MODE5;
#X obj 133 593 s MODE4;
#X obj 58 539 route 0 1 2 3 4 5;
#X text 950 54 108 = scale major / minor 103 FFI;
#X text 946 108 102 FFI;
#X obj 890 674 bng 19 250 50 0 empty empty 3 0 -10 0 12 #feffc6 #000000 #000000;
#X obj 850 674 bng 19 250 50 0 empty empty 2 0 -10 0 12 #feffc6 #000000 #000000;
#X obj 810 674 bng 19 250 50 0 empty empty 1 0 -10 0 12 #feffc6 #000000 #000000;
#X obj 770 674 bng 19 250 50 0 empty empty 0 0 -10 0 12 #feffc6 #000000 #000000;
#X msg 770 697 0;
#X floatatom 770 719 5 0 0 0 - - - 0;
#X floatatom 849 720 5 0 0 0 - - - 0;
#X obj 770 741 ctlout;
#X msg 810 697 1;
#X msg 850 697 2;
#X msg 890 697 3;
#X obj 770 616 r setFFI0;
#X obj 810 637 r setFFI1;
#X obj 850 614 r setFFI2;
#X obj 890 635 r setFFI3;
#X msg 742 693 112;
#X obj 891 834 bng 19 250 50 0 empty empty 3 0 -10 0 12 #feffc6 #000000 #000000;
#X obj 851 834 bng 19 250 50 0 empty empty 2 0 -10 0 12 #feffc6 #000000 #000000;
#X obj 811 834 bng 19 250 50 0 empty empty 1 0 -10 0 12 #feffc6 #000000 #000000;
#X obj 771 834 bng 19 250 50 0 empty empty 0 0 -10 0 12 #feffc6 #000000 #000000;
#X msg 771 857 0;
#X floatatom 771 879 5 0 0 0 - - - 0;
#X floatatom 850 880 5 0 0 0 - - - 0;
#X obj 771 901 ctlout;
#X msg 811 857 1;
#X msg 851 857 2;
#X msg 891 857 3;
#X obj 771 775 r setSFI0;
#X obj 851 773 r setSFI2;
#X obj 811 796 r setSFI1;
#X obj 891 794 r setSFI3;
#X msg 743 853 113;
#X obj 659 622 bng 19 250 50 0 setFFI0 empty FFI_6 25 11 0 12 #ffe3c6 #000000 #000000;
#X obj 659 643 bng 19 250 50 0 setFFI1 empty FFI_10 25 11 0 12 #ffe3c6 #000000 #000000;
#X obj 659 664 bng 19 250 50 0 setFFI2 empty FFI_18 25 11 0 12 #ffe3c6 #000000 #000000;
#X obj 659 685 bng 19 250 50 0 setFFI3 empty FFI_34 25 11 0 12 #ffe3c6 #000000 #000000;
#X obj 660 800 bng 19 250 50 0 setSFI1 empty SFI_6 25 11 0 12 #feffc6 #000000 #000000;
#X obj 660 821 bng 19 250 50 0 setSFI2 empty FFI_10 25 11 0 12 #feffc6 #000000 #000000;
#X obj 660 842 bng 19 250 50 0 setSFI3 empty FFI_18 25 11 0 12 #feffc6 #000000 #000000;
#X obj 660 778 bng 19 250 50 0 setSFI0 empty SFI_4 25 11 0 12 #feffc6 #000000 #000000;
#X obj 893 474 bng 19 250 50 0 empty empty 4 0 -10 0 12 #feffc6 #000000 #000000;
#X obj 853 474 bng 19 250 50 0 empty empty 2 0 -10 0 12 #feffc6 #000000 #000000;
#X obj 813 474 bng 19 250 50 0 empty empty 1 0 -10 0 12 #feffc6 #000000 #000000;
#X obj 773 474 bng 19 250 50 0 empty empty 0 0 -10 0 12 #feffc6 #000000 #000000;
#X msg 773 497 0;
#X floatatom 773 519 5 0 0 0 - - - 0;
#X floatatom 851 523 5 0 0 0 - - - 0;
#X obj 773 541 ctlout;
#X msg 813 497 1;
#X msg 853 497 2;
#X obj 659 435 bng 19 250 50 0 setCDT1 empty CDT\ 1 25 11 0 12 #feffc6 #000000 #000000;
#X obj 659 456 bng 19 250 50 0 setCDT2 empty CDT\ 2 25 11 0 12 #feffc6 #000000 #000000;
#X obj 659 413 bng 19 250 50 0 setCDT0 empty CDT\ 0.5 25 11 0 12 #feffc6 #000000 #000000;
#X obj 927 473 bng 19 250 50 0 empty empty 8 0 -10 0 12 #feffc6 #000000 #000000;
#X msg 893 497 4;
#X msg 927 496 8;
#X obj 773 417 r setCDT0;
#X obj 813 438 r setCDT1;
#X obj 893 436 r setCDT3;
#X obj 959 436 r setCDT5;
#X obj 959 474 bng 19 250 50 0 empty empty 16 0 -10 0 12 #feffc6 #000000 #000000;
#X msg 959 497 16;
#X obj 991 474 bng 19 250 50 0 empty empty 32 0 -10 0 12 #feffc6 #000000 #000000;
#X msg 991 497 32;
#X obj 853 415 r setCDT2;
#X obj 659 499 bng 19 250 50 0 setCDT4 empty CDT\ 8 25 11 0 12 #feffc6 #000000 #000000;
#X obj 659 520 bng 19 250 50 0 setCDT5 empty CDT\ 16 25 11 0 12 #feffc6 #000000 #000000;
#X obj 659 477 bng 19 250 50 0 setCDT3 empty CDT\ 4 25 11 0 12 #feffc6 #000000 #000000;
#X obj 997 414 r setCDT6;
#X obj 659 542 bng 19 250 50 0 setCDT6 empty CDT\ 32 25 11 0 12 #feffc6 #000000 #000000;
#X obj 927 414 r setCDT4;
#X obj 898 990 bng 19 250 50 0 empty empty 4 0 -10 0 12 #feffc6 #000000 #000000;
#X obj 858 990 bng 19 250 50 0 empty empty 2 0 -10 0 12 #feffc6 #000000 #000000;
#X obj 818 990 bng 19 250 50 0 empty empty 1 0 -10 0 12 #feffc6 #000000 #000000;
#X obj 778 990 bng 19 250 50 0 empty empty 0 0 -10 0 12 #feffc6 #000000 #000000;
#X msg 778 1013 0;
#X floatatom 778 1035 5 0 0 0 - - - 0;
#X floatatom 856 1039 5 0 0 0 - - - 0;
#X obj 778 1057 ctlout;
#X msg 818 1013 1;
#X msg 858 1013 2;
#X obj 664 951 bng 19 250 50 0 setINT1 empty INT\ 1 25 11 0 12 #c6ffc7 #000000 #000000;
#X obj 664 972 bng 19 250 50 0 setINT2 empty INT\ 2 25 11 0 12 #c6ffc7 #000000 #000000;
#X obj 664 929 bng 19 250 50 0 setINT0 empty INT\ 0.5 25 11 0 12 #c6ffc7 #000000 #000000;
#X obj 932 989 bng 19 250 50 0 empty empty 8 0 -10 0 12 #feffc6 #000000 #000000;
#X msg 898 1013 4;
#X msg 932 1012 8;
#X obj 964 990 bng 19 250 50 0 empty empty 16 0 -10 0 12 #feffc6 #000000 #000000;
#X msg 964 1013 16;
#X obj 996 990 bng 19 250 50 0 empty empty 32 0 -10 0 12 #feffc6 #000000 #000000;
#X obj 1031 990 bng 19 250 50 0 empty empty 64 0 -10 0 12 #feffc6 #000000 #000000;
#X obj 1065 989 bng 19 250 50 0 empty empty 127 0 -10 0 12 #feffc6 #000000 #000000;
#X msg 996 1013 32;
#X msg 1031 1013 64;
#X msg 1065 1012 127;
#X msg 750 1009 114;
#X obj 664 1015 bng 19 250 50 0 setINT4 empty INT\ 8 25 11 0 12 #c6ffc7 #000000 #000000;
#X obj 664 1036 bng 19 250 50 0 setINT5 empty INT\ 16 25 11 0 12 #c6ffc7 #000000 #000000;
#X obj 664 993 bng 19 250 50 0 setINT3 empty INT\ 4 25 11 0 12 #c6ffc7 #000000 #000000;
#X obj 664 1080 bng 19 250 50 0 setINT7 empty INT\ 64 25 11 0 12 #c6ffc7 #000000 #000000;
#X obj 664 1101 bng 19 250 50 0 setINT8 empty INT\ 128 25 11 0 12 #c6ffc7 #000000 #000000;
#X obj 664 1058 bng 19 250 50 0 setINT6 empty INT\ 32 25 11 0 12 #c6ffc7 #000000 #000000;
#X obj 778 933 r setINT0;
#X obj 818 954 r setINT1;
#X obj 858 931 r setINT2;
#X obj 898 952 r setINT3;
#X obj 932 930 r setINT4;
#X obj 964 952 r setINT5;
#X obj 1002 930 r setINT6;
#X obj 1042 951 r setINT7;
#X obj 1076 929 r setINT8;
#X msg 745 493 115;
#X obj 272 708 ctlin 104;
#X obj 201 708 ctlin 105;
#X obj 131 707 ctlin 106;
#X obj 61 707 ctlin 107;
#X obj 58 489 ctlin 110;
#X obj 356 65 bng 19 250 50 0 empty empty empty 0 -10 0 12 #fcfcfc #000000 #000000;
#X obj 92 65 bng 19 250 50 0 empty empty empty 0 -10 0 12 #fcfcfc #000000 #000000;
#X obj 147 64 bng 19 250 50 0 empty empty empty 0 -10 0 12 #fcfcfc #000000 #000000;
#X obj 193 65 bng 19 250 50 0 empty empty empty 0 -10 0 12 #fcfcfc #000000 #000000;
#X obj 245 63 bng 19 250 50 0 empty empty empty 0 -10 0 12 #fcfcfc #000000 #000000;
#X obj 298 65 bng 19 250 50 0 empty empty empty 0 -10 0 12 #fcfcfc #000000 #000000;
#X obj 39 205 ctlout;
#X connect 0 0 5 0;
#X connect 1 0 5 0;
#X connect 2 0 5 0;
#X connect 3 0 5 0;
#X connect 4 0 5 0;
#X connect 5 0 207 0;
#X connect 6 0 5 0;
#X connect 7 0 207 1;
#X connect 8 0 207 2;
#X connect 9 0 63 0;
#X connect 9 0 201 0;
#X connect 10 0 204 0;
#X connect 11 0 205 0;
#X connect 12 0 206 0;
#X connect 13 0 202 0;
#X connect 14 0 203 0;
#X connect 15 0 7 0;
#X connect 15 0 8 0;
#X connect 18 0 28 0;
#X connect 18 0 31 0;
#X connect 19 0 28 0;
#X connect 19 0 30 0;
#X connect 20 0 28 0;
#X connect 20 0 29 0;
#X connect 21 0 28 0;
#X connect 21 0 23 0;
#X connect 22 0 28 0;
#X connect 22 0 32 0;
#X connect 23 0 24 0;
#X connect 24 0 27 0;
#X connect 25 0 28 0;
#X connect 25 0 33 0;
#X connect 26 0 27 2;
#X connect 28 0 27 1;
#X connect 29 0 24 0;
#X connect 30 0 24 0;
#X connect 31 0 24 0;
#X connect 32 0 24 0;
#X connect 33 0 24 0;
#X connect 36 0 21 0;
#X connect 36 0 77 0;
#X connect 37 0 20 0;
#X connect 37 0 77 0;
#X connect 38 0 19 0;
#X connect 38 0 77 0;
#X connect 39 0 18 0;
#X connect 39 0 77 0;
#X connect 40 0 22 0;
#X connect 40 0 77 0;
#X connect 41 0 25 0;
#X connect 41 0 77 0;
#X connect 63 0 62 0;
#X connect 63 0 64 0;
#X connect 63 0 65 0;
#X connect 63 0 66 0;
#X connect 73 0 81 0;
#X connect 77 0 74 0;
#X connect 77 0 75 0;
#X connect 77 0 76 0;
#X connect 77 0 78 0;
#X connect 77 0 79 0;
#X connect 77 0 80 0;
#X connect 81 0 74 0;
#X connect 81 1 75 0;
#X connect 81 2 76 0;
#X connect 81 3 78 0;
#X connect 81 4 80 0;
#X connect 81 5 79 0;
#X connect 84 0 99 0;
#X connect 84 0 94 0;
#X connect 85 0 99 0;
#X connect 85 0 93 0;
#X connect 86 0 99 0;
#X connect 86 0 92 0;
#X connect 87 0 99 0;
#X connect 87 0 88 0;
#X connect 88 0 89 0;
#X connect 89 0 91 0;
#X connect 90 0 91 2;
#X connect 92 0 89 0;
#X connect 93 0 89 0;
#X connect 94 0 89 0;
#X connect 95 0 87 0;
#X connect 96 0 86 0;
#X connect 97 0 85 0;
#X connect 98 0 84 0;
#X connect 99 0 91 1;
#X connect 100 0 115 0;
#X connect 100 0 110 0;
#X connect 101 0 115 0;
#X connect 101 0 109 0;
#X connect 102 0 115 0;
#X connect 102 0 108 0;
#X connect 103 0 115 0;
#X connect 103 0 104 0;
#X connect 104 0 105 0;
#X connect 105 0 107 0;
#X connect 106 0 107 2;
#X connect 108 0 105 0;
#X connect 109 0 105 0;
#X connect 110 0 105 0;
#X connect 111 0 103 0;
#X connect 112 0 101 0;
#X connect 113 0 102 0;
#X connect 114 0 100 0;
#X connect 115 0 107 1;
#X connect 124 0 195 0;
#X connect 124 0 138 0;
#X connect 125 0 195 0;
#X connect 125 0 133 0;
#X connect 126 0 195 0;
#X connect 126 0 132 0;
#X connect 127 0 195 0;
#X connect 127 0 128 0;
#X connect 128 0 129 0;
#X connect 129 0 131 0;
#X connect 130 0 131 2;
#X connect 132 0 129 0;
#X connect 133 0 129 0;
#X connect 137 0 139 0;
#X connect 137 0 195 0;
#X connect 138 0 129 0;
#X connect 139 0 129 0;
#X connect 140 0 127 0;
#X connect 141 0 126 0;
#X connect 142 0 124 0;
#X connect 143 0 144 0;
#X connect 144 0 145 0;
#X connect 144 0 195 0;
#X connect 145 0 129 0;
#X connect 146 0 147 0;
#X connect 146 0 195 0;
#X connect 147 0 129 0;
#X connect 148 0 125 0;
#X connect 152 0 146 0;
#X connect 154 0 137 0;
#X connect 155 0 179 0;
#X connect 155 0 169 0;
#X connect 156 0 179 0;
#X connect 156 0 164 0;
#X connect 157 0 179 0;
#X connect 157 0 163 0;
#X connect 158 0 179 0;
#X connect 158 0 159 0;
#X connect 159 0 160 0;
#X connect 160 0 162 0;
#X connect 161 0 162 2;
#X connect 163 0 160 0;
#X connect 164 0 160 0;
#X connect 168 0 170 0;
#X connect 168 0 179 0;
#X connect 169 0 160 0;
#X connect 170 0 160 0;
#X connect 171 0 172 0;
#X connect 171 0 179 0;
#X connect 172 0 160 0;
#X connect 173 0 176 0;
#X connect 173 0 179 0;
#X connect 174 0 177 0;
#X connect 174 0 179 0;
#X connect 175 0 178 0;
#X connect 175 0 179 0;
#X connect 176 0 160 0;
#X connect 177 0 160 0;
#X connect 178 0 160 0;
#X connect 179 0 162 1;
#X connect 186 0 158 0;
#X connect 187 0 157 0;
#X connect 188 0 156 0;
#X connect 189 0 155 0;
#X connect 190 0 168 0;
#X connect 191 0 171 0;
#X connect 192 0 173 0;
#X connect 193 0 174 0;
#X connect 194 0 175 0;
#X connect 195 0 131 1;
#X connect 196 0 61 0;
#X connect 197 0 60 0;
#X connect 198 0 59 0;
#X connect 199 0 58 0;
#X connect 200 0 73 0;
#X connect 201 0 7 0;
#X connect 201 0 6 0;
#X connect 202 0 7 0;
#X connect 202 0 0 0;
#X connect 203 0 7 0;
#X connect 203 0 1 0;
#X connect 204 0 7 0;
#X connect 204 0 2 0;
#X connect 205 0 7 0;
#X connect 205 0 3 0;
#X connect 206 0 7 0;
#X connect 206 0 4 0;
#X restore 1106 87 pd calibrate;
#X floatatom 1042 387 5 0 0 0 value midictlValue - 0;
#X floatatom 1042 366 5 0 0 0 ctl$ midictlNum - 0;
#X floatatom 1042 408 5 0 0 0 chan midictlChan - 0;
#X obj 836 426 tgl 19 0 midiON empty midiON 25 12 0 12 #00faff #000000 #000000 0 1;
#X floatatom 1042 452 5 0 0 0 note\ vel midiNoteVelocity - 0;
#X floatatom 1042 431 5 0 0 0 note\ chan midiNoteChan - 0;
#X floatatom 1042 473 5 0 0 0 note\  midiNote - 0;
#X obj 690 63 cnv 19 400 150 empty empty empty 20 12 0 12 #ffc7c6 #404040 0;
#X obj 690 43 cnv 30 400 20 empty empty empty 20 12 0 16 #ff0400 #404040 0;
#X obj 955 73 bng 19 250 50 0 setmode0 empty 0\ SERIAL\ DEBUG 25 11 0 12 #ffe3c6 #000000 #000000;
#X text 953 45 SET MODE;
#X obj 955 94 bng 19 250 50 0 setmode1 empty 1\ SERIAL\ RAW 25 11 0 12 #ffe3c6 #000000 #000000;
#X obj 955 115 bng 19 250 50 0 setmode2 empty 2\ RAW 25 11 0 12 #feffc6 #000000 #000000;
#X obj 955 136 bng 19 250 50 0 setmode3 empty 3\ NORMALISED 25 11 0 12 #faff00 #000000 #000000;
#X obj 955 158 bng 19 250 50 0 setmode4 empty 4\ RAW\ +\ NORM 25 11 0 12 #faff00 #000000 #000000;
#X obj 955 179 bng 19 250 50 0 setmode5 empty 5\ PLAY 25 11 0 12 #c6feff #000000 #000000;
#X obj 704 144 bng 30 250 50 0 behi empty UNFOLDED 40 15 0 12 #faff00 #000000 #000000;
#X obj 704 110 bng 30 250 50 0 belo empty FOLDED 40 15 0 12 #feffc6 #000000 #000000;
#X obj 704 76 bng 30 250 50 0 calibrate empty CALIBRATE 40 15 0 12 #ff0400 #000000 #000000;
#X floatatom 712 455 4 0 0 1 midi\ channel synth-channel - 12;
#X obj 827 78 tgl 20 0 startGraph MPRA MPR-A\ STATUS 25 15 0 12 #dfdfdf #000000 #000000 0 1;
#X obj 827 102 tgl 20 0 startGraph MPRB MPR-B\ STATUS 25 15 0 12 #dfdfdf #000000 #000000 0 1;
#X obj 827 126 tgl 20 0 startGraph MPRC MPR-C\ STATUS 25 15 0 12 #dfdfdf #000000 #000000 0 1;
#X obj 827 150 tgl 20 0 startGraph MPRD MPR-D\ STATUS 25 15 0 12 #dfdfdf #000000 #000000 0 1;
#X obj 1106 109 oi/samples;
#X obj 703 257 tgl 20 0 dspON empty DSP\ on/off 25 12 0 12 #faff00 #000000 #000000 0 1;
#X obj 847 258 bng 20 250 50 0 loadaudio empty load\ audio 25 11 0 12 #faff00 #000000 #535512;
#X obj 847 283 tgl 20 0 invert empty invert 25 12 0 12 #ffffff #000000 #000000 0 1;
#X obj 959 258 bng 20 250 50 0 startaudio empty start\ audio 25 12 0 12 #faff00 #000000 #000000;
#X obj 959 283 bng 20 250 50 0 audiostop empty stop\ audio 25 12 0 12 #ffc7c6 #000000 #000000;
#X floatatom 53 223 5 0 0 0 - - - 0;
#X obj 53 199 oi/volume;
#X obj 691 582 cnv 19 400 30 empty empty empty 20 12 0 12 #c6ffc7 #404040 0;
#X obj 691 560 cnv 30 400 20 empty empty empty 20 12 0 16 #00ff04 #404040 0;
#X text 699 562 MIXES - set up mixes in pd setmix;
#X obj 700 588 bng 19 250 50 0 setmix1 empty 1 25 12 0 12 #00ff04 #000000 #000000;
#X obj 784 588 bng 19 250 50 0 setmix3 empty 3 25 12 0 12 #00ff04 #000000 #000000;
#X obj 741 588 bng 19 250 50 0 setmix2 empty 2 25 12 0 12 #00ff04 #000000 #000000;
#X obj 827 588 bng 19 250 50 0 setmix4 empty 4 25 12 0 12 #00ff04 #000000 #000000;
#X obj 871 588 bng 19 250 50 0 setmix5 empty 5 25 12 0 12 #00ff04 #000000 #000000;
#X obj 912 588 bng 19 250 50 0 setmix6 empty 6 25 12 0 12 #00ff04 #000000 #000000;
#N canvas 34 78 1326 701 setmix 0;
#X msg 71 227 1;
#X msg 111 227 2;
#X msg 151 227 3;
#X msg 191 227 4;
#X msg 230 227 5;
#X msg 272 227 6;
#X obj 70 389 s mixnumber;
#X obj 71 55 r setmix1;
#X obj 111 77 r setmix2;
#X obj 151 99 r setmix3;
#X obj 191 121 r setmix2;
#X obj 230 143 r setmix5;
#X obj 272 165 r setmix6;
#X connect 0 0 6 0;
#X connect 1 0 6 0;
#X connect 2 0 6 0;
#X connect 3 0 6 0;
#X connect 4 0 6 0;
#X connect 5 0 6 0;
#X connect 7 0 0 0;
#X connect 8 0 1 0;
#X connect 9 0 2 0;
#X connect 10 0 3 0;
#X connect 11 0 4 0;
#X connect 12 0 5 0;
#X restore 1106 131 pd setmix;
#X f 13;
#X obj 312 298 oi/mix, f 20;
#X connect 0 0 64 0;
#X connect 1 0 33 0;
#X connect 2 0 46 0;
#X connect 11 0 51 0;
#X connect 12 0 34 0;
#X connect 12 0 57 0;
#X connect 13 0 45 0;
#X connect 14 0 49 0;
#X connect 15 0 35 0;
#X connect 15 0 56 0;
#X connect 16 0 47 0;
#X connect 17 0 50 0;
#X connect 18 0 36 0;
#X connect 18 0 59 0;
#X connect 19 0 48 0;
#X connect 20 0 52 0;
#X connect 21 0 37 0;
#X connect 22 0 42 0;
#X connect 23 0 53 0;
#X connect 24 0 38 0;
#X connect 25 0 41 0;
#X connect 26 0 54 0;
#X connect 27 0 39 0;
#X connect 28 0 43 0;
#X connect 29 0 55 0;
#X connect 30 0 40 0;
#X connect 31 0 44 0;
#X connect 58 0 57 1;
#X connect 110 0 109 0;
