#N canvas 34 78 1723 847 12;
#X declare -path ./lib/ ../oi/;
#X declare -path ../oi/;
#X text 966 527 midi ports \; preferences > midi \; start your synths first use multiple output devices an;
#X obj 962 252 cnv 19 400 80 empty empty empty 20 12 0 12 #dfdfdf #404040 0;
#X obj 962 232 cnv 30 400 20 empty empty empty 20 12 0 16 #bbbbbb #404040 0;
#X text 972 233 AUDIO SETUP;
#N canvas 33 78 1511 735 audiomixer 0;
#X obj 386 332 *~;
#X obj 386 356 dac~ 2;
#X obj 386 272 r startaudio;
#X obj 492 272 r stopaudio;
#X obj 379 477 *~;
#X obj 379 501 dac~ 2;
#X obj 379 417 r startaudio;
#X obj 485 417 r stopaudio;
#X obj 376 609 *~;
#X obj 376 633 dac~ 2;
#X obj 376 549 r startaudio;
#X obj 482 549 r stopaudio;
#X obj 996 149 *~;
#X obj 996 173 dac~ 2;
#X obj 996 89 r startaudio;
#X obj 1102 89 r stopaudio;
#X obj 370 747 *~;
#X obj 370 771 dac~ 2;
#X obj 370 687 r startaudio;
#X obj 476 687 r stopaudio;
#X obj 992 298 *~;
#X obj 992 322 dac~ 2;
#X obj 992 238 r startaudio;
#X obj 1098 238 r stopaudio;
#X obj 991 440 *~;
#X obj 991 464 dac~ 2;
#X obj 991 380 r startaudio;
#X obj 1097 380 r stopaudio;
#X obj 390 153 *~;
#X obj 390 124 tabplay~ audio1_R;
#X obj 390 177 dac~ 2;
#X obj 390 93 r startaudio;
#X obj 496 93 r stopaudio;
#X obj 386 303 tabplay~ audio2_R;
#X obj 379 448 tabplay~ audio3_R;
#X obj 376 580 tabplay~ audio4_R;
#X obj 370 718 tabplay~ audio5_R;
#X obj 996 120 tabplay~ audio6_R;
#X obj 992 269 tabplay~ audio7_R;
#X obj 991 411 tabplay~ audio8_R;
#X obj 516 125 r vR1;
#X obj 512 304 r vR2;
#X obj 505 449 r vR3;
#X obj 502 581 r vR4;
#X obj 496 719 r vR5;
#X obj 1122 121 r vR6;
#X obj 1118 270 r vR7;
#X obj 1117 412 r vR8;
#X obj 87 336 *~;
#X obj 87 276 r startaudio;
#X obj 193 276 r stopaudio;
#X obj 85 475 *~;
#X obj 85 415 r startaudio;
#X obj 191 415 r stopaudio;
#X obj 83 614 *~;
#X obj 83 554 r startaudio;
#X obj 189 554 r stopaudio;
#X obj 709 146 *~;
#X obj 709 86 r startaudio;
#X obj 815 86 r stopaudio;
#X obj 84 744 *~;
#X obj 84 684 r startaudio;
#X obj 190 684 r stopaudio;
#X obj 706 296 *~;
#X obj 706 236 r startaudio;
#X obj 812 236 r stopaudio;
#X obj 708 442 *~;
#X obj 708 382 r startaudio;
#X obj 814 382 r stopaudio;
#X obj 89 191 *~;
#X obj 90 77 r startaudio;
#X obj 186 77 r stopaudio;
#X obj 212 98 r vL1;
#X obj 89 215 dac~ 1;
#X obj 84 768 dac~ 1;
#X obj 87 360 dac~ 1;
#X obj 709 170 dac~ 1;
#X obj 85 499 dac~ 1;
#X obj 706 320 dac~ 1;
#X obj 83 638 dac~ 1;
#X obj 708 466 dac~ 1;
#X obj 89 142 tabplay~ audio1_L;
#X obj 87 307 tabplay~ audio2_L;
#X obj 85 446 tabplay~ audio3_L;
#X obj 83 585 tabplay~ audio4_L;
#X obj 84 715 tabplay~ audio5_L;
#X obj 709 117 tabplay~ audio6_L;
#X obj 706 267 tabplay~ audio7_L;
#X obj 708 413 tabplay~ audio8_L;
#X obj 224 313 r vL2;
#X obj 211 447 r vL3;
#X obj 209 586 r vL4;
#X obj 834 414 r vL8;
#X obj 832 268 r vL7;
#X obj 835 118 r vL6;
#X obj 210 716 r vL5;
#X obj 203 184 s loop;
#X obj 36 38 r loop;
#X obj 52 148 bng 19 250 50 0 empty empty empty 0 -10 0 12 #fcfcfc #000000 #000000;
#X obj 212 144 vline~;
#X obj 212 121 pack \$1 \$2;
#X obj 279 95 r ramptime;
#X obj 224 360 vline~;
#X obj 224 337 pack \$1 \$2;
#X obj 291 311 r ramptime;
#X obj 212 493 vline~;
#X obj 212 470 pack \$1 \$2;
#X obj 279 444 r ramptime;
#X obj 208 640 vline~;
#X obj 208 617 pack \$1 \$2;
#X obj 275 591 r ramptime;
#X obj 205 765 vline~;
#X obj 205 742 pack \$1 \$2;
#X obj 272 716 r ramptime;
#X obj 833 169 vline~;
#X obj 833 146 pack \$1 \$2;
#X obj 900 120 r ramptime;
#X obj 833 319 vline~;
#X obj 833 296 pack \$1 \$2;
#X obj 900 270 r ramptime;
#X obj 833 465 vline~;
#X obj 833 442 pack \$1 \$2;
#X obj 900 416 r ramptime;
#X obj 512 173 vline~;
#X obj 512 150 pack \$1 \$2;
#X obj 579 124 r ramptime;
#X obj 511 351 vline~;
#X obj 511 328 pack \$1 \$2;
#X obj 578 302 r ramptime;
#X obj 502 499 vline~;
#X obj 502 476 pack \$1 \$2;
#X obj 569 450 r ramptime;
#X obj 500 627 vline~;
#X obj 500 604 pack \$1 \$2;
#X obj 567 578 r ramptime;
#X obj 493 767 vline~;
#X obj 493 744 pack \$1 \$2;
#X obj 560 718 r ramptime;
#X obj 1117 173 vline~;
#X obj 1117 150 pack \$1 \$2;
#X obj 1184 124 r ramptime;
#X obj 1117 321 vline~;
#X obj 1117 298 pack \$1 \$2;
#X obj 1184 272 r ramptime;
#X obj 1115 466 vline~;
#X obj 1115 443 pack \$1 \$2;
#X obj 1182 417 r ramptime;
#X obj 990 712 *~;
#X obj 990 736 dac~ 2;
#X obj 990 652 r startaudio;
#X obj 1096 652 r stopaudio;
#X obj 699 717 *~;
#X obj 699 741 dac~ 2;
#X obj 699 657 r startaudio;
#X obj 805 657 r stopaudio;
#X obj 702 524 r startaudio;
#X obj 808 524 r stopaudio;
#X obj 990 583 *~;
#X obj 990 523 r startaudio;
#X obj 1096 523 r stopaudio;
#X obj 702 608 dac~ 1;
#X obj 990 607 dac~ 1;
#X obj 827 610 vline~;
#X obj 827 587 pack \$1 \$2;
#X obj 894 561 r ramptime;
#X obj 1115 606 vline~;
#X obj 1115 583 pack \$1 \$2;
#X obj 1182 557 r ramptime;
#X obj 1124 730 vline~;
#X obj 1124 707 pack \$1 \$2;
#X obj 1191 681 r ramptime;
#X obj 833 743 vline~;
#X obj 833 720 pack \$1 \$2;
#X obj 900 694 r ramptime;
#X obj 828 556 r vL9;
#X obj 702 555 tabplay~ audio9_L;
#X obj 990 554 tabplay~ audio9_L;
#X obj 990 683 tabplay~ audio10_R;
#X obj 702 580 *~;
#X obj 696 785 r startaudio;
#X obj 802 785 r stopaudio;
#X obj 696 869 dac~ 1;
#X obj 828 870 vline~;
#X obj 828 847 pack \$1 \$2;
#X obj 895 816 r ramptime;
#X obj 696 841 *~;
#X obj 696 816 tabplay~ audio11_L;
#X obj 829 816 r vL11;
#X obj 986 843 *~;
#X obj 986 867 dac~ 2;
#X obj 986 783 r startaudio;
#X obj 1092 783 r stopaudio;
#X obj 1120 869 vline~;
#X obj 1120 846 pack \$1 \$2;
#X obj 1187 820 r ramptime;
#X obj 672 45 r loop;
#X obj 986 814 tabplay~ audio11_R;
#X obj 1123 815 r vR11;
#X obj 699 688 tabplay~ audio10_L;
#X obj 835 689 r vL10;
#X obj 953 36 r loop;
#X obj 369 40 r loop;
#X obj 1126 684 r vR10;
#X obj 1116 555 r vR9;
#X text 1331 48 DSP on/off;
#X msg 1345 70 \; pd dsp \$1;
#X obj 1308 48 tgl 19 0 empty dspON empty 17 7 0 10 #faff00 #000000 #000000 0 1;
#X obj 1308 122 s ramptime;
#X obj 1308 73 bng 19 250 50 0 empty empty empty 0 -10 0 12 #fcfcfc #000000 #000000;
#X msg 1308 98 50;
#X obj 1305 214 r audiostop;
#X msg 1305 239 stop;
#X obj 1305 263 s stopaudio;
#X obj 1305 316 loadbang;
#X obj 1379 402 s mixnumber;
#X msg 1379 364 1;
#X msg 1305 362 0;
#X obj 1305 402 s invert;
#X connect 0 0 1 0;
#X connect 2 0 33 0;
#X connect 3 0 33 0;
#X connect 4 0 5 0;
#X connect 6 0 34 0;
#X connect 7 0 34 0;
#X connect 8 0 9 0;
#X connect 10 0 35 0;
#X connect 11 0 35 0;
#X connect 12 0 13 0;
#X connect 14 0 37 0;
#X connect 15 0 37 0;
#X connect 16 0 17 0;
#X connect 18 0 36 0;
#X connect 19 0 36 0;
#X connect 20 0 21 0;
#X connect 22 0 38 0;
#X connect 23 0 38 0;
#X connect 24 0 25 0;
#X connect 26 0 39 0;
#X connect 27 0 39 0;
#X connect 28 0 30 0;
#X connect 29 0 28 0;
#X connect 31 0 29 0;
#X connect 32 0 29 0;
#X connect 33 0 0 0;
#X connect 34 0 4 0;
#X connect 35 0 8 0;
#X connect 36 0 16 0;
#X connect 37 0 12 0;
#X connect 38 0 20 0;
#X connect 39 0 24 0;
#X connect 40 0 124 0;
#X connect 41 0 127 0;
#X connect 42 0 130 0;
#X connect 43 0 133 0;
#X connect 44 0 136 0;
#X connect 45 0 139 0;
#X connect 46 0 142 0;
#X connect 47 0 145 0;
#X connect 48 0 75 0;
#X connect 49 0 82 0;
#X connect 50 0 82 0;
#X connect 51 0 77 0;
#X connect 52 0 83 0;
#X connect 53 0 83 0;
#X connect 54 0 79 0;
#X connect 55 0 84 0;
#X connect 56 0 84 0;
#X connect 57 0 76 0;
#X connect 58 0 86 0;
#X connect 59 0 86 0;
#X connect 60 0 74 0;
#X connect 61 0 85 0;
#X connect 62 0 85 0;
#X connect 63 0 78 0;
#X connect 64 0 87 0;
#X connect 65 0 87 0;
#X connect 66 0 80 0;
#X connect 67 0 88 0;
#X connect 68 0 88 0;
#X connect 69 0 73 0;
#X connect 70 0 81 0;
#X connect 71 0 81 0;
#X connect 72 0 100 0;
#X connect 81 0 69 0;
#X connect 81 1 96 0;
#X connect 82 0 48 0;
#X connect 83 0 51 0;
#X connect 84 0 54 0;
#X connect 85 0 60 0;
#X connect 86 0 57 0;
#X connect 87 0 63 0;
#X connect 88 0 66 0;
#X connect 89 0 103 0;
#X connect 90 0 106 0;
#X connect 91 0 109 0;
#X connect 92 0 121 0;
#X connect 93 0 118 0;
#X connect 94 0 115 0;
#X connect 95 0 112 0;
#X connect 97 0 81 0;
#X connect 97 0 82 0;
#X connect 97 0 83 0;
#X connect 97 0 98 0;
#X connect 97 0 84 0;
#X connect 97 0 85 0;
#X connect 99 0 69 1;
#X connect 100 0 99 0;
#X connect 101 0 100 1;
#X connect 102 0 48 1;
#X connect 103 0 102 0;
#X connect 104 0 103 1;
#X connect 105 0 51 1;
#X connect 106 0 105 0;
#X connect 107 0 106 1;
#X connect 108 0 54 1;
#X connect 109 0 108 0;
#X connect 110 0 109 1;
#X connect 111 0 60 1;
#X connect 112 0 111 0;
#X connect 113 0 112 1;
#X connect 114 0 57 1;
#X connect 115 0 114 0;
#X connect 116 0 115 1;
#X connect 117 0 63 1;
#X connect 118 0 117 0;
#X connect 119 0 118 1;
#X connect 120 0 66 1;
#X connect 121 0 120 0;
#X connect 122 0 121 1;
#X connect 123 0 28 1;
#X connect 124 0 123 0;
#X connect 125 0 124 1;
#X connect 126 0 0 1;
#X connect 127 0 126 0;
#X connect 128 0 127 1;
#X connect 129 0 4 1;
#X connect 130 0 129 0;
#X connect 131 0 130 1;
#X connect 132 0 8 1;
#X connect 133 0 132 0;
#X connect 134 0 133 1;
#X connect 135 0 16 1;
#X connect 136 0 135 0;
#X connect 137 0 136 1;
#X connect 138 0 12 1;
#X connect 139 0 138 0;
#X connect 140 0 139 1;
#X connect 141 0 20 1;
#X connect 142 0 141 0;
#X connect 143 0 142 1;
#X connect 144 0 24 1;
#X connect 145 0 144 0;
#X connect 146 0 145 1;
#X connect 147 0 148 0;
#X connect 149 0 177 0;
#X connect 150 0 177 0;
#X connect 151 0 152 0;
#X connect 153 0 198 0;
#X connect 154 0 198 0;
#X connect 155 0 175 0;
#X connect 156 0 175 0;
#X connect 157 0 161 0;
#X connect 158 0 176 0;
#X connect 159 0 176 0;
#X connect 162 0 178 1;
#X connect 163 0 162 0;
#X connect 164 0 163 1;
#X connect 165 0 157 1;
#X connect 166 0 165 0;
#X connect 167 0 166 1;
#X connect 168 0 147 1;
#X connect 169 0 168 0;
#X connect 170 0 169 1;
#X connect 171 0 151 1;
#X connect 172 0 171 0;
#X connect 173 0 172 1;
#X connect 174 0 163 0;
#X connect 175 0 178 0;
#X connect 176 0 157 0;
#X connect 177 0 147 0;
#X connect 178 0 160 0;
#X connect 179 0 186 0;
#X connect 180 0 186 0;
#X connect 182 0 185 1;
#X connect 183 0 182 0;
#X connect 184 0 183 1;
#X connect 185 0 181 0;
#X connect 186 0 185 0;
#X connect 187 0 183 0;
#X connect 188 0 189 0;
#X connect 190 0 196 0;
#X connect 191 0 196 0;
#X connect 192 0 188 1;
#X connect 193 0 192 0;
#X connect 194 0 193 1;
#X connect 195 0 186 0;
#X connect 195 0 86 0;
#X connect 195 0 87 0;
#X connect 195 0 88 0;
#X connect 195 0 175 0;
#X connect 195 0 198 0;
#X connect 196 0 188 0;
#X connect 197 0 193 0;
#X connect 198 0 151 0;
#X connect 199 0 172 0;
#X connect 200 0 37 0;
#X connect 200 0 38 0;
#X connect 200 0 39 0;
#X connect 200 0 176 0;
#X connect 200 0 177 0;
#X connect 200 0 196 0;
#X connect 201 0 29 0;
#X connect 201 0 33 0;
#X connect 201 0 34 0;
#X connect 201 0 35 0;
#X connect 201 0 36 0;
#X connect 202 0 169 0;
#X connect 203 0 166 0;
#X connect 206 0 205 0;
#X connect 206 0 208 0;
#X connect 208 0 209 0;
#X connect 209 0 207 0;
#X connect 210 0 211 0;
#X connect 211 0 212 0;
#X connect 213 0 215 0;
#X connect 213 0 216 0;
#X connect 215 0 214 0;
#X connect 216 0 217 0;
#X restore 1266 233 pd audiomixer;
#X obj 963 374 cnv 19 400 150 empty empty empty 20 12 0 12 #dfdfdf #404040 0;
#X obj 963 354 cnv 30 400 20 empty empty empty 20 12 0 16 #bbbbbb #404040 0;
#X obj 1027 446 bng 19 250 50 0 midiport3 empty 3 0 -10 0 12 #00faff #000000 #000000;
#X obj 1005 446 bng 19 250 50 0 midiport2 empty 2 0 -10 0 12 #00faff #000000 #000000;
#X obj 983 446 bng 19 250 50 0 midiport1 empty 1 0 -10 0 12 #00faff #000000 #000000;
#X obj 1050 446 bng 19 250 50 0 midiport4 empty 4 0 -10 0 12 #00faff #000000 #000000;
#X text 980 404 1-4 (1-16 channels per port);
#X text 980 386 SELECT OUTBOUND MIDI PORT;
#N canvas 34 78 1695 1108 midiport 0;
#X obj 72 163 * 16;
#X obj 184 164 s synth-channel;
#X msg 72 136 1;
#X msg 122 136 2;
#X msg 172 136 3;
#X floatatom 121 164 5 0 0 0 - - - 0;
#X msg 221 136 4;
#X obj 72 16 r midiport1;
#X obj 122 40 r midiport2;
#X obj 172 61 r midiport3;
#X obj 222 82 r midiport4;
#X connect 0 0 5 0;
#X connect 2 0 0 0;
#X connect 3 0 0 0;
#X connect 4 0 0 0;
#X connect 5 0 1 0;
#X connect 6 0 0 0;
#X connect 7 0 2 0;
#X connect 8 0 3 0;
#X connect 9 0 4 0;
#X connect 10 0 6 0;
#X restore 1281 354 pd midiport;
#X floatatom 1314 406 5 0 0 0 value midictlValue - 0;
#X floatatom 1314 385 5 0 0 0 ctl$ midictlNum - 0;
#X floatatom 1314 427 5 0 0 0 chan midictlChan - 0;
#X obj 1108 445 tgl 19 0 midiON empty midiON 25 12 0 12 #00faff #000000 #000000 0 1;
#X floatatom 1314 471 5 0 0 0 note\ vel midiNoteVelocity - 0;
#X floatatom 1314 450 5 0 0 0 note\ chan midiNoteChan - 0;
#X floatatom 1314 492 5 0 0 0 note\  midiNote - 0;
#X obj 962 62 cnv 19 400 160 empty empty empty 20 12 0 12 #dfdfdf #404040 0;
#X obj 962 42 cnv 30 400 20 empty empty empty 20 12 0 16 #bbbbbb #404040 0;
#X obj 1227 72 bng 19 250 50 0 setmode0 empty 0\ SERIAL\ DEBUG 25 11 0 12 #ffe3c6 #000000 #000000;
#X text 1225 44 SET MODE;
#X obj 1227 93 bng 19 250 50 0 setmode1 empty 1\ SERIAL\ RAW 25 11 0 12 #ffe3c6 #000000 #000000;
#X obj 1227 114 bng 19 250 50 0 setmode2 empty 2\ RAW 25 11 0 12 #feffc6 #000000 #000000;
#X obj 1227 135 bng 19 250 50 0 setmode3 empty 3\ NORMALISED 25 11 0 12 #faff00 #000000 #000000;
#X obj 1227 157 bng 19 250 50 0 setmode4 empty 4\ RAW\ +\ NORM 25 11 0 12 #faff00 #000000 #000000;
#X obj 1227 178 bng 19 250 50 0 setmode5 empty 5\ PLAY 25 11 0 12 #c6feff #000000 #000000;
#X obj 976 143 bng 30 250 50 0 behi empty UNFOLDED 40 15 0 12 #faff00 #000000 #000000;
#X obj 976 109 bng 30 250 50 0 belo empty FOLDED 40 15 0 12 #feffc6 #000000 #000000;
#X obj 976 75 bng 30 250 50 0 calibrate empty CALIBRATE 40 15 0 12 #ff0400 #000000 #000000;
#X floatatom 984 474 4 0 0 1 midi\ channel synth-channel - 12;
#X obj 1099 77 tgl 20 0 startGraph MPRA MPR-A\ STATUS 25 15 0 12 #dfdfdf #000000 #000000 0 1;
#X obj 1099 101 tgl 20 0 startGraph MPRB MPR-B\ STATUS 25 15 0 12 #dfdfdf #000000 #000000 0 1;
#X obj 1099 125 tgl 20 0 startGraph MPRC MPR-C\ STATUS 25 15 0 12 #dfdfdf #000000 #000000 0 1;
#X obj 1099 149 tgl 20 0 startGraph MPRD MPR-D\ STATUS 25 15 0 12 #dfdfdf #000000 #000000 0 1;
#X obj 975 266 tgl 20 0 dspON empty DSP\ on/off 25 12 0 12 #faff00 #000000 #000000 0 1;
#X obj 1119 267 bng 20 250 50 0 loadaudio empty load\ audio 25 11 0 12 #faff00 #000000 #535512;
#X obj 1119 292 tgl 20 0 invert empty invert 25 12 0 12 #ffffff #000000 #000000 0 1;
#X obj 1231 267 bng 20 250 50 0 startaudio empty start\ audio 25 12 0 12 #faff00 #000000 #000000;
#X obj 1231 292 bng 20 250 50 0 audiostop empty stop\ audio 25 12 0 12 #ffc7c6 #000000 #000000;
#X obj 963 601 cnv 19 400 30 empty empty empty 20 12 0 12 #dfdfdf #404040 0;
#X obj 963 579 cnv 30 400 20 empty empty empty 20 12 0 16 #bbbbbb #404040 0;
#X text 971 581 MIXES - set up mixes in pd setmix;
#X obj 972 607 bng 19 250 50 0 setmix1 empty 1 25 12 0 12 #00ff04 #000000 #000000;
#X obj 1056 607 bng 19 250 50 0 setmix3 empty 3 25 12 0 12 #00ff04 #000000 #000000;
#X obj 1013 607 bng 19 250 50 0 setmix2 empty 2 25 12 0 12 #00ff04 #000000 #000000;
#X obj 1099 607 bng 19 250 50 0 setmix4 empty 4 25 12 0 12 #00ff04 #000000 #000000;
#X obj 1143 607 bng 19 250 50 0 setmix5 empty 5 25 12 0 12 #00ff04 #000000 #000000;
#X obj 1184 607 bng 19 250 50 0 setmix6 empty 6 25 12 0 12 #00ff04 #000000 #000000;
#X obj 1227 200 bng 19 250 50 0 setmode6 empty 6\ SOFT\ VELOCITY 25 11 0 12 #00faff #000000 #000000;
#N canvas 34 78 1326 701 setmix 0;
#X msg 71 227 1;
#X msg 111 227 2;
#X msg 151 227 3;
#X msg 191 227 4;
#X msg 230 227 5;
#X msg 272 227 6;
#X obj 70 389 s mixnumber;
#X obj 71 55 r setmix1;
#X obj 111 77 r setmix2;
#X obj 151 99 r setmix3;
#X obj 191 121 r setmix2;
#X obj 230 143 r setmix5;
#X obj 272 165 r setmix6;
#X connect 0 0 6 0;
#X connect 1 0 6 0;
#X connect 2 0 6 0;
#X connect 3 0 6 0;
#X connect 4 0 6 0;
#X connect 5 0 6 0;
#X connect 7 0 0 0;
#X connect 8 0 1 0;
#X connect 9 0 2 0;
#X connect 10 0 3 0;
#X connect 11 0 4 0;
#X connect 12 0 5 0;
#X restore 1268 580 pd setmix;
#X f 13;
#N canvas 34 78 500 372 graph 0;
#X obj 80 29 oi/e.graph 0;
#X obj 76 93 oi/e.graph 1;
#X obj 76 157 oi/e.graph 2;
#X obj 76 221 oi/e.graph 3;
#X obj 76 281 oi/e.graph 4;
#X obj 76 344 oi/e.graph 5;
#X obj 76 409 oi/e.graph 6;
#X obj 75 473 oi/e.graph 7;
#X obj 77 2 tgl 19 0 empty empty empty 0 -10 0 12 #fcfcfc #000000 #000000 0 1;
#X connect 8 0 7 0;
#X connect 8 0 6 0;
#X connect 8 0 5 0;
#X connect 8 0 4 0;
#X connect 8 0 3 0;
#X connect 8 0 2 0;
#X connect 8 0 1 0;
#X restore 1380 111 pd graph;
#X obj 1380 89 lib/samples;
#X obj 258 99 l 1 \$0-oi;
#X obj 441 99 l 2 \$0-oi;
#X obj 625 99 l 3 \$0-oi;
#X obj 626 371 l 7 \$0-oi;
#X obj 442 371 l 6 \$0-oi;
#X obj 258 371 l 5 \$0-oi;
#X obj 74 371 l 4 \$0-oi;
#X obj 74 100 l 0 \$0-oi;
#X obj 331 649 mix, f 20;
#X obj 160 283 volume;
#X obj 344 283 volume;
#X obj 527 283 volume;
#X obj 712 283 volume;
#X obj 712 555 volume;
#X obj 528 555 volume;
#X obj 344 555 volume;
#X obj 160 555 volume;
#N canvas 34 78 1723 847 oribotic.instrument.midi 1;
#X obj 88 56 r calibrate;
#X msg 88 79 calibrate;
#X obj 179 56 r belo;
#X msg 179 79 set belo;
#X obj 251 56 r behi;
#X msg 251 79 set behi;
#X obj 88 164 s \$0-oi;
#X msg 326 98 open /dev/tty.usbmodem2101;
#X msg 328 72 close;
#X obj 88 137 oi.m.instrument 8;
#X text 81 497 106 = MPR / B;
#X text 81 515 105 = MPR / C;
#X text 81 533 104 = MPR / D;
#X text 81 479 107 = MPR / A;
#X obj 85 449 s MPRA;
#X obj 155 449 s MPRB;
#X obj 225 449 s MPRC;
#X obj 296 449 s MPRD;
#X obj 296 421 ctlin 104;
#X obj 225 421 ctlin 105;
#X obj 155 420 ctlin 106;
#X obj 85 420 ctlin 107;
#X text 79 391 // SIGNAL MPR DEVICES ARE ACTIVE;
#X connect 0 0 1 0;
#X connect 1 0 9 0;
#X connect 2 0 3 0;
#X connect 3 0 9 0;
#X connect 4 0 5 0;
#X connect 5 0 9 0;
#X connect 7 0 9 0;
#X connect 8 0 9 0;
#X connect 9 0 6 0;
#X connect 18 0 17 0;
#X connect 19 0 16 0;
#X connect 20 0 15 0;
#X connect 21 0 14 0;
#X restore 1380 67 pd oribotic.instrument.midi;
#N canvas 34 78 1695 1108 controllers 0;
#X obj 826 127 inlet;
#X obj 930 127 inlet;
#X obj 1667 619;
#X msg 826 150 \$1 106;
#X msg 930 150 \$1 107;
#X obj 615 127 inlet;
#X obj 719 127 inlet;
#X obj 419 127 inlet;
#X obj 514 127 inlet;
#X obj 230 127 inlet;
#X obj 323 127 inlet;
#X msg 230 150 \$1 100;
#X msg 323 150 \$1 101;
#X msg 419 150 \$1 102;
#X msg 514 150 \$1 103;
#X msg 615 150 \$1 104;
#X msg 719 150 \$1 105;
#X obj 930 174 oi/ctlmidi;
#X obj 976 103 tgl 19 0 empty empty isolate 0 -10 0 12 #fcfcfc #000000 #000000 0 1;
#X obj 826 173 oi/ctlmidi;
#X obj 872 102 tgl 19 0 empty empty isolate 0 -10 0 12 #fcfcfc #000000 #000000 0 1;
#X obj 719 173 oi/ctlmidi;
#X obj 765 102 tgl 19 0 empty empty isolate 0 -10 0 12 #fcfcfc #000000 #000000 0 1;
#X obj 615 173 oi/ctlmidi;
#X obj 661 102 tgl 19 0 empty empty isolate 0 -10 0 12 #fcfcfc #000000 #000000 0 1;
#X obj 514 173 oi/ctlmidi;
#X obj 560 102 tgl 19 0 empty empty isolate 0 -10 0 12 #fcfcfc #000000 #000000 0 1;
#X obj 419 174 oi/ctlmidi;
#X obj 465 103 tgl 19 0 empty empty isolate 0 -10 0 12 #fcfcfc #000000 #000000 0 1;
#X obj 323 172 oi/ctlmidi;
#X obj 369 101 tgl 19 0 empty empty isolate 0 -10 0 12 #fcfcfc #000000 #000000 0 1;
#X obj 229 173 oi/ctlmidi;
#X obj 275 102 tgl 19 0 empty empty isolate 0 -10 0 12 #fcfcfc #000000 #000000 0 1;
#X connect 0 0 3 0;
#X connect 1 0 4 0;
#X connect 3 0 19 0;
#X connect 4 0 17 0;
#X connect 5 0 15 0;
#X connect 6 0 16 0;
#X connect 7 0 13 0;
#X connect 8 0 14 0;
#X connect 9 0 11 0;
#X connect 10 0 12 0;
#X connect 11 0 31 0;
#X connect 12 0 29 0;
#X connect 13 0 27 0;
#X connect 14 0 25 0;
#X connect 15 0 23 0;
#X connect 16 0 21 0;
#X connect 18 0 17 1;
#X connect 20 0 19 1;
#X connect 22 0 21 1;
#X connect 24 0 23 1;
#X connect 26 0 25 1;
#X connect 28 0 27 1;
#X connect 30 0 29 1;
#X connect 32 0 31 1;
#X restore 336 686 pd controllers;
#X obj 1380 45 declare -path ./lib/ ../oi/;
#X obj 1382 25 declare -path ../oi/;
#X connect 56 1 66 0;
#X connect 57 1 67 0;
#X connect 58 1 68 0;
#X connect 59 1 69 0;
#X connect 60 1 70 0;
#X connect 61 1 71 0;
#X connect 62 1 72 0;
#X connect 63 1 65 0;
#X connect 65 0 64 0;
#X connect 66 0 64 1;
#X connect 67 0 64 2;
#X connect 68 0 64 3;
#X connect 69 0 64 7;
#X connect 70 0 64 6;
#X connect 71 0 64 5;
#X connect 72 0 64 4;
