#N canvas 34 77 1343 662 12;
#X obj 1708 460 tgl 19 0 empty empty empty 0 -10 0 12 #fcfcfc #000000 #000000 0 1;
#X obj 1708 488 s midiON;
#X obj -1 -5 cnv 30 2000 1000 empty empty empty 20 12 0 16 #bbbbbb #404040 0;
#X obj 54 153 r b/0;
#X obj 95 153 r d/0;
#X obj 136 153 r s/0;
#X obj 53 44 vsl 60 60 0 254 0 0 empty r/0 /0 0 90 0 10 #feffc6 #404040 #404040 0 1;
#X obj 532 44 vsl 60 60 0 254 0 0 empty r/3 /3 0 90 0 10 #ff8300 #404040 #404040 0 1;
#X obj 395 44 vsl 60 60 0 254 0 0 empty r/2 /2 0 90 0 10 #ffe3c6 #404040 #404040 0 1;
#X obj 189 44 vsl 60 60 0 254 0 0 empty r/1 /1 0 90 0 10 #faff00 #404040 #404040 0 1;
#X obj 535 394 vsl 60 60 0 254 0 0 empty r/7 /7 0 90 0 10 #9c00ff #404040 #404040 0 1;
#X obj 401 394 vsl 60 60 0 254 0 0 empty r/6 /6 0 90 0 10 #e3c6ff #404040 #404040 0 1;
#X obj 192 394 vsl 60 60 0 254 0 0 empty r/5 /5 0 90 0 10 #ff0400 #404040 #404040 0 1;
#X obj 55 394 vsl 60 60 0 254 0 0 empty r/4 /4 0 90 0 10 #ffc7c6 #404040 #404040 0 1;
#X obj 188 153 r b/1;
#X obj 229 153 r d/1;
#X obj 270 153 r s/1;
#X obj 396 153 r b/2;
#X obj 437 153 r d/2;
#X obj 478 153 r s/2;
#X obj 530 153 r b/3;
#X obj 571 153 r d/3;
#X obj 612 153 r s/3;
#X obj 55 502 r b/4;
#X obj 96 502 r d/4;
#X obj 137 502 r s/4;
#X obj 189 502 r b/5;
#X obj 230 502 r d/5;
#X obj 271 502 r s/5;
#X obj 401 502 r b/6;
#X obj 442 502 r d/6;
#X obj 483 502 r s/6;
#X obj 535 502 r b/7;
#X obj 576 502 r d/7;
#X obj 617 502 r s/7;
#N canvas 34 77 1343 634 signal-routing 0;
#X obj 82 66 r bend;
#X obj 303 139 s r/0;
#X obj 275 158 s r/1;
#X obj 248 177 s r/2;
#X obj 220 198 s r/3;
#X obj 192 143 s r/4;
#X obj 165 162 s r/5;
#X obj 137 181 s r/6;
#X obj 109 202 s r/7;
#X obj 79 270 r soft;
#X obj 124 223 s b/7;
#X obj 152 202 s b/6;
#X obj 180 183 s b/5;
#X obj 207 164 s b/4;
#X obj 318 160 s b/0;
#X obj 290 179 s b/1;
#X obj 263 198 s b/2;
#X obj 235 219 s b/3;
#X obj 106 406 s s/7;
#X obj 134 385 s s/6;
#X obj 162 366 s s/5;
#X obj 189 347 s s/4;
#X obj 217 402 s s/3;
#X obj 245 381 s s/2;
#X obj 272 362 s s/1;
#X obj 300 343 s s/0;
#X obj 109 609 s d/7;
#X obj 82 473 r digital;
#X obj 137 588 s d/6;
#X obj 165 569 s d/5;
#X obj 192 550 s d/4;
#X obj 303 546 s d/0;
#X obj 275 565 s d/1;
#X obj 248 584 s d/2;
#X obj 220 605 s d/3;
#X obj 82 518 route 8 7 6 5 4 3 2 1 0, f 36;
#X obj 79 315 route 8 7 6 5 4 3 2 1 0, f 36;
#X obj 82 111 route 8 7 6 5 4 3 2 1 0, f 36;
#X connect 0 0 37 0;
#X connect 9 0 36 0;
#X connect 27 0 35 0;
#X connect 35 1 26 0;
#X connect 35 2 28 0;
#X connect 35 3 29 0;
#X connect 35 4 30 0;
#X connect 35 5 34 0;
#X connect 35 6 33 0;
#X connect 35 7 32 0;
#X connect 35 8 31 0;
#X connect 36 1 18 0;
#X connect 36 2 19 0;
#X connect 36 3 20 0;
#X connect 36 4 21 0;
#X connect 36 5 22 0;
#X connect 36 6 23 0;
#X connect 36 7 24 0;
#X connect 36 8 25 0;
#X connect 37 1 8 0;
#X connect 37 1 10 0;
#X connect 37 2 7 0;
#X connect 37 2 11 0;
#X connect 37 3 6 0;
#X connect 37 3 12 0;
#X connect 37 4 5 0;
#X connect 37 4 13 0;
#X connect 37 5 4 0;
#X connect 37 5 17 0;
#X connect 37 6 3 0;
#X connect 37 6 16 0;
#X connect 37 7 2 0;
#X connect 37 7 15 0;
#X connect 37 8 1 0;
#X connect 37 8 14 0;
#X restore 1116 111 pd signal-routing;
#X obj 95 175 tgl 19 0 empty empty empty 0 -10 0 12 #fcfcfc #000000 #000000 0 1;
#X obj 229 175 tgl 19 0 empty empty empty 0 -10 0 12 #fcfcfc #000000 #000000 0 1;
#X obj 437 175 tgl 19 0 empty empty empty 0 -10 0 12 #fcfcfc #000000 #000000 0 1;
#X obj 571 175 tgl 19 0 empty empty empty 0 -10 0 12 #fcfcfc #000000 #000000 0 1;
#X obj 96 524 tgl 19 0 empty empty empty 0 -10 0 12 #fcfcfc #000000 #000000 0 1;
#X obj 230 524 tgl 19 0 empty empty empty 0 -10 0 12 #fcfcfc #000000 #000000 0 1;
#X obj 442 524 tgl 19 0 empty empty empty 0 -10 0 12 #fcfcfc #000000 #000000 0 1;
#X obj 576 524 tgl 19 0 empty empty empty 0 -10 0 12 #fcfcfc #000000 #000000 0 1;
#X floatatom 271 524 5 0 0 0 - - - 0;
#X floatatom 137 524 5 0 0 0 - - - 0;
#X floatatom 483 524 5 0 0 0 - - - 0;
#X floatatom 617 524 5 0 0 0 - - - 0;
#X floatatom 270 175 5 0 0 0 - - - 0;
#X floatatom 136 175 5 0 0 0 - - - 0;
#X floatatom 478 175 5 0 0 0 - - - 0;
#X floatatom 612 175 5 0 0 0 - - - 0;
#X floatatom 396 175 5 0 0 0 - - - 0;
#X floatatom 530 175 5 0 0 0 - - - 0;
#X floatatom 54 175 5 0 0 0 - - - 0;
#X floatatom 188 175 5 0 0 0 - - - 0;
#X floatatom 55 524 5 0 0 0 - - - 0;
#X floatatom 189 524 5 0 0 0 - - - 0;
#X floatatom 401 524 5 0 0 0 - - - 0;
#X floatatom 535 524 5 0 0 0 - - - 0;
#X floatatom 53 222 5 0 0 0 - - - 0;
#X floatatom 188 222 5 0 0 0 - - - 0;
#X floatatom 396 222 5 0 0 0 - - - 0;
#X floatatom 530 222 5 0 0 0 - - - 0;
#N canvas 153 205 1527 642 setmix 0;
#X msg 71 227 1;
#X msg 111 227 2;
#X msg 151 227 3;
#X msg 191 227 4;
#X msg 230 227 5;
#X msg 272 227 6;
#X obj 70 389 s mixnumber;
#X obj 71 55 r setmix1;
#X obj 111 77 r setmix2;
#X obj 151 99 r setmix3;
#X obj 191 121 r setmix2;
#X obj 230 143 r setmix5;
#X obj 272 165 r setmix6;
#X connect 0 0 6 0;
#X connect 1 0 6 0;
#X connect 2 0 6 0;
#X connect 3 0 6 0;
#X connect 4 0 6 0;
#X connect 5 0 6 0;
#X connect 7 0 0 0;
#X connect 8 0 1 0;
#X connect 9 0 2 0;
#X connect 10 0 3 0;
#X connect 11 0 4 0;
#X connect 12 0 5 0;
#X restore 1116 156 pd setmix;
#X f 13;
#X floatatom 55 570 5 0 0 0 - - - 0;
#X floatatom 189 570 5 0 0 0 - - - 0;
#X floatatom 401 570 5 0 0 0 - - - 0;
#X floatatom 535 570 5 0 0 0 - - - 0;
#N canvas 95 88 1585 827 configure 0;
#N canvas 34 78 1614 823 oscpatching 0;
#X msg 220 190 close, f 8;
#X msg 170 110 devicename /dev/cu.usbmodemMIDI1 baud 115200 \, pollintervall 1;
#X obj 50 410 s digital;
#X obj 84 439 s soft;
#X obj 119 413 s bend;
#X obj 131 30 inlet;
#X obj 170 30 inlet;
#X obj 220 160 inlet;
#X obj 153 455 s note;
#X obj 20 210 inlet;
#X obj 188 425 s set;
#X msg 130 70 devicename /dev/cu.usbmodem2101 baud 115200 \, pollintervall 1;
#X obj 222 404 s raw;
#X obj 257 431 s key;
#X obj 50 281 lib/io.slipserial;
#X obj 50 312 oscparse;
#X obj 50 372 route d s b n set raw key;
#X obj 50 341 list trim;
#N canvas 179 204 299 284 oscformat 0;
#X obj 39 25 inlet;
#X obj 79 229 outlet;
#X obj 79 189 oscformat;
#X obj 151 97 list split 1;
#X obj 39 62 t a a;
#X msg 151 141 set \$1;
#X obj 39 97 list split 1;
#X text 207 140 address;
#X text 39 140 args;
#X connect 0 0 4 0;
#X connect 2 0 1 0;
#X connect 3 0 5 0;
#X connect 4 0 6 0;
#X connect 4 1 3 0;
#X connect 5 0 2 0;
#X connect 6 1 2 0;
#X restore 20 240 pd oscformat;
#X connect 0 0 14 1;
#X connect 1 0 14 1;
#X connect 5 0 11 0;
#X connect 6 0 1 0;
#X connect 7 0 0 0;
#X connect 9 0 18 0;
#X connect 11 0 14 1;
#X connect 14 0 15 0;
#X connect 15 0 17 0;
#X connect 16 0 2 0;
#X connect 16 1 3 0;
#X connect 16 2 4 0;
#X connect 16 3 8 0;
#X connect 16 4 10 0;
#X connect 16 5 12 0;
#X connect 16 6 13 0;
#X connect 17 0 16 0;
#X connect 18 0 14 0;
#X restore 55 91 pd oscpatching;
#X obj 118 51 bng 15 250 50 0 empty empty empty 17 7 0 10 #fcfcfc #000000 #000000;
#X text 138 51 USBMIDI;
#X obj 150 70 bng 15 250 50 0 empty empty empty 17 7 0 10 #fcfcfc #000000 #000000;
#X text 170 70 close;
#X obj 55 24 r sendOSC;
#X obj 256 165 s cal;
#X msg 54 147 hard;
#X msg 94 147 soft;
#X msg 134 147 belo;
#X msg 174 147 behi;
#X obj 169 207 r cal;
#X obj 54 207 r keylist;
#X msg 214 147 loHS;
#X obj 174 124 bng 19 250 50 0 empty empty empty 0 -10 0 12 #fcfcfc #000000 #000000;
#X obj 134 124 bng 19 250 50 0 empty empty empty 0 -10 0 12 #fcfcfc #000000 #000000;
#X obj 94 124 bng 19 250 50 0 empty empty empty 0 -10 0 12 #fcfcfc #000000 #000000;
#X obj 54 124 bng 19 250 50 0 empty empty empty 0 -10 0 12 #fcfcfc #000000 #000000;
#X obj 214 124 bng 19 250 50 0 empty empty empty 0 -10 0 12 #fcfcfc #000000 #000000;
#X obj 215 29 bng 24 250 50 0 empty empty empty 17 7 0 10 #fcfcfc #000000 #000000;
#N canvas 34 52 1478 970 calibrate 0;
#X obj 148 92 inlet;
#X msg 148 130 /calibrate;
#X obj 148 160 s sendOSC;
#X msg 108 216 0;
#X obj 148 190 r set;
#X floatatom 148 280 5 0 0 0 - - - 0;
#X floatatom 208 280 5 0 0 0 - - - 0;
#X obj 148 304 outlet;
#X obj 148 220 route calibrated usePanelGroups, f 18;
#X connect 0 0 1 0;
#X connect 1 0 2 0;
#X connect 3 0 5 0;
#X connect 4 0 8 0;
#X connect 5 0 7 0;
#X connect 8 0 5 0;
#X connect 8 1 6 0;
#X restore 215 87 pd calibrate;
#X msg 54 186 list 0 \, 1 \, 2 \, 3 \, 4 \, 5 \, 6 \, 7;
#X text 981 693 0;
#X text 965 693 1;
#X obj 839 553 vsl 15 128 0 1024 0 0 empty empty empty 0 -9 0 10 #fcfcfc #000000 #000000 0 1;
#X obj 856 553 vsl 15 128 0 1024 0 0 empty empty empty 0 -9 0 10 #fcfcfc #000000 #000000 0 1;
#X obj 881 553 vsl 15 128 0 1024 0 0 empty empty empty 0 -9 0 10 #fcfcfc #000000 #000000 0 1;
#X obj 961 553 vsl 15 128 0 1024 0 0 empty empty empty 0 -9 0 10 #fcfcfc #000000 #000000 0 1;
#X obj 898 553 vsl 15 128 0 1024 0 0 empty empty empty 0 -9 0 10 #fcfcfc #000000 #000000 0 1;
#X obj 939 553 vsl 15 128 0 1024 0 0 empty empty empty 0 -9 0 10 #fcfcfc #000000 #000000 0 1;
#X obj 922 553 vsl 15 128 0 1024 0 0 empty empty empty 0 -9 0 10 #fcfcfc #000000 #000000 0 1;
#X obj 978 553 vsl 15 128 0 1024 0 0 empty empty empty 0 -9 0 10 #fcfcfc #000000 #000000 0 1;
#X text 820 483 BEND;
#X text 842 693 7;
#X text 858 693 6;
#X text 886 693 5;
#X text 902 693 4;
#X text 927 693 3;
#X text 943 693 2;
#X msg 751 534 range \$1 \$2;
#X obj 761 486 r raw;
#X msg 751 460 0 1024;
#X obj 758 230 tgl 19 0 empty empty graph 0 -10 0 12 #c6ffc7 #000000 #000000 0 1;
#X obj 758 348 f;
#X obj 800 347 + 1;
#X listbox 758 390 7 0 0 0 - - - 0;
#N canvas 0 22 450 278 (subpatch) 0;
#X array /0 200 float 4;
#X coords 0 254 199 0 500 50 1 0 0;
#X restore 56 279 graph;
#N canvas 0 22 450 278 (subpatch) 0;
#X array /2 200 float 4;
#X coords 0 254 199 0 500 50 1 0 0;
#X restore 56 411 graph;
#N canvas 0 22 450 278 (subpatch) 0;
#X array /1 200 float 4;
#X coords 0 254 199 0 500 50 1 0 0;
#X restore 56 345 graph;
#N canvas 0 22 450 278 (subpatch) 0;
#X array /3 200 float 4;
#X coords 0 254 199 0 500 50 2 0 0;
#X restore 56 478 graph;
#N canvas 0 22 450 278 (subpatch) 0;
#X array /5 200 float 4;
#X coords 0 254 199 0 500 50 1 0 0;
#X restore 56 615 graph;
#N canvas 0 22 450 278 (subpatch) 0;
#X array /4 200 float 4;
#X coords 0 254 199 0 500 50 1 0 0;
#X restore 56 546 graph;
#N canvas 0 22 450 278 (subpatch) 0;
#X array /6 200 float 4;
#X coords 0 254 199 0 500 50 1 0 0;
#X restore 56 683 graph;
#N canvas 0 22 450 278 (subpatch) 0;
#X array /7 200 float 4;
#X coords 0 254 199 0 500 50 1 0 0;
#X restore 57 751 graph;
#X obj 758 369 mod 200;
#X floatatom 584 694 5 0 0 0 - - - 0;
#X floatatom 644 694 5 0 0 0 - - - 0;
#X obj 584 764 tabwrite;
#X msg 584 552 set \$1_min;
#X floatatom 637 735 5 0 0 0 - - - 0;
#X obj 689 694 bng 19 250 50 0 empty empty empty 0 -10 0 12 #fcfcfc #000000 #000000;
#N canvas 0 22 450 278 (subpatch) 0;
#X array /1_min 1 float 0;
#X coords 0 0 1 1023 500 50 1 0 0;
#X restore 1051 341 graph;
#N canvas 34 78 1284 1038 (subpatch) 0;
#X array /0_min 1 float 2;
#X coords 0 0 1 255 500 50 1 0 0;
#X restore 1050 276 graph;
#N canvas 0 22 450 278 (subpatch) 0;
#X array /2_min 1 float 0;
#X coords 0 0 1 1023 500 50 1 0 0;
#X restore 1051 406 graph;
#N canvas 0 22 450 278 (subpatch) 0;
#X array /3_min 1 float 0;
#X coords 0 0 1 1023 500 50 1 0 0;
#X restore 1050 472 graph;
#N canvas 0 22 450 278 (subpatch) 0;
#X array /4_min 1 float 0;
#X coords 0 0 1 1023 500 50 1 0 0;
#X restore 1049 539 graph;
#N canvas 0 22 450 278 (subpatch) 0;
#X array /5_min 1 float 0;
#X coords 0 0 1 1023 500 50 1 0 0;
#X restore 1048 607 graph;
#N canvas 0 22 450 278 (subpatch) 0;
#X array /6_min 1 float 0;
#X coords 0 0 1 1023 500 50 1 0 0;
#X restore 1047 674 graph;
#N canvas 0 22 450 278 (subpatch) 0;
#X array /7_min 1 float 0;
#X coords 0 0 1 1023 500 50 1 0 0;
#X restore 1048 741 graph;
#X obj 758 321 metro 50;
#X obj 584 669 array min;
#X obj 406 37 bng 19 250 50 0 empty empty 3 0 -10 0 12 #feffc6 #000000 #000000;
#X obj 384 37 bng 19 250 50 0 empty empty 2 0 -10 0 12 #feffc6 #000000 #000000;
#X obj 362 37 bng 19 250 50 0 empty empty 1 0 -10 0 12 #feffc6 #000000 #000000;
#X obj 340 37 bng 19 250 50 0 empty empty 0 0 -10 0 12 #feffc6 #000000 #000000;
#N canvas 184 238 1334 1090 setFFI 0;
#X msg 226 188 1;
#X msg 269 188 2;
#X msg 314 188 3;
#X obj 226 161 inlet;
#X obj 269 161 inlet;
#X obj 313 161 inlet;
#X obj 181 160 inlet;
#X msg 181 187 0;
#X obj 188 365 s sendOSC;
#X msg 188 343 \$2 \$1;
#X symbolatom 242 298 17 0 0 0 - - - 0;
#X obj 188 321 pack f s;
#X obj 273 380 print;
#X obj 232 243 makefilename /setFFIFilter;
#X connect 0 0 11 0;
#X connect 0 0 13 0;
#X connect 1 0 11 0;
#X connect 1 0 13 0;
#X connect 2 0 11 0;
#X connect 2 0 13 0;
#X connect 3 0 0 0;
#X connect 4 0 1 0;
#X connect 5 0 2 0;
#X connect 6 0 7 0;
#X connect 7 0 11 0;
#X connect 7 0 13 0;
#X connect 9 0 8 0;
#X connect 9 0 12 0;
#X connect 10 0 11 1;
#X connect 11 0 9 0;
#X connect 13 0 10 0;
#X restore 340 62 pd setFFI;
#X f 10;
#X obj 506 36 bng 19 250 50 0 empty empty 3 0 -10 0 12 #feffc6 #000000 #000000;
#X obj 484 36 bng 19 250 50 0 empty empty 2 0 -10 0 12 #feffc6 #000000 #000000;
#X obj 462 36 bng 19 250 50 0 empty empty 1 0 -10 0 12 #feffc6 #000000 #000000;
#X obj 440 36 bng 19 250 50 0 empty empty 0 0 -10 0 12 #feffc6 #000000 #000000;
#N canvas 184 238 1334 997 setSFI 0;
#X msg 226 188 1;
#X msg 269 188 2;
#X msg 314 188 3;
#X obj 226 161 inlet;
#X obj 269 161 inlet;
#X obj 313 161 inlet;
#X obj 181 160 inlet;
#X msg 181 187 0;
#X obj 188 365 s sendOSC;
#X msg 188 343 \$2 \$1;
#X symbolatom 242 298 17 0 0 0 - - - 0;
#X obj 188 321 pack f s;
#X obj 232 243 makefilename /setSFIFilter;
#X connect 0 0 12 0;
#X connect 0 0 11 0;
#X connect 1 0 12 0;
#X connect 1 0 11 0;
#X connect 2 0 12 0;
#X connect 2 0 11 0;
#X connect 3 0 0 0;
#X connect 4 0 1 0;
#X connect 5 0 2 0;
#X connect 6 0 7 0;
#X connect 7 0 11 0;
#X connect 7 0 12 0;
#X connect 9 0 8 0;
#X connect 10 0 11 1;
#X connect 11 0 9 0;
#X connect 12 0 10 0;
#X restore 440 61 pd setSFI;
#X f 10;
#X obj 413 178 bng 19 250 50 0 empty empty 4 0 -10 0 12 #feffc6 #000000 #000000;
#X obj 391 178 bng 19 250 50 0 empty empty 2 0 -10 0 12 #feffc6 #000000 #000000;
#X obj 369 178 bng 19 250 50 0 empty empty 1 0 -10 0 12 #feffc6 #000000 #000000;
#X obj 340 178 bng 19 250 50 0 empty empty 0.5 0 -10 0 12 #feffc6 #000000 #000000;
#N canvas 53 74 1334 1090 setCDT 0;
#X msg 226 188 1;
#X msg 269 188 2;
#X obj 226 161 inlet;
#X obj 269 161 inlet;
#X obj 313 161 inlet;
#X obj 182 161 inlet;
#X obj 182 365 s sendOSC;
#X msg 182 343 \$2 \$1;
#X symbolatom 310 303 17 0 0 0 - - - 0;
#X obj 182 321 pack f s;
#X obj 140 406 print;
#X obj 310 278 makefilename /setCDT;
#X obj 358 161 inlet;
#X obj 403 161 inlet;
#X msg 182 188 0;
#X msg 314 188 4;
#X msg 359 188 8;
#X msg 404 188 16;
#X obj 448 161 inlet;
#X msg 449 188 32;
#X connect 0 0 9 0;
#X connect 0 0 11 0;
#X connect 1 0 9 0;
#X connect 1 0 11 0;
#X connect 2 0 0 0;
#X connect 3 0 1 0;
#X connect 4 0 15 0;
#X connect 5 0 14 0;
#X connect 7 0 6 0;
#X connect 7 0 10 0;
#X connect 8 0 9 1;
#X connect 9 0 7 0;
#X connect 11 0 8 0;
#X connect 12 0 16 0;
#X connect 13 0 17 0;
#X connect 14 0 9 0;
#X connect 14 0 11 0;
#X connect 15 0 9 0;
#X connect 15 0 11 0;
#X connect 16 0 9 0;
#X connect 16 0 11 0;
#X connect 17 0 9 0;
#X connect 17 0 11 0;
#X connect 18 0 19 0;
#X connect 19 0 9 0;
#X connect 19 0 11 0;
#X restore 340 203 pd setCDT;
#X f 19;
#X obj 435 178 bng 19 250 50 0 empty empty 8 0 -10 0 12 #feffc6 #000000 #000000;
#X obj 457 178 bng 19 250 50 0 empty empty 16 0 -10 0 12 #feffc6 #000000 #000000;
#X obj 479 178 bng 19 250 50 0 empty empty 32 0 -10 0 12 #feffc6 #000000 #000000;
#X obj 385 109 bng 19 250 50 0 empty empty 4 0 -10 0 12 #feffc6 #000000 #000000;
#X obj 363 109 bng 19 250 50 0 empty empty 2 0 -10 0 12 #feffc6 #000000 #000000;
#X obj 341 109 bng 19 250 50 0 empty empty 1 0 -10 0 12 #feffc6 #000000 #000000;
#X obj 407 109 bng 19 250 50 0 empty empty 8 0 -10 0 12 #feffc6 #000000 #000000;
#X obj 429 109 bng 19 250 50 0 empty empty 16 0 -10 0 12 #feffc6 #000000 #000000;
#X obj 451 109 bng 19 250 50 0 empty empty 32 0 -10 0 12 #feffc6 #000000 #000000;
#N canvas 53 74 1334 997 setInterval 0;
#X msg 188 186 1;
#X msg 231 187 2;
#X obj 188 161 inlet;
#X obj 231 161 inlet;
#X obj 275 161 inlet;
#X obj 188 365 s sendOSC;
#X msg 188 343 \$2 \$1;
#X symbolatom 318 304 17 0 0 0 - - - 0;
#X obj 188 321 pack f s;
#X obj 318 282 makefilename /setCDT;
#X obj 322 161 inlet;
#X obj 368 161 inlet;
#X msg 275 187 4;
#X msg 322 187 8;
#X msg 368 187 16;
#X obj 414 161 inlet;
#X msg 414 187 32;
#X obj 459 161 inlet;
#X msg 459 187 64;
#X obj 505 161 inlet;
#X msg 505 187 128;
#X connect 0 0 8 0;
#X connect 0 0 9 0;
#X connect 1 0 8 0;
#X connect 1 0 9 0;
#X connect 2 0 0 0;
#X connect 3 0 1 0;
#X connect 4 0 12 0;
#X connect 6 0 5 0;
#X connect 7 0 8 1;
#X connect 8 0 6 0;
#X connect 9 0 7 0;
#X connect 10 0 13 0;
#X connect 11 0 14 0;
#X connect 12 0 8 0;
#X connect 12 0 9 0;
#X connect 13 0 8 0;
#X connect 13 0 9 0;
#X connect 14 0 8 0;
#X connect 14 0 9 0;
#X connect 15 0 16 0;
#X connect 16 0 8 0;
#X connect 16 0 9 0;
#X connect 17 0 18 0;
#X connect 18 0 9 0;
#X connect 19 0 20 0;
#X connect 20 0 8 0;
#X connect 20 0 9 0;
#X restore 341 134 pd setInterval;
#X f 23;
#X obj 474 109 bng 19 250 50 0 empty empty 64 0 -10 0 12 #feffc6 #000000 #000000;
#X obj 497 109 bng 19 250 50 0 empty empty 128 0 -10 0 12 #feffc6 #000000 #000000;
#X obj 584 264 spigot;
#N canvas 34 78 1614 823 calibrate-keys 0;
#X obj 100 90 inlet;
#X obj 160 90 inlet;
#X text 100 60 key#;
#X text 160 60 value;
#X obj 280 90 inlet;
#X obj 100 370 s sendOSC;
#X text 270 60 type: Hard Soft BendLO BendHI;
#X obj 310 130 symbol;
#X symbolatom 280 200 17 0 0 0 - - - 0;
#X floatatom 90 130 5 0 0 0 - - - 0;
#X msg 100 330 \$2 \$1;
#X msg 180 330 \$2 \$3 \$1;
#X floatatom 180 140 5 0 0 0 - - - 0;
#X obj 180 290 pack f s f;
#X obj 100 290 pack f s;
#X msg 530 90 behi;
#X msg 460 90 belo;
#X msg 400 90 soft;
#X msg 340 90 hard;
#X obj 280 160 makefilename /setKey/%s;
#X connect 0 0 13 2;
#X connect 0 0 14 0;
#X connect 1 0 13 0;
#X connect 4 0 7 0;
#X connect 7 0 19 0;
#X connect 8 0 13 1;
#X connect 8 0 14 1;
#X connect 9 0 14 0;
#X connect 9 0 13 2;
#X connect 10 0 5 0;
#X connect 11 0 5 0;
#X connect 12 0 13 0;
#X connect 13 0 11 0;
#X connect 14 0 10 0;
#X connect 15 0 7 0;
#X connect 16 0 7 0;
#X connect 17 0 7 0;
#X connect 18 0 7 0;
#X connect 19 0 8 0;
#X restore 54 230 pd calibrate-keys;
#X obj 584 229 r bend;
#X obj 651 420 tabwrite;
#X msg 651 376 set \$1;
#X obj 584 377 t b f;
#X obj 584 420 symbol;
#X obj 584 458 t s s;
#X obj 584 611 t b a;
#X obj 623 347 makefilename /%d;
#X obj 584 319 unpack f f;
#X msg 584 286 \$2 \$1;
#X obj 55 67 spigot;
#X obj 94 48 tgl 15 0 empty empty empty 0 -10 0 12 #fcfcfc #000000 #000000 0 1;
#X obj 761 512 route 11 10 9 8 7 6 5 4 3 2 1 0;
#X connect 1 0 0 2;
#X connect 3 0 0 3;
#X connect 5 0 110 0;
#X connect 7 0 6 0;
#X connect 7 0 21 0;
#X connect 8 0 6 0;
#X connect 8 0 21 0;
#X connect 9 0 6 0;
#X connect 9 0 21 0;
#X connect 10 0 6 0;
#X connect 10 0 21 0;
#X connect 11 0 99 2;
#X connect 12 0 99 0;
#X connect 13 0 6 0;
#X connect 13 0 21 0;
#X connect 14 0 10 0;
#X connect 15 0 9 0;
#X connect 16 0 8 0;
#X connect 17 0 7 0;
#X connect 18 0 13 0;
#X connect 19 0 20 0;
#X connect 39 0 31 0;
#X connect 39 0 30 0;
#X connect 39 0 29 0;
#X connect 39 0 28 0;
#X connect 39 0 27 0;
#X connect 39 0 26 0;
#X connect 39 0 25 0;
#X connect 39 0 24 0;
#X connect 40 0 112 0;
#X connect 41 0 39 0;
#X connect 42 0 69 0;
#X connect 42 0 98 1;
#X connect 43 0 44 0;
#X connect 43 0 54 0;
#X connect 44 0 43 1;
#X connect 45 0 101 1;
#X connect 54 0 45 0;
#X connect 55 0 57 0;
#X connect 58 0 106 0;
#X connect 59 0 57 1;
#X connect 60 0 59 0;
#X connect 69 0 43 0;
#X connect 70 0 55 0;
#X connect 70 1 56 0;
#X connect 71 0 75 3;
#X connect 72 0 75 2;
#X connect 73 0 75 1;
#X connect 74 0 75 0;
#X connect 76 0 80 3;
#X connect 77 0 80 2;
#X connect 78 0 80 1;
#X connect 79 0 80 0;
#X connect 81 0 85 3;
#X connect 82 0 85 2;
#X connect 83 0 85 1;
#X connect 84 0 85 0;
#X connect 86 0 85 4;
#X connect 87 0 85 5;
#X connect 88 0 85 6;
#X connect 89 0 95 2;
#X connect 90 0 95 1;
#X connect 91 0 95 0;
#X connect 92 0 95 3;
#X connect 93 0 95 4;
#X connect 94 0 95 5;
#X connect 96 0 95 6;
#X connect 97 0 95 7;
#X connect 98 0 109 0;
#X connect 100 0 98 0;
#X connect 102 0 101 0;
#X connect 103 0 104 0;
#X connect 103 1 101 0;
#X connect 104 0 105 0;
#X connect 105 0 58 0;
#X connect 105 1 70 2;
#X connect 106 0 70 0;
#X connect 106 1 57 0;
#X connect 107 0 104 1;
#X connect 107 0 102 0;
#X connect 108 0 103 0;
#X connect 108 1 107 0;
#X connect 109 0 108 0;
#X connect 110 0 0 0;
#X connect 111 0 110 1;
#X connect 112 4 24 0;
#X connect 112 5 25 0;
#X connect 112 6 26 0;
#X connect 112 7 28 0;
#X connect 112 8 30 0;
#X connect 112 9 29 0;
#X connect 112 10 27 0;
#X connect 112 11 31 0;
#X coords 0 0 0.25 0.25 0 0 0;
#X restore 1116 65 pd configure;
#N canvas 34 77 753 484 oscpatching 0;
#X msg 363 250 close, f 8;
#X obj 50 396 s digital;
#X obj 84 425 s soft;
#X obj 119 399 s bend;
#X obj 153 441 s note;
#X obj 188 411 s set;
#X obj 223 443 s raw;
#X obj 257 417 s key;
#X obj 50 186 r sendOSC;
#X obj 262 30 r usbMIDI;
#X obj 166 31 r usb;
#X obj 363 183 r closeUSB;
#X obj 306 433 s mpr;
#X msg 262 73 devicename /dev/tty.usbmodemMIDI1 baud 115200 \, pollintervall 1, f 63;
#X obj 50 281 lib/io.slipserial;
#X msg 166 139 devicename /dev/tty.usbmodem1101 baud 115200 \, pollintervall 1, f 61;
#X obj 50 308 oscparse;
#X obj 50 368 route d s b n set raw key mpr;
#X obj 50 337 list trim;
#N canvas 179 204 299 284 oscformat 0;
#X obj 39 25 inlet;
#X obj 79 229 outlet;
#X obj 79 189 oscformat;
#X obj 151 97 list split 1;
#X obj 39 62 t a a;
#X msg 151 141 set \$1;
#X obj 39 97 list split 1;
#X text 207 140 address;
#X text 39 140 args;
#X connect 0 0 4 0;
#X connect 2 0 1 0;
#X connect 3 0 5 0;
#X connect 4 0 6 0;
#X connect 4 1 3 0;
#X connect 5 0 2 0;
#X connect 6 1 2 0;
#X restore 50 231 pd oscformat;
#X connect 0 0 14 1;
#X connect 8 0 19 0;
#X connect 9 0 13 0;
#X connect 10 0 15 0;
#X connect 11 0 0 0;
#X connect 13 0 14 1;
#X connect 14 0 16 0;
#X connect 15 0 14 1;
#X connect 16 0 18 0;
#X connect 17 0 1 0;
#X connect 17 1 2 0;
#X connect 17 2 3 0;
#X connect 17 3 4 0;
#X connect 17 4 5 0;
#X connect 17 5 6 0;
#X connect 17 6 7 0;
#X connect 17 7 12 0;
#X connect 18 0 17 0;
#X connect 19 0 14 0;
#X restore 1116 43 pd oscpatching;
#X obj 692 13 bng 20 250 50 0 usbMIDI empty USB\ MIDI 28 12 0 12 #ff8300 #000000 #000000;
#X obj 867 14 bng 20 250 50 0 closeUSB empty CLOSE\ USB 25 12 0 12 #ffc7c6 #000000 #000000;
#N canvas 40 282 1614 234 calibrate 0;
#X msg 130 88 /calibrate;
#X obj 130 118 s sendOSC;
#X msg 212 70 0;
#X obj 246 39 r set;
#X floatatom 246 129 5 0 0 0 - - - 0;
#X floatatom 307 129 5 0 0 0 - - - 0;
#X obj 242 471 bng 19 250 50 0 empty empty 3 0 -10 0 12 #feffc6 #000000 #000000;
#X obj 203 471 bng 19 250 50 0 empty empty 2 0 -10 0 12 #feffc6 #000000 #000000;
#X obj 164 471 bng 19 250 50 0 empty empty 1 0 -10 0 12 #feffc6 #000000 #000000;
#X obj 125 471 bng 19 250 50 0 empty empty 0 0 -10 0 12 #feffc6 #000000 #000000;
#X obj 281 471 bng 19 250 50 0 empty empty 4 0 -10 0 12 #feffc6 #000000 #000000;
#X obj 320 471 bng 19 250 50 0 empty empty 5 0 -10 0 12 #feffc6 #000000 #000000;
#X text 124 513 MODE_SERIAL_DEBUG 0 // useful only for serial output checks \; MODE_SERIAL_DEBUG_RAW 1 // useful only for \; MODE_RAW 2 // works for midi \; MODE_NORMALISED 3 // works for midi and osc \; MODE_RAW_PLUS_NORMALISED 4 // only works on osc \; MIDI_CONTROL_DEBUG 5 \; TOUCH_PLAY 6 \;, f 61;
#X obj 360 471 bng 19 250 50 0 empty empty 6 0 -10 0 12 #feffc6 #000000 #000000;
#N canvas 34 78 1631 986 setmode 0;
#X msg 185 208 0;
#X msg 225 208 1;
#X msg 265 208 2;
#X msg 305 208 3;
#X msg 345 208 4;
#X msg 384 208 5;
#X msg 416 208 6;
#X obj 184 370 s sendOSC;
#X listbox 184 279 20 0 0 0 - - - 0;
#X obj 184 304 pack s f;
#X obj 278 352 print;
#X msg 184 340 \$1 \$2;
#X obj 184 251 makefilename /setMode;
#X obj 184 156 inlet;
#X obj 226 161 inlet;
#X obj 269 166 inlet;
#X obj 311 172 inlet;
#X obj 355 174 inlet;
#X obj 397 175 inlet;
#X obj 439 179 inlet;
#X connect 0 0 9 1;
#X connect 0 0 12 0;
#X connect 1 0 9 1;
#X connect 1 0 12 0;
#X connect 2 0 9 1;
#X connect 2 0 12 0;
#X connect 3 0 9 1;
#X connect 3 0 12 0;
#X connect 4 0 9 1;
#X connect 4 0 12 0;
#X connect 5 0 9 1;
#X connect 5 0 12 0;
#X connect 6 0 9 1;
#X connect 6 0 12 0;
#X connect 8 0 9 0;
#X connect 9 0 11 0;
#X connect 11 0 7 0;
#X connect 11 0 10 0;
#X connect 12 0 8 0;
#X connect 13 0 0 0;
#X connect 14 0 1 0;
#X connect 15 0 2 0;
#X connect 16 0 3 0;
#X connect 17 0 4 0;
#X connect 18 0 5 0;
#X connect 19 0 6 0;
#X restore 125 491 pd setmode;
#X f 34;
#X obj 593 422 bng 19 250 50 0 setmode0 empty 0\ SERIAL\ DEBUG 25 11 0 12 #ffe3c6 #000000 #000000;
#X text 591 394 SET MODE;
#X obj 593 443 bng 19 250 50 0 setmode1 empty 1\ SERIAL\ RAW 25 11 0 12 #ffe3c6 #000000 #000000;
#X obj 593 464 bng 19 250 50 0 setmode2 empty 2\ RAW 25 11 0 12 #feffc6 #000000 #000000;
#X obj 593 485 bng 19 250 50 0 setmode3 empty 3\ NORMALISED 25 11 0 12 #faff00 #000000 #000000;
#X obj 593 507 bng 19 250 50 0 setmode4 empty 4\ RAW\ +\ NORM 25 11 0 12 #faff00 #000000 #000000;
#X obj 593 528 bng 19 250 50 0 setmode5 empty 5\ PLAY 25 11 0 12 #c6feff #000000 #000000;
#X obj 125 391 r setmode0;
#X obj 163 410 r setmode1;
#X obj 204 427 r setmode2;
#X obj 242 388 r setmode3;
#X obj 280 407 r setmode4;
#X obj 321 424 r setmode5;
#X obj 129 37 r calibrate;
#X obj 394 38 bng 30 250 50 0 calibrate empty CALIBRATE 40 15 0 12 #ff0400 #000000 #000000;
#X obj 129 61 bng 19 250 50 0 empty empty empty 0 -10 0 12 #fcfcfc #000000 #000000;
#X obj 327 259 s cal;
#X msg 125 241 hard;
#X msg 165 241 soft;
#X msg 205 241 belo;
#X msg 245 241 behi;
#X obj 240 301 r cal;
#X obj 125 301 r keylist;
#X msg 285 241 loHS;
#X obj 245 218 bng 19 250 50 0 empty empty empty 0 -10 0 12 #fcfcfc #000000 #000000;
#X obj 205 218 bng 19 250 50 0 empty empty empty 0 -10 0 12 #fcfcfc #000000 #000000;
#X obj 165 218 bng 19 250 50 0 empty empty empty 0 -10 0 12 #fcfcfc #000000 #000000;
#X obj 125 218 bng 19 250 50 0 empty empty empty 0 -10 0 12 #fcfcfc #000000 #000000;
#X obj 285 218 bng 19 250 50 0 empty empty empty 0 -10 0 12 #fcfcfc #000000 #000000;
#X msg 125 280 list 0 \, 1 \, 2 \, 3 \, 4 \, 5 \, 6 \, 7;
#N canvas 34 78 1711 1135 calibrate-keys 0;
#X obj 100 90 inlet;
#X obj 160 90 inlet;
#X text 100 60 key#;
#X text 160 60 value;
#X obj 280 90 inlet;
#X obj 100 370 s sendOSC;
#X text 270 60 type: Hard Soft BendLO BendHI;
#X obj 310 130 symbol;
#X symbolatom 280 200 17 0 0 0 - - - 0;
#X floatatom 90 130 5 0 0 0 - - - 0;
#X msg 100 330 \$2 \$1;
#X msg 180 330 \$2 \$3 \$1;
#X floatatom 180 140 5 0 0 0 - - - 0;
#X obj 180 290 pack f s f;
#X obj 100 290 pack f s;
#X msg 530 90 behi;
#X msg 460 90 belo;
#X msg 400 90 soft;
#X msg 340 90 hard;
#X obj 280 160 makefilename /setKey/%s;
#X connect 0 0 13 2;
#X connect 0 0 14 0;
#X connect 1 0 13 0;
#X connect 4 0 7 0;
#X connect 7 0 19 0;
#X connect 8 0 13 1;
#X connect 8 0 14 1;
#X connect 9 0 14 0;
#X connect 9 0 13 2;
#X connect 10 0 5 0;
#X connect 11 0 5 0;
#X connect 12 0 13 0;
#X connect 13 0 11 0;
#X connect 14 0 10 0;
#X connect 15 0 7 0;
#X connect 16 0 7 0;
#X connect 17 0 7 0;
#X connect 18 0 7 0;
#X connect 19 0 8 0;
#X restore 124 331 pd calibrate-keys;
#X obj 400 235 bng 30 250 50 0 behi empty UNFOLDED 40 15 0 12 #faff00 #000000 #000000;
#X obj 400 201 bng 30 250 50 0 belo empty FOLDED 40 15 0 12 #feffc6 #000000 #000000;
#X obj 205 192 r belo;
#X obj 254 193 r behi;
#X obj 553 58 r calibrate;
#X obj 553 145 s MPRA;
#X obj 636 145 s MPRB;
#X obj 719 144 s MPRC;
#X obj 802 144 s MPRD;
#X obj 907 61 r mpr;
#X obj 908 151 s MPRA;
#X obj 941 174 s MPRB;
#X obj 976 195 s MPRC;
#X obj 1010 216 s MPRD;
#X text 552 35 reset mpr outputs;
#X text 904 35 mpr output feedback;
#X msg 553 93 0;
#X obj 246 69 route calibrated usePanelGroups, f 18;
#X obj 908 118 route A B C D;
#X connect 0 0 1 0;
#X connect 2 0 4 0;
#X connect 3 0 63 0;
#X connect 6 0 14 3;
#X connect 7 0 14 2;
#X connect 8 0 14 1;
#X connect 9 0 14 0;
#X connect 10 0 14 4;
#X connect 11 0 14 5;
#X connect 13 0 14 6;
#X connect 22 0 9 0;
#X connect 23 0 8 0;
#X connect 24 0 7 0;
#X connect 25 0 6 0;
#X connect 26 0 10 0;
#X connect 27 0 11 0;
#X connect 28 0 30 0;
#X connect 30 0 0 0;
#X connect 32 0 31 0;
#X connect 32 0 44 0;
#X connect 33 0 31 0;
#X connect 33 0 44 0;
#X connect 34 0 31 0;
#X connect 34 0 44 0;
#X connect 35 0 31 0;
#X connect 35 0 44 0;
#X connect 36 0 45 2;
#X connect 37 0 45 0;
#X connect 38 0 31 0;
#X connect 38 0 44 0;
#X connect 39 0 35 0;
#X connect 40 0 34 0;
#X connect 41 0 33 0;
#X connect 42 0 32 0;
#X connect 43 0 38 0;
#X connect 44 0 45 0;
#X connect 48 0 40 0;
#X connect 49 0 39 0;
#X connect 50 0 62 0;
#X connect 55 0 64 0;
#X connect 62 0 51 0;
#X connect 62 0 54 0;
#X connect 62 0 53 0;
#X connect 62 0 52 0;
#X connect 63 0 4 0;
#X connect 63 1 5 0;
#X connect 64 0 56 0;
#X connect 64 1 57 0;
#X connect 64 2 58 0;
#X connect 64 3 59 0;
#X restore 1116 88 pd calibrate;
#N canvas 34 77 1015 429 midimix 0;
#X obj 84 97 inlet;
#X obj 187 95 inlet;
#X obj 98 119 bng 19 250 50 0 empty empty empty 0 -10 0 12 #fcfcfc #000000 #000000;
#X obj 55 227 tgl 19 0 empty empty empty 0 -10 0 12 #fcfcfc #000000 #000000 0 1;
#X obj 55 252 s midiON;
#X obj 98 141 tgl 19 0 empty empty empty 0 -10 0 12 #fcfcfc #000000 #000000 0 1;
#X obj 207 117 bng 19 250 50 0 empty empty empty 0 -10 0 12 #fcfcfc #000000 #000000;
#X obj 207 139 tgl 19 0 empty empty empty 0 -10 0 12 #fcfcfc #000000 #000000 0 1;
#X obj 284 95 inlet;
#X obj 305 117 bng 19 250 50 0 empty empty empty 0 -10 0 12 #fcfcfc #000000 #000000;
#X obj 305 139 tgl 19 0 empty empty empty 0 -10 0 12 #fcfcfc #000000 #000000 0 1;
#X obj 384 95 inlet;
#X obj 404 117 bng 19 250 50 0 empty empty empty 0 -10 0 12 #fcfcfc #000000 #000000;
#X obj 404 139 tgl 19 0 empty empty empty 0 -10 0 12 #fcfcfc #000000 #000000 0 1;
#X obj 477 96 inlet;
#X obj 499 118 bng 19 250 50 0 empty empty empty 0 -10 0 12 #fcfcfc #000000 #000000;
#X obj 499 140 tgl 19 0 empty empty empty 0 -10 0 12 #fcfcfc #000000 #000000 0 1;
#X obj 579 95 inlet;
#X obj 599 117 bng 19 250 50 0 empty empty empty 0 -10 0 12 #fcfcfc #000000 #000000;
#X obj 599 139 tgl 19 0 empty empty empty 0 -10 0 12 #fcfcfc #000000 #000000 0 1;
#X obj 684 94 inlet;
#X obj 705 116 bng 19 250 50 0 empty empty empty 0 -10 0 12 #fcfcfc #000000 #000000;
#X obj 705 138 tgl 19 0 empty empty empty 0 -10 0 12 #fcfcfc #000000 #000000 0 1;
#X obj 793 94 inlet;
#X obj 812 116 bng 19 250 50 0 empty empty empty 0 -10 0 12 #fcfcfc #000000 #000000;
#X obj 812 138 tgl 19 0 empty empty empty 0 -10 0 12 #fcfcfc #000000 #000000 0 1;
#X msg 207 162 \$1 45;
#X msg 306 164 \$1 37;
#X msg 704 161 \$1 28;
#X msg 812 161 \$1 64;
#X msg 498 163 \$1 81;
#X msg 598 162 \$1 88;
#X msg 97 163 \$1 40;
#X obj 63 51 loadbang;
#X msg 404 161 \$1 52;
#X obj 97 185 lib/playmidi;
#X obj 207 185 lib/playmidi;
#X obj 306 185 lib/playmidi;
#X obj 403 185 lib/playmidi;
#X obj 498 185 lib/playmidi;
#X obj 598 185 lib/playmidi;
#X obj 704 185 lib/playmidi;
#X obj 812 185 lib/playmidi;
#X connect 0 0 32 0;
#X connect 1 0 26 0;
#X connect 2 0 5 0;
#X connect 3 0 4 0;
#X connect 5 0 32 0;
#X connect 6 0 7 0;
#X connect 7 0 26 0;
#X connect 8 0 27 0;
#X connect 9 0 10 0;
#X connect 10 0 27 0;
#X connect 11 0 34 0;
#X connect 12 0 13 0;
#X connect 13 0 34 0;
#X connect 14 0 30 0;
#X connect 15 0 16 0;
#X connect 16 0 30 0;
#X connect 17 0 31 0;
#X connect 18 0 19 0;
#X connect 19 0 31 0;
#X connect 20 0 28 0;
#X connect 21 0 22 0;
#X connect 22 0 28 0;
#X connect 23 0 29 0;
#X connect 24 0 25 0;
#X connect 25 0 29 0;
#X connect 26 0 36 0;
#X connect 27 0 37 0;
#X connect 28 0 41 0;
#X connect 29 0 42 0;
#X connect 30 0 39 0;
#X connect 31 0 40 0;
#X connect 32 0 35 0;
#X connect 33 0 2 0;
#X connect 34 0 38 0;
#X restore 454 320 pd midimix;
#X f 19;
#N canvas 33 77 1028 366 controllers 0;
#X obj 656 100 inlet;
#X obj 760 100 inlet;
#X msg 656 123 \$1 106;
#X msg 760 123 \$1 107;
#X obj 445 100 inlet;
#X obj 549 100 inlet;
#X obj 249 100 inlet;
#X obj 344 100 inlet;
#X obj 60 100 inlet;
#X obj 153 100 inlet;
#X msg 60 123 \$1 100;
#X msg 153 123 \$1 101;
#X msg 249 123 \$1 102;
#X msg 344 123 \$1 103;
#X msg 445 123 \$1 104;
#X msg 549 123 \$1 105;
#X obj 828 76 tgl 19 0 empty empty isolate 0 -10 0 12 #fcfcfc #000000 #000000 0 1;
#X obj 724 75 tgl 19 0 empty empty isolate 0 -10 0 12 #fcfcfc #000000 #000000 0 1;
#X obj 617 75 tgl 19 0 empty empty isolate 0 -10 0 12 #fcfcfc #000000 #000000 0 1;
#X obj 513 75 tgl 19 0 empty empty isolate 0 -10 0 12 #fcfcfc #000000 #000000 0 1;
#X obj 412 75 tgl 19 0 empty empty isolate 0 -10 0 12 #fcfcfc #000000 #000000 0 1;
#X obj 317 76 tgl 19 0 empty empty isolate 0 -10 0 12 #fcfcfc #000000 #000000 0 1;
#X obj 221 74 tgl 19 0 empty empty isolate 0 -10 0 12 #fcfcfc #000000 #000000 0 1;
#X obj 127 75 tgl 19 0 empty empty isolate 0 -10 0 12 #fcfcfc #000000 #000000 0 1;
#X obj 59 146 lib/ctlmidi;
#X obj 153 145 lib/ctlmidi;
#X obj 249 147 lib/ctlmidi;
#X obj 344 146 lib/ctlmidi;
#X obj 445 146 lib/ctlmidi;
#X obj 549 146 lib/ctlmidi;
#X obj 656 146 lib/ctlmidi;
#X obj 760 147 lib/ctlmidi;
#X connect 0 0 2 0;
#X connect 1 0 3 0;
#X connect 2 0 30 0;
#X connect 3 0 31 0;
#X connect 4 0 14 0;
#X connect 5 0 15 0;
#X connect 6 0 12 0;
#X connect 7 0 13 0;
#X connect 8 0 10 0;
#X connect 9 0 11 0;
#X connect 10 0 24 0;
#X connect 11 0 25 0;
#X connect 12 0 26 0;
#X connect 13 0 27 0;
#X connect 14 0 28 0;
#X connect 15 0 29 0;
#X connect 16 0 31 1;
#X connect 17 0 30 1;
#X connect 18 0 29 1;
#X connect 19 0 28 1;
#X connect 20 0 27 1;
#X connect 21 0 26 1;
#X connect 22 0 25 1;
#X connect 23 0 24 1;
#X restore 94 320 pd controllers;
#X obj 690 246 cnv 19 400 80 empty empty empty 20 12 0 12 #feffc6 #404040 0;
#X obj 703 257 tgl 20 0 dspON empty DSP\ on/off 25 12 0 12 #faff00 #000000 #000000 0 1;
#X obj 690 222 cnv 20 400 20 empty empty empty 20 12 0 16 #faff00 #404040 0;
#X text 700 222 AUDIO SETUP;
#X obj 847 258 bng 20 250 50 0 loadaudio empty load\ audio 25 11 0 12 #faff00 #000000 #535512;
#N canvas 34 77 1508 665 audiomixer 0;
#X obj 386 332 *~;
#X obj 386 356 dac~ 2;
#X obj 386 272 r startaudio;
#X obj 492 272 r stopaudio;
#X obj 379 477 *~;
#X obj 379 501 dac~ 2;
#X obj 379 417 r startaudio;
#X obj 485 417 r stopaudio;
#X obj 376 609 *~;
#X obj 376 633 dac~ 2;
#X obj 376 549 r startaudio;
#X obj 482 549 r stopaudio;
#X obj 996 149 *~;
#X obj 996 173 dac~ 2;
#X obj 996 89 r startaudio;
#X obj 1102 89 r stopaudio;
#X obj 370 747 *~;
#X obj 370 771 dac~ 2;
#X obj 370 687 r startaudio;
#X obj 476 687 r stopaudio;
#X obj 992 298 *~;
#X obj 992 322 dac~ 2;
#X obj 992 238 r startaudio;
#X obj 1098 238 r stopaudio;
#X obj 991 440 *~;
#X obj 991 464 dac~ 2;
#X obj 991 380 r startaudio;
#X obj 1097 380 r stopaudio;
#X obj 390 153 *~;
#X obj 390 124 tabplay~ audio1_R;
#X obj 390 177 dac~ 2;
#X obj 390 93 r startaudio;
#X obj 496 93 r stopaudio;
#X obj 386 303 tabplay~ audio2_R;
#X obj 379 448 tabplay~ audio3_R;
#X obj 376 580 tabplay~ audio4_R;
#X obj 370 718 tabplay~ audio5_R;
#X obj 996 120 tabplay~ audio6_R;
#X obj 992 269 tabplay~ audio7_R;
#X obj 991 411 tabplay~ audio8_R;
#X obj 516 125 r vR1;
#X obj 512 304 r vR2;
#X obj 505 449 r vR3;
#X obj 502 581 r vR4;
#X obj 496 719 r vR5;
#X obj 1122 121 r vR6;
#X obj 1118 270 r vR7;
#X obj 1117 412 r vR8;
#X obj 87 336 *~;
#X obj 87 276 r startaudio;
#X obj 193 276 r stopaudio;
#X obj 85 475 *~;
#X obj 85 415 r startaudio;
#X obj 191 415 r stopaudio;
#X obj 83 614 *~;
#X obj 83 554 r startaudio;
#X obj 189 554 r stopaudio;
#X obj 709 146 *~;
#X obj 709 86 r startaudio;
#X obj 815 86 r stopaudio;
#X obj 84 744 *~;
#X obj 84 684 r startaudio;
#X obj 190 684 r stopaudio;
#X obj 706 296 *~;
#X obj 706 236 r startaudio;
#X obj 812 236 r stopaudio;
#X obj 708 442 *~;
#X obj 708 382 r startaudio;
#X obj 814 382 r stopaudio;
#X obj 89 191 *~;
#X obj 90 77 r startaudio;
#X obj 186 77 r stopaudio;
#X obj 212 98 r vL1;
#X obj 89 215 dac~ 1;
#X obj 84 768 dac~ 1;
#X obj 87 360 dac~ 1;
#X obj 709 170 dac~ 1;
#X obj 85 499 dac~ 1;
#X obj 706 320 dac~ 1;
#X obj 83 638 dac~ 1;
#X obj 708 466 dac~ 1;
#X obj 89 142 tabplay~ audio1_L;
#X obj 87 307 tabplay~ audio2_L;
#X obj 85 446 tabplay~ audio3_L;
#X obj 83 585 tabplay~ audio4_L;
#X obj 84 715 tabplay~ audio5_L;
#X obj 709 117 tabplay~ audio6_L;
#X obj 706 267 tabplay~ audio7_L;
#X obj 708 413 tabplay~ audio8_L;
#X obj 224 313 r vL2;
#X obj 211 447 r vL3;
#X obj 209 586 r vL4;
#X obj 834 414 r vL8;
#X obj 832 268 r vL7;
#X obj 835 118 r vL6;
#X obj 210 716 r vL5;
#X obj 203 184 s loop;
#X obj 36 38 r loop;
#X obj 52 148 bng 19 250 50 0 empty empty empty 0 -10 0 12 #fcfcfc #000000 #000000;
#X obj 212 144 vline~;
#X obj 212 121 pack \$1 \$2;
#X obj 279 95 r ramptime;
#X obj 224 360 vline~;
#X obj 224 337 pack \$1 \$2;
#X obj 291 311 r ramptime;
#X obj 212 493 vline~;
#X obj 212 470 pack \$1 \$2;
#X obj 279 444 r ramptime;
#X obj 208 640 vline~;
#X obj 208 617 pack \$1 \$2;
#X obj 275 591 r ramptime;
#X obj 205 765 vline~;
#X obj 205 742 pack \$1 \$2;
#X obj 272 716 r ramptime;
#X obj 833 169 vline~;
#X obj 833 146 pack \$1 \$2;
#X obj 900 120 r ramptime;
#X obj 833 319 vline~;
#X obj 833 296 pack \$1 \$2;
#X obj 900 270 r ramptime;
#X obj 833 465 vline~;
#X obj 833 442 pack \$1 \$2;
#X obj 900 416 r ramptime;
#X obj 512 173 vline~;
#X obj 512 150 pack \$1 \$2;
#X obj 579 124 r ramptime;
#X obj 511 351 vline~;
#X obj 511 328 pack \$1 \$2;
#X obj 578 302 r ramptime;
#X obj 502 499 vline~;
#X obj 502 476 pack \$1 \$2;
#X obj 569 450 r ramptime;
#X obj 500 627 vline~;
#X obj 500 604 pack \$1 \$2;
#X obj 567 578 r ramptime;
#X obj 493 767 vline~;
#X obj 493 744 pack \$1 \$2;
#X obj 560 718 r ramptime;
#X obj 1117 173 vline~;
#X obj 1117 150 pack \$1 \$2;
#X obj 1184 124 r ramptime;
#X obj 1117 321 vline~;
#X obj 1117 298 pack \$1 \$2;
#X obj 1184 272 r ramptime;
#X obj 1115 466 vline~;
#X obj 1115 443 pack \$1 \$2;
#X obj 1182 417 r ramptime;
#X obj 990 712 *~;
#X obj 990 736 dac~ 2;
#X obj 990 652 r startaudio;
#X obj 1096 652 r stopaudio;
#X obj 699 717 *~;
#X obj 699 741 dac~ 2;
#X obj 699 657 r startaudio;
#X obj 805 657 r stopaudio;
#X obj 702 524 r startaudio;
#X obj 808 524 r stopaudio;
#X obj 990 583 *~;
#X obj 990 523 r startaudio;
#X obj 1096 523 r stopaudio;
#X obj 702 608 dac~ 1;
#X obj 990 607 dac~ 1;
#X obj 827 610 vline~;
#X obj 827 587 pack \$1 \$2;
#X obj 894 561 r ramptime;
#X obj 1115 606 vline~;
#X obj 1115 583 pack \$1 \$2;
#X obj 1182 557 r ramptime;
#X obj 1124 730 vline~;
#X obj 1124 707 pack \$1 \$2;
#X obj 1191 681 r ramptime;
#X obj 833 743 vline~;
#X obj 833 720 pack \$1 \$2;
#X obj 900 694 r ramptime;
#X obj 828 556 r vL9;
#X obj 702 555 tabplay~ audio9_L;
#X obj 990 554 tabplay~ audio9_L;
#X obj 990 683 tabplay~ audio10_R;
#X obj 702 580 *~;
#X obj 696 785 r startaudio;
#X obj 802 785 r stopaudio;
#X obj 696 869 dac~ 1;
#X obj 828 870 vline~;
#X obj 828 847 pack \$1 \$2;
#X obj 895 816 r ramptime;
#X obj 696 841 *~;
#X obj 696 816 tabplay~ audio11_L;
#X obj 829 816 r vL11;
#X obj 986 843 *~;
#X obj 986 867 dac~ 2;
#X obj 986 783 r startaudio;
#X obj 1092 783 r stopaudio;
#X obj 1120 869 vline~;
#X obj 1120 846 pack \$1 \$2;
#X obj 1187 820 r ramptime;
#X obj 672 45 r loop;
#X obj 986 814 tabplay~ audio11_R;
#X obj 1123 815 r vR11;
#X obj 699 688 tabplay~ audio10_L;
#X obj 835 689 r vL10;
#X obj 953 36 r loop;
#X obj 369 40 r loop;
#X obj 1126 684 r vR10;
#X obj 1116 555 r vR9;
#X text 1331 48 DSP on/off;
#X msg 1345 70 \; pd dsp \$1;
#X obj 1308 48 tgl 19 0 empty dspON empty 17 7 0 10 #faff00 #000000 #000000 0 1;
#X obj 1308 122 s ramptime;
#X obj 1308 73 bng 19 250 50 0 empty empty empty 0 -10 0 12 #fcfcfc #000000 #000000;
#X msg 1308 98 50;
#X obj 1305 214 r audiostop;
#X msg 1305 239 stop;
#X obj 1305 263 s stopaudio;
#X obj 123 106 print;
#X obj 1305 316 loadbang;
#X obj 1379 402 s mixnumber;
#X msg 1379 364 1;
#X msg 1305 362 0;
#X obj 1305 402 s invert;
#X connect 0 0 1 0;
#X connect 2 0 33 0;
#X connect 3 0 33 0;
#X connect 4 0 5 0;
#X connect 6 0 34 0;
#X connect 7 0 34 0;
#X connect 8 0 9 0;
#X connect 10 0 35 0;
#X connect 11 0 35 0;
#X connect 12 0 13 0;
#X connect 14 0 37 0;
#X connect 15 0 37 0;
#X connect 16 0 17 0;
#X connect 18 0 36 0;
#X connect 19 0 36 0;
#X connect 20 0 21 0;
#X connect 22 0 38 0;
#X connect 23 0 38 0;
#X connect 24 0 25 0;
#X connect 26 0 39 0;
#X connect 27 0 39 0;
#X connect 28 0 30 0;
#X connect 29 0 28 0;
#X connect 31 0 29 0;
#X connect 32 0 29 0;
#X connect 33 0 0 0;
#X connect 34 0 4 0;
#X connect 35 0 8 0;
#X connect 36 0 16 0;
#X connect 37 0 12 0;
#X connect 38 0 20 0;
#X connect 39 0 24 0;
#X connect 40 0 124 0;
#X connect 41 0 127 0;
#X connect 42 0 130 0;
#X connect 43 0 133 0;
#X connect 44 0 136 0;
#X connect 45 0 139 0;
#X connect 46 0 142 0;
#X connect 47 0 145 0;
#X connect 48 0 75 0;
#X connect 49 0 82 0;
#X connect 50 0 82 0;
#X connect 51 0 77 0;
#X connect 52 0 83 0;
#X connect 53 0 83 0;
#X connect 54 0 79 0;
#X connect 55 0 84 0;
#X connect 56 0 84 0;
#X connect 57 0 76 0;
#X connect 58 0 86 0;
#X connect 59 0 86 0;
#X connect 60 0 74 0;
#X connect 61 0 85 0;
#X connect 62 0 85 0;
#X connect 63 0 78 0;
#X connect 64 0 87 0;
#X connect 65 0 87 0;
#X connect 66 0 80 0;
#X connect 67 0 88 0;
#X connect 68 0 88 0;
#X connect 69 0 73 0;
#X connect 70 0 81 0;
#X connect 70 0 213 0;
#X connect 71 0 81 0;
#X connect 72 0 100 0;
#X connect 81 0 69 0;
#X connect 81 1 96 0;
#X connect 82 0 48 0;
#X connect 83 0 51 0;
#X connect 84 0 54 0;
#X connect 85 0 60 0;
#X connect 86 0 57 0;
#X connect 87 0 63 0;
#X connect 88 0 66 0;
#X connect 89 0 103 0;
#X connect 90 0 106 0;
#X connect 91 0 109 0;
#X connect 92 0 121 0;
#X connect 93 0 118 0;
#X connect 94 0 115 0;
#X connect 95 0 112 0;
#X connect 97 0 81 0;
#X connect 97 0 82 0;
#X connect 97 0 83 0;
#X connect 97 0 98 0;
#X connect 97 0 84 0;
#X connect 97 0 85 0;
#X connect 99 0 69 1;
#X connect 100 0 99 0;
#X connect 101 0 100 1;
#X connect 102 0 48 1;
#X connect 103 0 102 0;
#X connect 104 0 103 1;
#X connect 105 0 51 1;
#X connect 106 0 105 0;
#X connect 107 0 106 1;
#X connect 108 0 54 1;
#X connect 109 0 108 0;
#X connect 110 0 109 1;
#X connect 111 0 60 1;
#X connect 112 0 111 0;
#X connect 113 0 112 1;
#X connect 114 0 57 1;
#X connect 115 0 114 0;
#X connect 116 0 115 1;
#X connect 117 0 63 1;
#X connect 118 0 117 0;
#X connect 119 0 118 1;
#X connect 120 0 66 1;
#X connect 121 0 120 0;
#X connect 122 0 121 1;
#X connect 123 0 28 1;
#X connect 124 0 123 0;
#X connect 125 0 124 1;
#X connect 126 0 0 1;
#X connect 127 0 126 0;
#X connect 128 0 127 1;
#X connect 129 0 4 1;
#X connect 130 0 129 0;
#X connect 131 0 130 1;
#X connect 132 0 8 1;
#X connect 133 0 132 0;
#X connect 134 0 133 1;
#X connect 135 0 16 1;
#X connect 136 0 135 0;
#X connect 137 0 136 1;
#X connect 138 0 12 1;
#X connect 139 0 138 0;
#X connect 140 0 139 1;
#X connect 141 0 20 1;
#X connect 142 0 141 0;
#X connect 143 0 142 1;
#X connect 144 0 24 1;
#X connect 145 0 144 0;
#X connect 146 0 145 1;
#X connect 147 0 148 0;
#X connect 149 0 177 0;
#X connect 150 0 177 0;
#X connect 151 0 152 0;
#X connect 153 0 198 0;
#X connect 154 0 198 0;
#X connect 155 0 175 0;
#X connect 156 0 175 0;
#X connect 157 0 161 0;
#X connect 158 0 176 0;
#X connect 159 0 176 0;
#X connect 162 0 178 1;
#X connect 163 0 162 0;
#X connect 164 0 163 1;
#X connect 165 0 157 1;
#X connect 166 0 165 0;
#X connect 167 0 166 1;
#X connect 168 0 147 1;
#X connect 169 0 168 0;
#X connect 170 0 169 1;
#X connect 171 0 151 1;
#X connect 172 0 171 0;
#X connect 173 0 172 1;
#X connect 174 0 163 0;
#X connect 175 0 178 0;
#X connect 176 0 157 0;
#X connect 177 0 147 0;
#X connect 178 0 160 0;
#X connect 179 0 186 0;
#X connect 180 0 186 0;
#X connect 182 0 185 1;
#X connect 183 0 182 0;
#X connect 184 0 183 1;
#X connect 185 0 181 0;
#X connect 186 0 185 0;
#X connect 187 0 183 0;
#X connect 188 0 189 0;
#X connect 190 0 196 0;
#X connect 191 0 196 0;
#X connect 192 0 188 1;
#X connect 193 0 192 0;
#X connect 194 0 193 1;
#X connect 195 0 186 0;
#X connect 195 0 86 0;
#X connect 195 0 87 0;
#X connect 195 0 88 0;
#X connect 195 0 175 0;
#X connect 195 0 198 0;
#X connect 196 0 188 0;
#X connect 197 0 193 0;
#X connect 198 0 151 0;
#X connect 199 0 172 0;
#X connect 200 0 37 0;
#X connect 200 0 38 0;
#X connect 200 0 39 0;
#X connect 200 0 176 0;
#X connect 200 0 177 0;
#X connect 200 0 196 0;
#X connect 201 0 29 0;
#X connect 201 0 34 0;
#X connect 201 0 35 0;
#X connect 201 0 36 0;
#X connect 201 0 33 0;
#X connect 202 0 169 0;
#X connect 203 0 166 0;
#X connect 206 0 205 0;
#X connect 206 0 208 0;
#X connect 208 0 209 0;
#X connect 209 0 207 0;
#X connect 210 0 211 0;
#X connect 211 0 212 0;
#X connect 214 0 216 0;
#X connect 214 0 217 0;
#X connect 216 0 215 0;
#X connect 217 0 218 0;
#X restore 994 222 pd audiomixer;
#X obj 847 283 tgl 20 0 invert empty invert 25 12 0 12 #ffffff #000000 #000000 0 1;
#X obj 690 63 cnv 19 400 150 empty empty empty 20 12 0 12 #ffc7c6 #404040 0;
#X obj 690 41 cnv 20 400 20 empty empty empty 20 12 0 16 #ff0400 #404040 0;
#X obj 955 73 bng 19 250 50 0 setmode0 empty 0\ SERIAL\ DEBUG 25 11 0 12 #ffe3c6 #000000 #000000;
#X text 953 43 SET MODE;
#X obj 955 94 bng 19 250 50 0 setmode1 empty 1\ SERIAL\ RAW 25 11 0 12 #ffe3c6 #000000 #000000;
#X obj 955 115 bng 19 250 50 0 setmode2 empty 2\ RAW 25 11 0 12 #feffc6 #000000 #000000;
#X obj 955 136 bng 19 250 50 0 setmode3 empty 3\ NORMALISED 25 11 0 12 #faff00 #000000 #000000;
#X obj 955 158 bng 19 250 50 0 setmode4 empty 4\ RAW\ +\ NORM 25 11 0 12 #faff00 #000000 #000000;
#X obj 955 179 bng 19 250 50 0 setmode5 empty 5\ PLAY 25 11 0 12 #c6feff #000000 #000000;
#X obj 704 144 bng 30 250 50 0 behi empty UNFOLDED 40 15 0 12 #faff00 #000000 #000000;
#X obj 704 110 bng 30 250 50 0 belo empty FOLDED 40 15 0 12 #feffc6 #000000 #000000;
#X obj 704 76 bng 30 250 50 0 calibrate empty CALIBRATE 40 15 0 12 #ff0400 #000000 #000000;
#X obj 824 71 tgl 20 0 empty MPRA MPR-A\ STATUS 25 15 0 12 #dfdfdf #000000 #000000 0 1;
#X obj 824 95 tgl 20 0 empty MPRB MPR-B\ STATUS 25 15 0 12 #dfdfdf #000000 #000000 0 1;
#X obj 824 119 tgl 20 0 empty MPRC MPR-C\ STATUS 25 15 0 12 #dfdfdf #000000 #000000 0 1;
#X obj 824 143 tgl 20 0 empty MPRD MPR-D\ STATUS 25 15 0 12 #dfdfdf #000000 #000000 0 1;
#X obj 959 258 bng 20 250 50 0 startaudio empty start\ audio 25 12 0 12 #faff00 #000000 #000000;
#X obj 959 283 bng 20 250 50 0 audiostop empty stop\ audio 25 12 0 12 #ffc7c6 #000000 #000000;
#X obj 691 354 cnv 19 400 150 empty empty empty 20 12 0 12 #c6feff #404040 0;
#X obj 691 332 cnv 20 400 20 empty empty empty 20 12 0 16 #00faff #404040 0;
#X text 708 384 1-4 (1-16 channels per port);
#X text 708 366 SELECT OUTBOUND MIDI PORT;
#X floatatom 1042 386 5 0 0 0 value midictlValue - 0;
#X floatatom 1042 365 5 0 0 0 ctl midictlNum - 0;
#X floatatom 1042 407 5 0 0 0 chan midictlChan - 0;
#X floatatom 1042 451 5 0 0 0 note\ vel midiNoteVelocity - 0;
#X floatatom 1042 430 5 0 0 0 note\ chan midiNoteChan - 0;
#X floatatom 1042 472 5 0 0 0 note midiNote - 0;
#X obj 755 426 bng 19 250 50 0 midiport3 empty 3 0 -10 0 12 #00faff #000000 #000000;
#X obj 733 426 bng 19 250 50 0 midiport2 empty 2 0 -10 0 12 #00faff #000000 #000000;
#X obj 711 426 bng 19 250 50 0 midiport1 empty 1 0 -10 0 12 #00faff #000000 #000000;
#X obj 778 426 bng 19 250 50 0 midiport4 empty 4 0 -10 0 12 #00faff #000000 #000000;
#X obj 836 425 tgl 19 0 midiON empty midiON 25 12 0 12 #00faff #000000 #000000 0 1;
#X floatatom 709 454 4 0 0 1 midi\ channel synth-channel - 12;
#N canvas 0 100 1215 771 midiport 0;
#X obj 72 163 * 16;
#X obj 184 164 s synth-channel;
#X msg 72 136 1;
#X msg 122 136 2;
#X msg 172 136 3;
#X floatatom 121 164 5 0 0 0 - - - 0;
#X msg 221 136 4;
#X obj 72 16 r midiport1;
#X obj 122 40 r midiport2;
#X obj 172 61 r midiport3;
#X obj 222 82 r midiport4;
#X connect 0 0 5 0;
#X connect 2 0 0 0;
#X connect 3 0 0 0;
#X connect 4 0 0 0;
#X connect 5 0 1 0;
#X connect 6 0 0 0;
#X connect 7 0 2 0;
#X connect 8 0 3 0;
#X connect 9 0 4 0;
#X connect 10 0 6 0;
#X restore 1010 332 pd midiport;
#X obj 691 532 cnv 19 400 30 empty empty empty 20 12 0 12 #c6ffc7 #404040 0;
#X obj 691 510 cnv 20 400 20 empty empty empty 20 12 0 16 #00ff04 #404040 0;
#X obj 700 538 bng 19 250 50 0 setmix1 empty 1 25 12 0 12 #00ff04 #000000 #000000;
#X obj 784 538 bng 19 250 50 0 setmix3 empty 3 25 12 0 12 #00ff04 #000000 #000000;
#X obj 741 538 bng 19 250 50 0 setmix2 empty 2 25 12 0 12 #00ff04 #000000 #000000;
#X obj 827 538 bng 19 250 50 0 setmix4 empty 4 25 12 0 12 #00ff04 #000000 #000000;
#X obj 871 538 bng 19 250 50 0 setmix5 empty 5 25 12 0 12 #00ff04 #000000 #000000;
#X obj 912 538 bng 19 250 50 0 setmix6 empty 6 25 12 0 12 #00ff04 #000000 #000000;
#X text 1119 434 midi ports \; preferences > midi \; start your synths first \; use multiple output devices \;;
#X obj 793 14 bng 20 250 50 0 usb empty USB\  28 12 0 12 #ffe3c6 #000000 #000000;
#X text 699 512 MIXES - set up mixes in oi/mix;
#X msg 310 198 60;
#X floatatom 703 285 5 0 0 1 ramptime - ramptime 0;
#X obj 1116 134 lib/samples;
#X obj 53 198 lib/volume;
#X obj 97 222 lib/playmidi;
#X obj 188 198 lib/volume;
#X obj 229 222 lib/midinote;
#X obj 396 198 lib/volume;
#X obj 437 222 lib/playmidi;
#X obj 571 222 lib/playmidi;
#X obj 612 198 lib/volume;
#X obj 530 198 lib/volume;
#X obj 233 320 lib/mix, f 25;
#X obj 55 546 lib/volume;
#X obj 189 546 lib/volume;
#X obj 401 546 lib/volume;
#X obj 535 546 lib/volume;
#X obj 575 570 lib/playmidi;
#X obj 443 570 lib/playmidi;
#X connect 0 0 1 0;
#X connect 3 0 54 0;
#X connect 4 0 36 0;
#X connect 5 0 49 0;
#X connect 14 0 55 0;
#X connect 15 0 37 0;
#X connect 16 0 48 0;
#X connect 17 0 52 0;
#X connect 18 0 38 0;
#X connect 19 0 50 0;
#X connect 20 0 53 0;
#X connect 21 0 39 0;
#X connect 22 0 51 0;
#X connect 23 0 56 0;
#X connect 24 0 40 0;
#X connect 25 0 45 0;
#X connect 26 0 57 0;
#X connect 27 0 41 0;
#X connect 28 0 44 0;
#X connect 29 0 58 0;
#X connect 30 0 42 0;
#X connect 31 0 46 0;
#X connect 32 0 59 0;
#X connect 33 0 43 0;
#X connect 34 0 47 0;
#X connect 37 0 135 0;
#X connect 39 0 138 0;
#X connect 51 0 139 0;
#X connect 52 0 136 0;
#X connect 53 0 140 0;
#X connect 54 0 132 0;
#X connect 55 0 134 0;
#X connect 56 0 142 0;
#X connect 57 0 143 0;
#X connect 58 0 144 0;
#X connect 59 0 145 0;
#X connect 60 0 141 0;
#X connect 61 0 141 1;
#X connect 62 0 141 2;
#X connect 63 0 141 3;
#X connect 65 0 141 4;
#X connect 66 0 141 5;
#X connect 67 0 141 6;
#X connect 68 0 141 7;
#X connect 129 0 135 1;
#X connect 132 0 60 0;
#X connect 134 0 61 0;
#X connect 136 0 62 0;
#X connect 139 0 141 11;
#X connect 140 0 63 0;
#X connect 142 0 65 0;
#X connect 143 0 66 0;
#X connect 144 0 67 0;
#X connect 145 0 68 0;
