#N canvas 107 226 1419 1015 12;
#X obj 468 230 ctlout;
#X obj 468 190 unpack, f 7;
#X obj 468 100 inlet;
#X obj 587 106 inlet;
#X obj 468 156 spigot;
#X obj 512 111 r midion;
#X obj 548 165 r synth-channel;
#X connect 1 0 0 0;
#X connect 1 1 0 1;
#X connect 2 0 4 0;
#X connect 3 0 4 1;
#X connect 4 0 1 0;
#X connect 5 0 4 1;
#X connect 6 0 0 2;
