#N canvas 0 121 1680 872 12;
#X obj 11 13 cnv 19 83 54 empty \$0-cnv 0 5 10 0 12 #c4d652 #404040 0;
#X obj 361 152 s \$0-cnv;
#X msg 361 116 label \$1;
#X obj 361 14 loadbang;
#X msg 431 14 bang;
#X obj 361 80 makefilename %d;
#X obj 32 28 tgl 19 0 \$0-d-out \$0-d-in empty 0 -10 0 12 #fcfcfc #000000 #000000 0 1;
#X obj 62 20 vsl 20 40 0 127 0 0 \$0-s-out \$0-s-in empty 0 -9 0 12 #fcfcfc #000000 #000000 0 1;
#X obj 189 45 r \$2\$1;
#X obj 138 79 route d s;
#X obj 168 109 s \$0-s-in;
#X obj 138 136 s \$0-d-in;
#X obj 138 45 inlet;
#X text 127 11 creation args: id recvname;
#X obj 137 236 outlet;
#X obj 137 202 r \$0-d-out;
#X obj 285 203 r \$0-s-out;
#X obj 285 236 outlet;
#X obj 361 50 f \$1;
#X msg 483 114 color 0 0;
#N canvas 195 619 342 368 colors 0;
#X obj 49 68 f \$1;
#X obj 49 37 loadbang;
#X obj 49 112 % 8;
#X floatatom 91 69 5 0 0 0 - - - 0;
#X obj 49 143 sel 0 1 2 3 4 5 6 7 8;
#X obj 49 286 symbol;
#X obj 49 319 outlet;
#X msg 75 208 #F9E872;
#X msg 92 230 #DE5A36;
#X msg 137 252 #EDAD80;
#X msg 179 184 #4DAAE8;
#X msg 207 208 #2B64AD;
#X msg 227 230 #DB4D94;
#X msg 254 252 #4A2D80;
#X msg 49 184 #C4D652;
#X connect 0 0 2 0;
#X connect 1 0 0 0;
#X connect 2 0 4 0;
#X connect 3 0 2 0;
#X connect 4 0 14 0;
#X connect 4 1 7 0;
#X connect 4 2 8 0;
#X connect 4 3 9 0;
#X connect 4 4 10 0;
#X connect 4 5 11 0;
#X connect 4 6 12 0;
#X connect 4 7 13 0;
#X connect 5 0 6 0;
#X connect 7 0 5 0;
#X connect 8 0 5 0;
#X connect 9 0 5 0;
#X connect 10 0 5 0;
#X connect 11 0 5 0;
#X connect 12 0 5 0;
#X connect 13 0 5 0;
#X connect 14 0 5 0;
#X restore 484 49 pd colors;
#X text 609 78 bg label;
#X text 558 114 clear;
#X msg 484 79 color \$1 #999;
#X connect 2 0 1 0;
#X connect 3 0 18 0;
#X connect 4 0 18 0;
#X connect 5 0 2 0;
#X connect 8 0 9 0;
#X connect 9 0 11 0;
#X connect 9 1 10 0;
#X connect 12 0 9 0;
#X connect 15 0 14 0;
#X connect 16 0 17 0;
#X connect 18 0 5 0;
#X connect 19 0 1 0;
#X connect 20 0 23 0;
#X connect 23 0 1 0;
#X coords 0 -1 1 1 85 60 2 10 10;
