#N canvas 0 121 1680 872 12;
#X obj 154 60 inlet;
#X obj 154 118 route d b s;
#X obj 152 214 tgl 20 0 empty empty empty 0 -10 0 12 #fcfcfc #000000 #000000 0 1;
#X obj 154 88 route \$1;
#X obj 152 154 vsl 55 55 0 127 0 0 empty empty empty 0 -9 0 12 #fbe973 #ffffff #000000 0 1;
#X obj 85 378 outlet;
#X obj 169 421 outlet;
#X obj 267 387 outlet;
#X msg 1088 23 #C4D652 \; #FBE973 \; #DE5A36 \; #EDAD80 \; #4DAAE8 \; #2B64AD \; #DB4D94 \; #4A2D80 \;, f 21;
#X obj 507 201 pack symbol symbol symbol;
#X msg 507 230 color \$1 \$2 \$3;
#X obj 507 38 f \$1;
#X obj 507 65 % 8;
#X obj 507 92 route 0 1 2 3 4 5 6 7, f 72;
#X obj 505 12 loadbang;
#X obj 177 214 hsl 28 20 0 127 0 0 empty empty empty -2 -10 0 12 #dfdfdf #000000 #000000 0 1;
#X msg 997 126 list #4A2D80 #FFFFFF #000000, f 7;
#X msg 927 126 list #DB4D94 #FFFFFF #000000, f 7;
#X msg 857 126 list #2B64AD #FFFFFF #000000, f 7;
#X msg 784 125 list #4DAAE8 #FFFFFF #000000, f 7;
#X msg 716 125 list #EDAD80 #FFFFFF #000000, f 7;
#X msg 647 126 list #DE5A36 #FFFFFF #000000, f 7;
#X msg 577 126 list #FBE973 #FFFFFF #000000, f 7;
#X msg 507 126 list #C4D652 #FFFFFF #000000, f 7;
#X obj 123 28 r \$2-oi;
#X connect 0 0 3 0;
#X connect 1 0 2 0;
#X connect 1 0 5 0;
#X connect 1 1 4 0;
#X connect 1 1 6 0;
#X connect 1 2 7 0;
#X connect 1 2 15 0;
#X connect 3 0 1 0;
#X connect 9 0 10 0;
#X connect 10 0 4 0;
#X connect 11 0 12 0;
#X connect 12 0 13 0;
#X connect 13 0 23 0;
#X connect 13 1 22 0;
#X connect 13 2 21 0;
#X connect 13 3 20 0;
#X connect 13 4 19 0;
#X connect 13 5 18 0;
#X connect 13 6 17 0;
#X connect 13 7 16 0;
#X connect 14 0 11 0;
#X connect 16 0 9 0;
#X connect 17 0 9 0;
#X connect 18 0 9 0;
#X connect 19 0 9 0;
#X connect 20 0 9 0;
#X connect 21 0 9 0;
#X connect 22 0 9 0;
#X connect 23 0 9 0;
#X connect 24 0 3 0;
#X coords 0 0 1 1 59 86 2 150 150;
