#N canvas 488 176 1686 844 12;
#X obj 443 115 route d b s;
#X obj 443 85 route \$1;
#X obj 442 56 r oi;
#N canvas 0 22 450 278 (subpatch) 0;
#X array \$0g 200 float 4;
#X coords 0 127 199 0 200 40 1 0 0;
#X restore 199 101 graph;
#X obj 615 46 tgl 19 0 empty startGraph empty 0 -10 0 12 #c6ffc7 #000000 #000000 0 1;
#X obj 626 108 f;
#X obj 668 107 + 1;
#X listbox 626 150 7 0 0 0 - - - 0;
#X obj 626 129 mod 200;
#X floatatom 590 405 5 0 0 0 - - - 0;
#X floatatom 650 405 5 0 0 0 - - - 0;
#X floatatom 682 502 5 0 0 0 - - - 0;
#X floatatom 763 502 5 0 0 0 - - - 0;
#X obj 563 477 tabwrite;
#X obj 590 355 bng 19 250 50 0 empty empty empty 0 -10 0 12 #fcfcfc #000000 #000000;
#X obj 682 478 array min;
#X msg 553 304 set \$1_min;
#X floatatom 669 442 5 0 0 0 - - - 0;
#X obj 714 403 bng 19 250 50 0 empty empty empty 0 -10 0 12 #fcfcfc #000000 #000000;
#X obj 590 380 array min;
#X obj 618 87 metro 10;
#X obj 665 21 r graphRate;
#X msg 735 108 200;
#X obj 199 79 cnv 19 198 20 empty empty empty 20 12 0 12 #ffffff #404040 0;
#X obj 467 199 tabwrite \$0g;
#X obj 596 9 inlet, f 6;
#X obj 432 334 outlet;
#X obj 793 171 route \$1;
#X obj 792 142 r oi;
#X obj 787 327 print b;
#X obj 897 155 r graphSymbol;
#X obj 1092 271 s graphSymbol;
#X obj 1171 151 bng 19 250 50 0 empty empty empty 0 -10 0 12 #fcfcfc #000000 #000000;
#X msg 1093 216 1;
#X obj 923 254 route s;
#X obj 859 255 route b;
#X obj 793 255 route d;
#X connect 0 2 24 0;
#X connect 0 2 26 0;
#X connect 1 0 0 0;
#X connect 2 0 1 0;
#X connect 4 0 20 0;
#X connect 5 0 6 0;
#X connect 5 0 8 0;
#X connect 6 0 5 1;
#X connect 7 0 24 1;
#X connect 8 0 7 0;
#X connect 9 0 13 0;
#X connect 14 0 17 0;
#X connect 14 0 19 0;
#X connect 15 0 11 0;
#X connect 15 1 12 0;
#X connect 16 0 13 0;
#X connect 16 0 14 0;
#X connect 17 0 13 1;
#X connect 18 0 17 0;
#X connect 19 0 9 0;
#X connect 19 1 10 0;
#X connect 20 0 5 0;
#X connect 21 0 20 1;
#X connect 22 0 8 1;
#X connect 25 0 4 0;
#X connect 27 0 36 0;
#X connect 28 0 27 0;
#X connect 32 0 33 0;
#X connect 33 0 31 0;
#X connect 36 0 29 0;
#X coords 0 0 1 1 300 42 1 100 100;
