#N canvas 713 107 505 286 10;
#X obj 303 65 loadbang;
#X obj 74 16 inlet;
#X obj 74 240 outlet;
#X obj 209 18 inlet;
#X msg 303 139 baud 115200;
#X obj 74 207 slip/slipdec 65536;
#X obj 74 43 slip/slipenc 65536;
#X obj 74 174 comport/comport;
#X msg 165 107 devicename /dev/tty.usbmodemMIDI1 \, pollintervall 1;
#X connect 0 0 8 0;
#X connect 0 0 4 0;
#X connect 1 0 6 0;
#X connect 3 0 7 0;
#X connect 4 0 7 0;
#X connect 5 0 2 0;
#X connect 6 0 7 0;
#X connect 7 0 5 0;
#X connect 8 0 7 0;
