#N canvas -14 54 1491 744 12;
#X obj 510 42 bng 19 250 50 0 empty empty 3 0 -10 0 12 #ffe3c6 #000000 #000000;
#X obj 471 42 bng 19 250 50 0 empty empty 2 0 -10 0 12 #faff00 #000000 #000000;
#X obj 432 42 bng 19 250 50 0 empty empty 1 0 -10 0 12 #feffc6 #000000 #000000;
#X obj 549 42 bng 19 250 50 0 empty empty 4 0 -10 0 12 #ff8300 #000000 #000000;
#X obj 588 42 bng 19 250 50 0 empty empty 5 0 -10 0 12 #ffc7c6 #000000 #000000;
#X obj 628 42 bng 19 250 50 0 empty empty 6 0 -10 0 12 #e3c6ff #000000 #000000;
#X obj 55 602 r mixnumber;
#X obj 244 631 s vR1;
#X obj 244 653 s vR2;
#X obj 244 675 s vR3;
#X obj 244 697 s vR4;
#X obj 244 719 s vR5;
#X obj 244 741 s vR6;
#X obj 193 631 s vL1;
#X obj 193 653 s vL2;
#X obj 193 675 s vL3;
#X obj 193 697 s vL4;
#X obj 192 719 s vL5;
#X obj 192 741 s vL6;
#X obj 192 762 s vL7;
#X obj 244 762 s vR7;
#X obj 192 783 s vL8;
#X obj 244 783 s vR8;
#X obj 192 804 s vL9;
#X obj 244 804 s vR9;
#X obj 153 602 r zero;
#X msg 55 628 0;
#X obj 55 652 s zero;
#X obj 244 826 s vR10;
#X obj 192 826 s vL10;
#X obj 192 848 s vL11;
#X obj 244 848 s vR11;
#X obj 31 246 cnv 30 2500 45 empty empty empty 20 12 0 16 #feffc6 #404040 0;
#X obj 30 292 cnv 30 2500 45 empty empty empty 20 12 0 16 #faff00 #404040 0;
#X obj 31 339 cnv 30 2500 45 empty empty empty 20 12 0 16 #ffe3c6 #404040 0;
#X obj 31 386 cnv 30 2500 45 empty empty empty 20 12 0 16 #ff8300 #404040 0;
#X obj 31 433 cnv 30 2500 45 empty empty empty 20 12 0 16 #ffc7c6 #404040 0;
#X obj 31 480 cnv 30 2500 45 empty empty empty 20 12 0 16 #e3c6ff #404040 0;
#X obj 64 127 inlet;
#X obj 247 129 inlet;
#X obj 468 127 inlet;
#X obj 665 121 inlet;
#X obj 858 124 inlet;
#X obj 1041 128 inlet;
#X obj 1226 124 inlet;
#X obj 1409 130 inlet;
#X floatatom 159 163 5 0 0 0 - - - 0;
#X obj 159 139 r mixnumber;
#N canvas -14 54 1491 744 setmix 1;
#X msg 225 208 1;
#X msg 265 208 2;
#X msg 305 208 3;
#X msg 345 208 4;
#X msg 384 208 5;
#X msg 416 208 6;
#X obj 226 161 inlet;
#X obj 269 166 inlet;
#X obj 311 172 inlet;
#X obj 355 174 inlet;
#X obj 397 175 inlet;
#X obj 439 179 inlet;
#X obj 184 370 s mixnumber;
#X connect 0 0 12 0;
#X connect 1 0 12 0;
#X connect 2 0 12 0;
#X connect 3 0 12 0;
#X connect 4 0 12 0;
#X connect 5 0 12 0;
#X connect 6 0 0 0;
#X connect 7 0 1 0;
#X connect 8 0 2 0;
#X connect 9 0 3 0;
#X connect 10 0 4 0;
#X connect 11 0 5 0;
#X restore 433 63 pd setmix;
#X f 28;
#X text 53 101 panel 1;
#X text 250 99 panel 2;
#X text 467 103 panel 3;
#X text 663 95 panel 4;
#X text 857 100 panel 5;
#X text 1040 104 panel 6;
#X text 1225 100 panel 7;
#X text 1408 106 panel 8;
#X obj 64 189 list prepend 0;
#X floatatom 64 247 5 0 0 0 - - - 0;
#X floatatom 83 294 5 0 0 0 - - - 0;
#X floatatom 102 342 5 0 0 0 - - - 0;
#X floatatom 123 387 5 0 0 0 - - - 0;
#X floatatom 142 436 5 0 0 0 - - - 0;
#X floatatom 161 482 5 0 0 0 - - - 0;
#X obj 123 410 s vL4;
#X obj 142 459 s vL5;
#X obj 64 215 route 1 2 3 4 5 6;
#X obj 161 505 s vL6;
#X floatatom 342 166 5 0 0 0 - - - 0;
#X obj 342 142 r mixnumber;
#X obj 247 192 list prepend 0;
#X floatatom 247 249 5 0 0 0 - - - 0;
#X floatatom 266 296 5 0 0 0 - - - 0;
#X floatatom 285 344 5 0 0 0 - - - 0;
#X floatatom 310 392 5 0 0 0 - - - 0;
#X floatatom 329 441 5 0 0 0 - - - 0;
#X floatatom 348 487 5 0 0 0 - - - 0;
#X obj 247 215 route 1 2 3 4 5 6;
#X obj 310 415 s vR4;
#X obj 329 464 s vR5;
#X obj 348 510 s vR6;
#X floatatom 562 171 5 0 0 0 - - - 0;
#X obj 562 147 r mixnumber;
#X obj 467 193 list prepend 0;
#X floatatom 467 247 5 0 0 0 - - - 0;
#X floatatom 486 297 5 0 0 0 - - - 0;
#X floatatom 505 342 5 0 0 0 - - - 0;
#X floatatom 526 388 5 0 0 0 - - - 0;
#X floatatom 545 435 5 0 0 0 - - - 0;
#X floatatom 564 481 5 0 0 0 - - - 0;
#X obj 467 217 route 1 2 3 4 5 6;
#X floatatom 760 172 5 0 0 0 - - - 0;
#X obj 760 148 r mixnumber;
#X obj 665 194 list prepend 0;
#X floatatom 665 248 5 0 0 0 - - - 0;
#X floatatom 684 298 5 0 0 0 - - - 0;
#X floatatom 703 346 5 0 0 0 - - - 0;
#X floatatom 727 388 5 0 0 0 - - - 0;
#X floatatom 746 433 5 0 0 0 - - - 0;
#X floatatom 765 481 5 0 0 0 - - - 0;
#X obj 665 218 route 1 2 3 4 5 6;
#X floatatom 953 177 5 0 0 0 - - - 0;
#X obj 953 153 r mixnumber;
#X obj 858 198 list prepend 0;
#X floatatom 858 253 5 0 0 0 - - - 0;
#X floatatom 877 299 5 0 0 0 - - - 0;
#X floatatom 896 342 5 0 0 0 - - - 0;
#X floatatom 917 387 5 0 0 0 - - - 0;
#X floatatom 936 434 5 0 0 0 - - - 0;
#X floatatom 955 480 5 0 0 0 - - - 0;
#X obj 877 322 s vL2;
#X obj 896 364 s vL3;
#X obj 917 410 s vL4;
#X obj 936 457 s vL5;
#X obj 858 222 route 1 2 3 4 5 6;
#X obj 955 503 s vL6;
#X floatatom 1136 174 5 0 0 0 - - - 0;
#X obj 1136 149 r mixnumber;
#X obj 1041 196 list prepend 0;
#X floatatom 1041 251 5 0 0 0 - - - 0;
#X floatatom 1060 296 5 0 0 0 - - - 0;
#X floatatom 1079 343 5 0 0 0 - - - 0;
#X floatatom 1099 388 5 0 0 0 - - - 0;
#X floatatom 1118 434 5 0 0 0 - - - 0;
#X floatatom 1137 481 5 0 0 0 - - - 0;
#X obj 1041 220 route 1 2 3 4 5 6;
#X obj 1060 319 s vR2;
#X obj 1079 365 s vR3;
#X obj 1099 411 s vR4;
#X obj 1118 457 s vR5;
#X obj 1137 504 s vR6;
#X floatatom 1321 167 5 0 0 0 - - - 0;
#X obj 1321 143 r mixnumber;
#X obj 1226 193 list prepend 0;
#X floatatom 1226 246 5 0 0 0 - - - 0;
#X floatatom 1245 294 5 0 0 0 - - - 0;
#X floatatom 1264 342 5 0 0 0 - - - 0;
#X floatatom 1284 388 5 0 0 0 - - - 0;
#X floatatom 1303 434 5 0 0 0 - - - 0;
#X floatatom 1322 481 5 0 0 0 - - - 0;
#X obj 1226 217 route 1 2 3 4 5 6;
#X floatatom 1504 167 5 0 0 0 - - - 0;
#X obj 1504 143 r mixnumber;
#X obj 1409 193 list prepend 0;
#X floatatom 1409 248 5 0 0 0 - - - 0;
#X floatatom 1428 295 5 0 0 0 - - - 0;
#X floatatom 1447 343 5 0 0 0 - - - 0;
#X floatatom 1467 389 5 0 0 0 - - - 0;
#X floatatom 1486 434 5 0 0 0 - - - 0;
#X floatatom 1505 482 5 0 0 0 - - - 0;
#X obj 1409 217 route 1 2 3 4 5 6;
#X text 47 270 1;
#X text 66 318 2;
#X text 85 365 3;
#X text 187 460 5;
#X text 206 507 6;
#X text 168 409 4;
#X text 228 272 1;
#X text 248 318 2;
#X text 267 368 3;
#X text 373 466 5;
#X text 392 513 6;
#X text 354 415 4;
#X text 450 271 1;
#X text 469 320 2;
#X text 488 366 3;
#X text 590 460 5;
#X text 609 507 6;
#X text 571 411 4;
#X text 646 269 1;
#X text 665 319 2;
#X text 684 367 3;
#X text 789 455 5;
#X text 808 504 6;
#X text 770 408 4;
#X text 843 252 1;
#X text 859 323 2;
#X text 878 367 3;
#X text 980 460 5;
#X text 999 507 6;
#X text 961 411 4;
#X text 1023 269 1;
#X text 1041 320 2;
#X text 1060 366 3;
#X text 1161 458 5;
#X text 1180 506 6;
#X text 1142 410 4;
#X text 1207 269 1;
#X text 1226 318 2;
#X text 1245 365 3;
#X text 1346 458 5;
#X text 1365 506 6;
#X text 1327 410 4;
#X text 1391 272 1;
#X text 1410 320 2;
#X text 1429 364 3;
#X text 1530 459 5;
#X text 1549 508 6;
#X text 1511 412 4;
#X obj 467 270 s vL3;
#X obj 665 271 s vR3;
#X obj 858 276 s vL7;
#X obj 1041 274 s vR7;
#X obj 1226 269 s vL8;
#X obj 1409 271 s vR8;
#X obj 1245 317 s vL8;
#X obj 1428 318 s vR8;
#X obj 1264 364 s vL8;
#X obj 1447 365 s vR8;
#X obj 1284 411 s vL9;
#X obj 1303 457 s vL9;
#X obj 1322 504 s vL9;
#X obj 1467 412 s vR9;
#X obj 1486 457 s vR9;
#X obj 1505 505 s vR9;
#X obj 526 411 s vL1;
#X obj 727 411 s vR1;
#X obj 746 456 s vR2;
#X obj 545 458 s vL2;
#X obj 564 504 s vL2;
#X obj 765 504 s vR2;
#X obj 486 319 s vL4;
#X obj 505 364 s vL5;
#X obj 684 320 s vR4;
#X obj 703 368 s vR5;
#X obj 102 364 s vL7;
#X obj 285 366 s vR7;
#X obj 131 50 r loadaudio;
#X obj 83 317 s vL8;
#X obj 266 317 s vR8;
#X obj 1610 129 inlet;
#X obj 1793 127 inlet;
#X obj 1990 116 inlet;
#X obj 2190 108 inlet;
#X floatatom 1705 164 5 0 0 0 - - - 0;
#X obj 1705 140 r mixnumber;
#X obj 1610 190 list prepend 0;
#X floatatom 1610 248 5 0 0 0 - - - 0;
#X floatatom 1629 294 5 0 0 0 - - - 0;
#X floatatom 1648 342 5 0 0 0 - - - 0;
#X floatatom 1668 388 5 0 0 0 - - - 0;
#X floatatom 1687 435 5 0 0 0 - - - 0;
#X floatatom 1706 482 5 0 0 0 - - - 0;
#X obj 1629 317 s vL2;
#X obj 1648 364 s vL3;
#X obj 1668 411 s vL4;
#X obj 1687 458 s vL5;
#X obj 1610 214 route 1 2 3 4 5 6;
#X obj 1706 505 s vL6;
#X floatatom 1888 166 5 0 0 0 - - - 0;
#X obj 1888 142 r mixnumber;
#X obj 1793 192 list prepend 0;
#X floatatom 1793 250 5 0 0 0 - - - 0;
#X floatatom 1812 296 5 0 0 0 - - - 0;
#X floatatom 1831 342 5 0 0 0 - - - 0;
#X floatatom 1851 388 5 0 0 0 - - - 0;
#X floatatom 1870 435 5 0 0 0 - - - 0;
#X floatatom 1889 481 5 0 0 0 - - - 0;
#X obj 1793 216 route 1 2 3 4 5 6;
#X obj 1812 319 s vR2;
#X obj 1831 364 s vR3;
#X obj 1851 411 s vR4;
#X obj 1870 458 s vR5;
#X obj 1889 504 s vR6;
#X floatatom 2085 164 5 0 0 0 - - - 0;
#X obj 2085 140 r mixnumber;
#X obj 1990 190 list prepend 0;
#X floatatom 1990 248 5 0 0 0 - - - 0;
#X floatatom 2009 295 5 0 0 0 - - - 0;
#X floatatom 2028 344 5 0 0 0 - - - 0;
#X floatatom 2048 387 5 0 0 0 - - - 0;
#X floatatom 2067 436 5 0 0 0 - - - 0;
#X floatatom 2086 482 5 0 0 0 - - - 0;
#X obj 1990 214 route 1 2 3 4 5 6;
#X floatatom 2285 163 5 0 0 0 - - - 0;
#X obj 2285 139 r mixnumber;
#X obj 2190 189 list prepend 0;
#X floatatom 2190 247 5 0 0 0 - - - 0;
#X floatatom 2209 294 5 0 0 0 - - - 0;
#X floatatom 2228 343 5 0 0 0 - - - 0;
#X floatatom 2248 389 5 0 0 0 - - - 0;
#X floatatom 2267 435 5 0 0 0 - - - 0;
#X floatatom 2286 484 5 0 0 0 - - - 0;
#X obj 2190 213 route 1 2 3 4 5 6;
#X text 1611 320 2;
#X text 1630 367 3;
#X text 1731 461 5;
#X text 1750 509 6;
#X text 1712 412 4;
#X text 1774 273 1;
#X text 1793 320 2;
#X text 1812 365 3;
#X text 1913 459 5;
#X text 1932 506 6;
#X text 1894 410 4;
#X text 1971 271 1;
#X text 1990 319 2;
#X text 2009 367 3;
#X text 2110 460 5;
#X text 2129 507 6;
#X text 2091 409 4;
#X text 2172 271 1;
#X text 2191 319 2;
#X text 2210 367 3;
#X text 2311 460 5;
#X text 2328 510 6;
#X text 2292 412 4;
#X obj 1610 271 s vL7;
#X obj 1793 273 s vR7;
#X obj 1990 271 s vL8;
#X obj 2190 270 s vR8;
#X obj 2009 318 s vL8;
#X obj 2209 317 s vR8;
#X obj 2028 366 s vL8;
#X obj 2228 365 s vR8;
#X obj 2048 410 s vL9;
#X obj 2067 459 s vL9;
#X obj 2086 505 s vL9;
#X obj 2248 412 s vR9;
#X obj 2267 458 s vR9;
#X obj 2286 507 s vR9;
#X text 1609 105 panel 9;
#X text 1792 103 panel 10;
#X text 1989 92 panel 11;
#X text 2189 84 panel 12;
#X obj 64 270 s vL1;
#X obj 247 272 s vR1;
#X connect 0 0 48 2;
#X connect 1 0 48 1;
#X connect 2 0 48 0;
#X connect 3 0 48 3;
#X connect 4 0 48 4;
#X connect 5 0 48 5;
#X connect 6 0 26 0;
#X connect 25 0 13 0;
#X connect 25 0 14 0;
#X connect 25 0 15 0;
#X connect 25 0 16 0;
#X connect 25 0 17 0;
#X connect 25 0 18 0;
#X connect 25 0 19 0;
#X connect 25 0 21 0;
#X connect 25 0 23 0;
#X connect 25 0 7 0;
#X connect 25 0 8 0;
#X connect 25 0 9 0;
#X connect 25 0 10 0;
#X connect 25 0 11 0;
#X connect 25 0 12 0;
#X connect 25 0 20 0;
#X connect 25 0 22 0;
#X connect 25 0 24 0;
#X connect 25 0 29 0;
#X connect 25 0 28 0;
#X connect 25 0 30 0;
#X connect 25 0 31 0;
#X connect 26 0 27 0;
#X connect 38 0 57 0;
#X connect 39 0 70 0;
#X connect 40 0 83 0;
#X connect 41 0 93 0;
#X connect 42 0 103 0;
#X connect 43 0 118 0;
#X connect 44 0 133 0;
#X connect 45 0 143 0;
#X connect 46 0 57 1;
#X connect 47 0 46 0;
#X connect 57 0 66 0;
#X connect 58 0 325 0;
#X connect 59 0 228 0;
#X connect 60 0 225 0;
#X connect 61 0 64 0;
#X connect 62 0 65 0;
#X connect 63 0 67 0;
#X connect 66 0 58 0;
#X connect 66 1 59 0;
#X connect 66 2 60 0;
#X connect 66 3 61 0;
#X connect 66 4 62 0;
#X connect 66 5 63 0;
#X connect 68 0 70 1;
#X connect 69 0 68 0;
#X connect 70 0 77 0;
#X connect 71 0 326 0;
#X connect 72 0 229 0;
#X connect 73 0 226 0;
#X connect 74 0 78 0;
#X connect 75 0 79 0;
#X connect 76 0 80 0;
#X connect 77 0 71 0;
#X connect 77 1 72 0;
#X connect 77 2 73 0;
#X connect 77 3 74 0;
#X connect 77 4 75 0;
#X connect 77 5 76 0;
#X connect 81 0 83 1;
#X connect 82 0 81 0;
#X connect 83 0 90 0;
#X connect 84 0 199 0;
#X connect 85 0 221 0;
#X connect 86 0 222 0;
#X connect 87 0 215 0;
#X connect 88 0 218 0;
#X connect 89 0 219 0;
#X connect 90 0 84 0;
#X connect 90 1 85 0;
#X connect 90 2 86 0;
#X connect 90 3 87 0;
#X connect 90 4 88 0;
#X connect 90 5 89 0;
#X connect 91 0 93 1;
#X connect 92 0 91 0;
#X connect 93 0 100 0;
#X connect 94 0 200 0;
#X connect 95 0 223 0;
#X connect 96 0 224 0;
#X connect 97 0 216 0;
#X connect 98 0 217 0;
#X connect 99 0 220 0;
#X connect 100 0 94 0;
#X connect 100 1 95 0;
#X connect 100 2 96 0;
#X connect 100 3 97 0;
#X connect 100 4 98 0;
#X connect 100 5 99 0;
#X connect 101 0 103 1;
#X connect 102 0 101 0;
#X connect 103 0 114 0;
#X connect 104 0 201 0;
#X connect 105 0 110 0;
#X connect 106 0 111 0;
#X connect 107 0 112 0;
#X connect 108 0 113 0;
#X connect 109 0 115 0;
#X connect 114 0 104 0;
#X connect 114 1 105 0;
#X connect 114 2 106 0;
#X connect 114 3 107 0;
#X connect 114 4 108 0;
#X connect 114 5 109 0;
#X connect 116 0 118 1;
#X connect 117 0 116 0;
#X connect 118 0 125 0;
#X connect 119 0 202 0;
#X connect 120 0 126 0;
#X connect 121 0 127 0;
#X connect 122 0 128 0;
#X connect 123 0 129 0;
#X connect 124 0 130 0;
#X connect 125 0 119 0;
#X connect 125 1 120 0;
#X connect 125 2 121 0;
#X connect 125 3 122 0;
#X connect 125 4 123 0;
#X connect 125 5 124 0;
#X connect 131 0 133 1;
#X connect 132 0 131 0;
#X connect 133 0 140 0;
#X connect 134 0 203 0;
#X connect 135 0 205 0;
#X connect 136 0 207 0;
#X connect 137 0 209 0;
#X connect 138 0 210 0;
#X connect 139 0 211 0;
#X connect 140 0 134 0;
#X connect 140 1 135 0;
#X connect 140 2 136 0;
#X connect 140 3 137 0;
#X connect 140 4 138 0;
#X connect 140 5 139 0;
#X connect 141 0 143 1;
#X connect 142 0 141 0;
#X connect 143 0 150 0;
#X connect 144 0 204 0;
#X connect 145 0 206 0;
#X connect 146 0 208 0;
#X connect 147 0 212 0;
#X connect 148 0 213 0;
#X connect 149 0 214 0;
#X connect 150 0 144 0;
#X connect 150 1 145 0;
#X connect 150 2 146 0;
#X connect 150 3 147 0;
#X connect 150 4 148 0;
#X connect 150 5 149 0;
#X connect 227 0 46 0;
#X connect 230 0 236 0;
#X connect 231 0 251 0;
#X connect 232 0 266 0;
#X connect 233 0 276 0;
#X connect 234 0 236 1;
#X connect 235 0 234 0;
#X connect 236 0 247 0;
#X connect 237 0 307 0;
#X connect 238 0 243 0;
#X connect 239 0 244 0;
#X connect 240 0 245 0;
#X connect 241 0 246 0;
#X connect 242 0 248 0;
#X connect 247 0 237 0;
#X connect 247 1 238 0;
#X connect 247 2 239 0;
#X connect 247 3 240 0;
#X connect 247 4 241 0;
#X connect 247 5 242 0;
#X connect 249 0 251 1;
#X connect 250 0 249 0;
#X connect 251 0 258 0;
#X connect 252 0 308 0;
#X connect 253 0 259 0;
#X connect 254 0 260 0;
#X connect 255 0 261 0;
#X connect 256 0 262 0;
#X connect 257 0 263 0;
#X connect 258 0 252 0;
#X connect 258 1 253 0;
#X connect 258 2 254 0;
#X connect 258 3 255 0;
#X connect 258 4 256 0;
#X connect 258 5 257 0;
#X connect 264 0 266 1;
#X connect 265 0 264 0;
#X connect 266 0 273 0;
#X connect 267 0 309 0;
#X connect 268 0 311 0;
#X connect 269 0 313 0;
#X connect 270 0 315 0;
#X connect 271 0 316 0;
#X connect 272 0 317 0;
#X connect 273 0 267 0;
#X connect 273 1 268 0;
#X connect 273 2 269 0;
#X connect 273 3 270 0;
#X connect 273 4 271 0;
#X connect 273 5 272 0;
#X connect 274 0 276 1;
#X connect 275 0 274 0;
#X connect 276 0 283 0;
#X connect 277 0 310 0;
#X connect 278 0 312 0;
#X connect 279 0 314 0;
#X connect 280 0 318 0;
#X connect 281 0 319 0;
#X connect 282 0 320 0;
#X connect 283 0 277 0;
#X connect 283 1 278 0;
#X connect 283 2 279 0;
#X connect 283 3 280 0;
#X connect 283 4 281 0;
#X connect 283 5 282 0;
