#N canvas 61 25 400 534 12;
#X obj 70 52 inlet;
#X obj 77 336 spigot;
#X obj 83 389 noteout 1;
#X obj 123 295 r midiON;
#X obj 143 349 r synth-channel;
#X obj 67 103 unpack f f;
#X obj 70 191 pack f f;
#X msg 214 169 0;
#X msg 145 166 127;
#X obj 124 438 print playmidi;
#X obj 145 139 sel 255;
#X obj 191 101 r output-range;
#X obj 214 142 sel 0;
#X connect 0 0 5 0;
#X connect 1 0 2 0;
#X connect 1 0 9 0;
#X connect 3 0 1 1;
#X connect 4 0 2 2;
#X connect 5 0 10 0;
#X connect 5 1 6 0;
#X connect 6 0 1 0;
#X connect 7 0 6 1;
#X connect 8 0 6 1;
#X connect 10 0 8 0;
#X connect 10 1 12 0;
#X connect 11 0 10 1;
#X connect 12 0 7 0;
