#N canvas 379 79 907 820 12;
#N canvas 0 22 450 300 (subpatch) 0;
#X array audio1_L 352800 float 0;
#X coords 0 1 352799 -1 150 50 1;
#X restore 530 60 graph;
#N canvas 79 65 1225 1098 (subpatch) 0;
#X array audio2_L 352800 float 0;
#X coords 0 1 352799 -1 150 50 1;
#X restore 530 126 graph;
#N canvas 0 22 450 300 (subpatch) 0;
#X array audio1_R 352800 float 0;
#X coords 0 1 352799 -1 150 50 1;
#X restore 690 60 graph;
#N canvas 0 22 450 300 (subpatch) 0;
#X array audio2_R 352800 float 2;
#X coords 0 1 352800 -1 150 50 1;
#X restore 690 126 graph;
#N canvas 79 65 1225 1098 (subpatch) 0;
#X array audio3_L 352800 float 2;
#X coords 0 1 352800 -1 150 50 1;
#X restore 530 191 graph;
#N canvas 0 22 450 300 (subpatch) 0;
#X array audio3_R 352800 float 2;
#X coords 0 1 352800 -1 150 50 1;
#X restore 690 191 graph;
#N canvas 0 22 450 300 (subpatch) 0;
#X array audio4_L 352800 float 2;
#X coords 0 1 352800 -1 150 50 1;
#X restore 530 257 graph;
#N canvas 0 22 450 300 (subpatch) 0;
#X array audio4_R 352800 float 2;
#X coords 0 1 352800 -1 150 50 1;
#X restore 690 257 graph;
#N canvas 0 22 450 300 (subpatch) 0;
#X array audio5_L 352800 float 2;
#X coords 0 1 352800 -1 150 50 1;
#X restore 530 323 graph;
#N canvas 0 22 450 300 (subpatch) 0;
#X array audio5_R 352800 float 2;
#X coords 0 1 352800 -1 150 50 1;
#X restore 690 323 graph;
#N canvas 0 22 450 300 (subpatch) 0;
#X array audio6_L 352800 float 2;
#X coords 0 1 352800 -1 150 50 1;
#X restore 530 389 graph;
#N canvas 0 22 450 300 (subpatch) 0;
#X array audio6_R 352800 float 2;
#X coords 0 1 352800 -1 150 50 1;
#X restore 690 389 graph;
#N canvas 0 22 450 300 (subpatch) 0;
#X array audio7_L 352800 float 2;
#X coords 0 1 352800 -1 150 50 1;
#X restore 530 455 graph;
#N canvas 0 22 450 300 (subpatch) 0;
#X array audio7_R 352800 float 2;
#X coords 0 1 352800 -1 150 50 1;
#X restore 690 455 graph;
#N canvas 0 22 450 300 (subpatch) 0;
#X array audio8_L 352800 float 2;
#X coords 0 1 352800 -1 150 50 1;
#X restore 530 521 graph;
#N canvas 0 22 450 300 (subpatch) 0;
#X array audio8_R 352800 float 2;
#X coords 0 1 352800 -1 150 50 1;
#X restore 690 521 graph;
#N canvas 0 22 450 300 (subpatch) 0;
#X array audio9_L 352800 float 2;
#X coords 0 1 352800 -1 150 50 1;
#X restore 529 587 graph;
#N canvas 0 22 450 300 (subpatch) 0;
#X array audio9_R 352800 float 2;
#X coords 0 1 352800 -1 150 50 1;
#X restore 688 587 graph;
#X obj 70 568 soundfiler;
#X msg 70 480 read -resize \$1 \$2 \$3;
#X obj 70 440 pack s s s;
#X obj 70 81 bng 35 250 50 0 empty loadaudio empty 17 7 0 10 #fcfcfc #000000 #000000;
#X text 530 20 LEFT 1-9;
#X text 690 19 RIGHT 1-9;
#X obj 103 398 makefilename audio%d_L;
#X obj 263 398 makefilename audio%d_R;
#N canvas 0 22 450 300 (subpatch) 0;
#X array audio10_L 352800 float 2;
#X coords 0 1 352800 -1 150 50 1 0 0;
#X restore 528 655 graph;
#N canvas 0 22 450 300 (subpatch) 0;
#X array audio10_R 352800 float 2;
#X coords 0 1 352800 -1 150 50 1 0 0;
#X restore 687 655 graph;
#N canvas 0 22 450 300 (subpatch) 0;
#X array audio11_L 352800 float 2;
#X coords 0 1 352800 -1 150 50 1 0 0;
#X restore 527 725 graph;
#N canvas 0 22 450 300 (subpatch) 0;
#X array audio11_R 352800 float 2;
#X coords 0 1 352800 -1 150 50 1 0 0;
#X restore 686 725 graph;
#X msg 70 190 1 ../audio/aaa/1.wav \, 2 ../audio/aaa/2.wav \, 3 ../audio/aaa/3.wav \, 4 ../audio/aaa/4.wav \, 5 ../audio/aaa/5.wav \, 6 ../audio/aaa/6.wav \, 7 ../audio/aaa/7.wav \, 8 ../audio/aaa/8.wav \, 9 ../audio/aaa/9.wav \, 10 ../audio/aaa/10.wav \, 11 ../audio/aaa/11.wav;
#X obj 103 363 t f f;
#X msg 71 295 \$2 \$1;
#X obj 70 328 unpack s f;
#X connect 19 0 18 0;
#X connect 20 0 19 0;
#X connect 21 0 30 0;
#X connect 24 0 20 1;
#X connect 25 0 20 2;
#X connect 30 0 32 0;
#X connect 31 0 24 0;
#X connect 31 1 25 0;
#X connect 32 0 33 0;
#X connect 33 0 20 0;
#X connect 33 1 31 0;
