#N canvas 34 78 331 326 12;
#X obj 50 30 inlet;
#X obj 50 260 outlet;
#X obj 50 180 spigot;
#X obj 110 180 spigot;
#X obj 50 210 expr 1-$f1;
#X obj 190 93 - 1;
#X obj 190 119 abs;
#X obj 190 60 r invert;
#X obj 50 117 m_scale 0 127 0 1;
#X obj 96 60 r output-max;
#X connect 0 0 8 0;
#X connect 2 0 4 0;
#X connect 3 0 1 0;
#X connect 4 0 1 0;
#X connect 5 0 6 0;
#X connect 6 0 3 1;
#X connect 7 0 5 0;
#X connect 7 0 2 1;
#X connect 8 0 2 0;
#X connect 8 0 3 0;
#X connect 9 0 8 2;
