#N canvas 0 25 375 747 12;
#X declare -path . -path ./oi;
#N canvas 417 58 739 559 guts 0;
#X obj 35 492 soundoutput;
#N canvas 121 146 588 274 LICENSE 0;
#X text 57 36 Released under the GNU General Public License ver. 3 or later. See the file LICENSE.txt for the full text.;
#X text 79 84 (c) 2023 Dan Wilcox;
#X restore 541 50 pd LICENSE;
#X obj 35 160 oi.m.instrument 8;
#X obj 35 29 r \$0-calibrate;
#X obj 130 56 r \$0-unfolded;
#X obj 244 85 r \$0-folded;
#X msg 35 56 calibrate;
#X obj 541 24 declare -path . -path ./oi;
#X obj 145 194 list split 1;
#X obj 145 384 s \$0-panel;
#X obj 185 255 route d s b;
#X obj 209 319 s \$0-soft;
#X obj 234 289 s \$0-bend;
#X obj 35 431 clone 8 boop;
#X text 134 428 <- synth voices;
#X text 317 320 <- output to UI;
#X text 340 82 <- received from UI;
#X obj 185 350 s \$0-d;
#X obj 185 224 list trim;
#X msg 244 113 set folded;
#X msg 130 85 set unfolded;
#X connect 2 0 8 0;
#X connect 2 0 13 0;
#X connect 3 0 6 0;
#X connect 4 0 20 0;
#X connect 5 0 19 0;
#X connect 6 0 2 0;
#X connect 8 0 9 0;
#X connect 8 1 18 0;
#X connect 10 0 17 0;
#X connect 10 1 11 0;
#X connect 10 2 12 0;
#X connect 13 0 0 0;
#X connect 13 1 0 1;
#X connect 18 0 10 0;
#X connect 19 0 2 0;
#X connect 20 0 2 0;
#X restore 276 87 pd guts;
#X obj 145 172 bng 50 250 50 0 \$0-calibrate empty calibrate 0 -8 0 10 #ffffff #000000 #000000;
#X obj 145 262 bng 50 250 50 0 \$0-unfolded empty unfolded 0 -8 0 10 #c6ffc7 #000000 #000000;
#X obj 145 352 bng 50 250 50 0 \$0-folded empty folded 0 -8 0 10 #ffc7c6 #000000 #000000;
#X text 27 23 Oribotic Instrument PdParty Test;
#X obj 118 446 cnv 19 126 126 empty empty empty 20 12 0 12 #e0e0e0 #404040 0;
#X floatatom 173 457 5 0 0 0 panel \$0-panel - 0;
#X floatatom 173 513 5 0 0 0 s \$0-soft - 0;
#X floatatom 173 541 5 0 0 0 b \$0-bend - 0;
#X floatatom 173 485 5 0 0 0 d \$0-d - 0;
