#N canvas 672 155 346 378 12;
#X obj 44 30 inlet;
#X obj 147 60 loadbang;
#X obj 177 166 osc~;
#X obj 44 166 c_ead 50 250;
#X obj 44 95 sel 127 0;
#X msg 44 128 bang;
#X obj 44 212 *~;
#X obj 44 333 outlet~;
#X obj 44 297 e_pan 0.5;
#X obj 134 333 outlet~;
#X obj 44 251 *~ 0.25;
#X obj 147 251 expr floor($f1 / 8);
#X obj 44 60 route d;
#X obj 177 128 expr $f1 * 100 + 300;
#X obj 147 95 f \$1;
#X connect 0 0 12 0;
#X connect 1 0 14 0;
#X connect 2 0 6 1;
#X connect 3 0 6 0;
#X connect 4 0 5 0;
#X connect 5 0 3 0;
#X connect 6 0 10 0;
#X connect 8 0 7 0;
#X connect 8 1 9 0;
#X connect 10 0 8 0;
#X connect 11 0 8 1;
#X connect 12 0 4 0;
#X connect 13 0 2 0;
#X connect 14 0 11 0;
#X connect 14 0 13 0;
