#N canvas 0 25 375 747 12;
#X declare -path . -path ./oi;
#N canvas 417 58 739 559 guts 0;
#X obj 35 29 soundinput;
#X obj 35 492 soundoutput;
#X text 40 253 put your music here;
#N canvas 121 146 588 274 LICENSE 0;
#X text 57 36 Released under the GNU General Public License ver. 3 or later. See the file LICENSE.txt for the full text.;
#X text 79 84 (c) 2023 Dan Wilcox;
#X restore 541 50 pd LICENSE;
#X obj 236 160 oi.m.instrument 8;
#X obj 236 29 r \$0-calibrate;
#X obj 326 56 r \$0-unfolded;
#X obj 410 85 r \$0-folded;
#X msg 236 56 calibrate;
#X msg 326 85 unfolded;
#X msg 410 113 folded;
#X obj 236 210 route 0 1 2 3 4 5 6 7 8;
#X obj 236 253 route d s b;
#X text 417 212 route panels;
#X text 234 288 d: digital touch 0 or 127;
#X text 234 313 s: soft touch (area) 0-127;
#X text 234 337 b: bend to adjacent panel 0-127 \, requires calibration;
#X text 328 252 control values;
#X text 372 161 8 panels \, change for more;
#X obj 541 24 declare -path . -path ./oi;
#X connect 4 0 11 0;
#X connect 5 0 8 0;
#X connect 6 0 9 0;
#X connect 7 0 10 0;
#X connect 8 0 4 0;
#X connect 9 0 4 0;
#X connect 10 0 4 0;
#X connect 11 0 12 0;
#X restore 276 87 pd guts;
#X text 33 475 and PdParty will scale on the device;
#X text 33 562 sends/receives or PdParty will ignore them;
#X text 34 537 UIs *must* communicate through;
#X text 28 78 place UIs here in the main patch;
#X text 29 100 place core dsp etc in a subpatch;
#X text 33 450 size this roughly portrait or landscape;
#X text 27 23 Oribotic Instrument PartyScene Template;
#X obj 145 172 bng 50 250 50 0 \$0-calibrate empty calibrate 0 -8 0 10 #ffffff #000000 #000000;
#X obj 145 262 bng 50 250 50 0 \$0-unfolded empty unfolded 0 -8 0 10 #c6ffc7 #000000 #000000;
#X obj 145 352 bng 50 250 50 0 \$0-folded empty folded 0 -8 0 10 #ffc7c6 #000000 #000000;
#X text 31 610 note: copy puredata/oi into this dir before copying to the mobile device, f 43;
