#N canvas 180 110 785 1011 12;
#X floatatom 428 208 5 0 0 0 - - - 0;
#X msg 535 120 connect 127.0.0.1 9001;
#X msg 535 144 disconnect;
#X obj 427 184 netsend -u -b;
#X msg 252 730 send /objects/Cube/modifiers/Array/count \$1;
#X floatatom 253 630 5 0 127 0 - - - 0;
#X obj 429 124 r blender;
#X obj 252 758 s blender;
#X obj 1371 370 s blender;
#X floatatom 708 552 5 0 0 0 - - - 0;
#X obj 711 585 / 10;
#X obj 429 155 packOSC;
#X obj 707 657 s blender;
#X msg 711 612 send /objects/Empty/scale \$1 \$1 \$1;
#X floatatom 1372 294 5 0 0 0 - - - 0;
#X obj 1372 320 / 100;
#X msg 945 326 send /objects/Cube/modifiers/Wireframe/thickness \$1;
#X floatatom 949 234 5 0 0 0 - - - 0;
#X obj 948 291 / 10, f 5;
#X obj 943 361 s blender;
#X msg 564 753 send /cameras/Camera/lens \$1;
#X floatatom 552 700 5 0 0 0 - - - 0;
#X obj 552 726 / 10;
#X obj 555 782 s blender;
#X floatatom 66 509 5 0 0 0 - - - 0;
#X obj 66 533 / 10;
#X obj 66 579 s blender;
#X floatatom 823 725 5 0 0 0 - - - 0;
#X obj 823 749 / 10;
#X obj 823 797 s blender;
#X floatatom 461 607 5 0 0 0 - - - 0;
#X obj 461 629 / 10;
#X obj 461 676 s blender;
#X obj 55 41 oi.m.instrument;
#X obj 53 70 s oi;
#X obj 510 835;
#X msg 461 652 send /objects/Camera/locationz \$1;
#X msg 823 772 send /objects/Camera/locationy \$1;
#X msg 66 556 send /objects/Camera/locationx \$1;
#X obj 66 309 oi/e.dL 0;
#X obj 256 309 oi/e.dL 1;
#X obj 449 312 oi/e.dL 2;
#X obj 637 314 oi/e.dL 3;
#X obj 940 41 oi/e.dL 4;
#X obj 1130 41 oi/e.dL 5;
#X obj 1323 44 oi/e.dL 6;
#X obj 1511 46 oi/e.dL 7;
#X obj 1371 369;
#X obj 188 7 oi.allcontrols;
#X obj 951 260 m_scale 0 127 1 10, f 19;
#X obj 262 681 m_scale 0 127 10 40;
#X obj 367 636 round;
#X obj 262 705 int;
#X obj 1321 267 m_scale 0 127 0 100;
#X obj 1537 403 s blender;
#X floatatom 1538 327 5 0 0 0 - - - 0;
#X obj 1538 353 / 100;
#X obj 1537 402;
#X obj 1487 300 m_scale 0 127 0 100;
#X msg 1537 378 send /objects/Empty/rotation_euler 0 \$1 \$1;
#X msg 1371 345 send /objects/Empty/rotation_euler 0 \$1 \$1;
#X obj 778 567 m_scale 0 127 10 30;
#X obj 625 918;
#X msg 682 948 send /shape_keys/Key/key_blocks/folded/value \$1;
#X obj 686 908 m_scale 0 255 0 1;
#X obj 682 972 s blender;
#X connect 1 0 3 0;
#X connect 2 0 3 0;
#X connect 3 0 0 0;
#X connect 4 0 7 0;
#X connect 5 0 4 0;
#X connect 6 0 11 0;
#X connect 9 0 10 0;
#X connect 10 0 13 0;
#X connect 11 0 3 0;
#X connect 13 0 12 0;
#X connect 14 0 15 0;
#X connect 15 0 60 0;
#X connect 16 0 19 0;
#X connect 17 0 49 0;
#X connect 18 0 16 0;
#X connect 20 0 23 0;
#X connect 21 0 22 0;
#X connect 22 0 20 0;
#X connect 24 0 25 0;
#X connect 25 0 38 0;
#X connect 27 0 28 0;
#X connect 28 0 37 0;
#X connect 30 0 31 0;
#X connect 31 0 36 0;
#X connect 33 0 34 0;
#X connect 36 0 32 0;
#X connect 37 0 29 0;
#X connect 38 0 26 0;
#X connect 41 1 21 0;
#X connect 41 1 64 0;
#X connect 43 1 17 0;
#X connect 45 1 53 0;
#X connect 48 0 33 0;
#X connect 49 0 18 0;
#X connect 50 0 52 0;
#X connect 52 0 4 0;
#X connect 53 0 15 0;
#X connect 55 0 56 0;
#X connect 56 0 59 0;
#X connect 58 0 56 0;
#X connect 59 0 54 0;
#X connect 59 0 57 0;
#X connect 60 0 8 0;
#X connect 60 0 47 0;
#X connect 61 0 10 0;
#X connect 63 0 65 0;
#X connect 64 0 63 0;
