#N canvas -4 121 1680 872 12;
#X declare -path ./oi;
#X obj 73 99 oi.o.instrument 48;
#X msg 118 37 open /dev/tty.usbmodem1101;
#X obj 213 185 es 8 \$0;
#X obj 275 185 es 9 \$0;
#X obj 213 287 es 10 \$0;
#X obj 275 287 es 11 \$0;
#X obj 213 389 es 12 \$0;
#X obj 275 389 es 13 \$0;
#X obj 213 491 es 14 \$0;
#X obj 275 491 es 15 \$0;
#X obj 357 185 es 16 \$0;
#X obj 419 185 es 17 \$0;
#X obj 357 287 es 18 \$0;
#X obj 419 287 es 19 \$0;
#X obj 357 389 es 20 \$0;
#X obj 419 389 es 21 \$0;
#X obj 357 491 es 22 \$0;
#X obj 419 491 es 23 \$0;
#X obj 501 185 es 24 \$0;
#X obj 563 185 es 25 \$0;
#X obj 501 287 es 26 \$0;
#X obj 563 287 es 27 \$0;
#X obj 501 389 es 28 \$0;
#X obj 563 389 es 29 \$0;
#X obj 501 491 es 30 \$0;
#X obj 563 491 es 31 \$0;
#X obj 645 185 es 32 \$0;
#X obj 707 185 es 33 \$0;
#X obj 645 287 es 34 \$0;
#X obj 707 287 es 35 \$0;
#X obj 645 389 es 36 \$0;
#X obj 707 389 es 37 \$0;
#X obj 645 491 es 38 \$0;
#X obj 707 491 es 39 \$0;
#X obj 789 185 es 40 \$0;
#X obj 851 185 es 41 \$0;
#X obj 789 287 es 42 \$0;
#X obj 851 287 es 43 \$0;
#X obj 789 389 es 44 \$0;
#X obj 851 389 es 45 \$0;
#X obj 789 491 es 46 \$0;
#X obj 851 491 es 47 \$0;
#X msg 126 61 close;
#X obj 69 287 es 2 \$0;
#X obj 131 287 es 3 \$0;
#X obj 69 389 es 4 \$0;
#X obj 131 389 es 5 \$0;
#X obj 69 491 es 6 \$0;
#X obj 131 491 es 7 \$0;
#X obj 225 98 oi.allcontrols;
#X obj 73 123 s \$0-oi;
#X obj 131 182 es 1 \$0;
#X obj 1672 644;
#X msg 1672 668 1;
#X obj 1672 644;
#X obj 1672 644;
#X obj 1672 644;
#X obj 1672 644;
#X obj 784 50 declare -path ./oi;
#X obj 69 182 es 0 \$0;
#X connect 0 0 50 0;
#X connect 1 0 0 0;
#X connect 42 0 0 0;
#X connect 52 0 53 0;
