#N canvas 986 250 467 527 12;
#X obj 70 52 inlet;
#X floatatom 137 243 5 0 0 0 - - - 0;
#X text 173 242 midi note;
#X obj 137 292 pack f f;
#X obj 137 398 spigot;
#X obj 70 398 spigot;
#X obj 170 108 route 0 1;
#X obj 70 432 outlet;
#X obj 70 172 unpack f f;
#X msg 170 212 0;
#X obj 250 282 tgl 15 0 empty empty empty 17 7 0 10 #fcfcfc #000000 #000000 0 1;
#X obj 250 352 bng 15 250 50 0 empty empty empty 17 7 0 10 #fcfcfc #000000 #000000;
#X obj 137 432 noteout 1;
#X msg 210 212 127;
#X obj 164 52 inlet;
#X obj 197 398 r midichannel;
#X obj 176 362 r midiON;
#X obj 316 243 print;
#X connect 0 0 6 0;
#X connect 0 0 8 0;
#X connect 0 0 17 0;
#X connect 0 0 10 0;
#X connect 1 0 3 0;
#X connect 3 0 4 0;
#X connect 4 0 12 0;
#X connect 5 0 7 0;
#X connect 6 0 9 0;
#X connect 6 1 13 0;
#X connect 8 0 5 0;
#X connect 9 0 3 1;
#X connect 10 0 11 0;
#X connect 11 0 3 0;
#X connect 13 0 3 1;
#X connect 14 0 1 0;
#X connect 15 0 12 2;
#X connect 16 0 4 1;
