#N canvas 365 209 1095 578 12;
#X msg 41 121 calibrate;
#X text 215 241 alias for "behi";
#X text 171 180 alias for "belo";
#X text 257 329 alias for "loHS";
#X msg 82 181 set folded;
#X msg 110 241 set unfolded;
#X msg 128 270 set hard;
#X msg 156 329 set hardsoft;
#X obj 62 487 r \$0-ctl;
#X obj 62 418 s \$0-ctl;
#X msg 738 54 get notes;
#X msg 781 197 set root \$1;
#X msg 829 137 48;
#X msg 869 137 62;
#X obj 781 167 - 2;
#X msg 926 360 set scale \$1;
#X floatatom 781 137 5 0 0 0 - - - 0;
#X obj 926 167 vradio 19 1 0 8 empty empty empty 0 -10 0 12 #fcfcfc #000000 #000000 0;
#X text 952 168 major;
#X text 952 189 minor;
#X text 951 206 dorian;
#X text 951 225 phyrgian;
#X text 950 244 lydian;
#X text 953 263 mixolydian;
#X text 952 283 aeolian;
#X text 952 302 locrian;
#X floatatom 926 331 5 0 0 0 - - - 0;
#X text 777 105 set root MIDI note;
#X text 921 139 set MIDI note scale;
#X msg 423 226 set mode \$1;
#X obj 423 58 vradio 19 1 0 7 empty empty empty 0 -10 0 12 #fcfcfc #000000 #000000 0;
#X text 449 60 serial debug;
#X text 449 79 serial debug raw;
#X text 449 99 raw;
#X text 450 117 normalized;
#X text 449 136 raw pls normalized (OSC only);
#X text 449 155 touch play (default);
#X floatatom 423 200 5 0 0 0 - - - 0;
#X text 819 55 request current MIDI notes;
#X obj 738 418 s \$0-ctl;
#X text 35 81 calibration;
#X msg 62 151 set belo;
#X msg 92 211 set behi;
#X obj 62 523 outlet;
#X text 736 19 notes;
#X text 28 23 all control messages;
#X obj 423 262 s \$0-ctl;
#X text 422 26 device mode;
#X msg 143 299 set loHS;
#X obj 427 418 s \$0-ctl;
#N canvas 490 90 1089 453 mpr 0;
#X obj 73 400 outlet;
#X msg 318 326 set FFI \$1;
#X obj 318 84 vradio 19 1 0 4 empty empty empty 0 -10 0 12 #fcfcfc #000000 #000000 0;
#X obj 432 145 vradio 19 1 0 4 empty empty empty 0 -10 0 12 #fcfcfc #000000 #000000 0;
#X text 425 121 second filter iterations;
#X text 454 148 4;
#X text 454 165 6;
#X text 454 187 10;
#X text 454 204 18;
#X text 340 85 6;
#X text 340 102 10;
#X text 340 124 18;
#X text 340 141 34;
#X text 308 59 first filter iterations;
#X floatatom 318 177 5 0 0 0 - - - 0;
#X floatatom 432 240 5 0 0 0 - - - 0;
#X msg 680 107 1;
#X msg 685 137 2;
#X msg 691 164 4;
#X msg 697 188 8;
#X msg 704 215 16;
#X msg 714 240 32;
#X msg 719 264 64;
#X msg 728 290 128;
#X msg 682 326 set interval \$1;
#X msg 432 326 set SFI \$1;
#X msg 889 326 set CDT \$1;
#X msg 877 107 0;
#X msg 886 137 1;
#X msg 893 164 2;
#X msg 902 188 4;
#X msg 910 215 8;
#X msg 918 240 16;
#X msg 925 264 32;
#X text 911 106 500 ns;
#X text 644 80 sample interval (ms);
#X text 852 80 charge / discharge times (us);
#X msg 73 126 A \$1;
#X obj 73 94 tgl 19 0 empty empty empty 0 -10 0 12 #fcfcfc #000000 #000000 0 1;
#X obj 123 94 tgl 19 0 empty empty empty 0 -10 0 12 #fcfcfc #000000 #000000 0 1;
#X obj 173 94 tgl 19 0 empty empty empty 0 -10 0 12 #fcfcfc #000000 #000000 0 1;
#X obj 223 94 tgl 19 0 empty empty empty 0 -10 0 12 #fcfcfc #000000 #000000 0 1;
#X msg 123 126 B \$1;
#X msg 173 126 C \$1;
#X msg 223 126 D \$1;
#X text 20 16 MPR121 specifics;
#X text 68 58 init status;
#X msg 73 326 mpr \$1 \$2;
#X obj 73 240 list;
#X connect 1 0 0 0;
#X connect 2 0 14 0;
#X connect 3 0 15 0;
#X connect 14 0 1 0;
#X connect 15 0 25 0;
#X connect 16 0 24 0;
#X connect 17 0 24 0;
#X connect 18 0 24 0;
#X connect 19 0 24 0;
#X connect 20 0 24 0;
#X connect 21 0 24 0;
#X connect 22 0 24 0;
#X connect 23 0 24 0;
#X connect 24 0 0 0;
#X connect 25 0 0 0;
#X connect 26 0 0 0;
#X connect 27 0 26 0;
#X connect 28 0 26 0;
#X connect 29 0 26 0;
#X connect 30 0 26 0;
#X connect 31 0 26 0;
#X connect 32 0 26 0;
#X connect 33 0 26 0;
#X connect 37 0 48 0;
#X connect 38 0 37 0;
#X connect 39 0 42 0;
#X connect 40 0 43 0;
#X connect 41 0 44 0;
#X connect 42 0 48 0;
#X connect 43 0 48 0;
#X connect 44 0 48 0;
#X connect 47 0 0 0;
#X connect 48 0 47 0;
#X restore 427 382 pd mpr;
#X text 422 351 low-level mpr121 config;
#X text 449 173 soft velocity (s mirrored to d);
#X connect 0 0 9 0;
#X connect 4 0 9 0;
#X connect 5 0 9 0;
#X connect 6 0 9 0;
#X connect 7 0 9 0;
#X connect 8 0 43 0;
#X connect 10 0 39 0;
#X connect 11 0 39 0;
#X connect 12 0 14 0;
#X connect 13 0 14 0;
#X connect 14 0 11 0;
#X connect 15 0 39 0;
#X connect 16 0 14 0;
#X connect 17 0 26 0;
#X connect 26 0 15 0;
#X connect 29 0 46 0;
#X connect 30 0 37 0;
#X connect 37 0 29 0;
#X connect 41 0 9 0;
#X connect 42 0 9 0;
#X connect 48 0 9 0;
#X connect 50 0 49 0;
