#N canvas 187 436 603 387 12;
#X obj 213 260 change;
#X obj 41 336 outlet;
#X obj 213 225 route -1;
#X obj 282 260 route -1;
#X obj 213 36 ctlin;
#X obj 41 225 route \$1;
#X obj 41 36 notein;
#X obj 436 36 inlet;
#X obj 41 191 spigot 1;
#X obj 213 191 spigot 1;
#X obj 266 159 r \$0-on;
#X obj 436 97 s \$0-on;
#X msg 41 296 d \$1;
#X msg 213 296 b \$1;
#X msg 282 296 s \$1;
#N canvas 351 226 353 390 args 0;
#X obj 47 91 pdcontrol;
#X msg 47 53 args 0;
#X obj 47 15 loadbang;
#X obj 48 232 route bang float;
#X obj 102 271 outlet;
#X obj 48 342 print oi.panel warning;
#X msg 48 304 missing panel id arg;
#X msg 78 119 list;
#X msg 135 147 0 8;
#X obj 47 187 list split 1;
#X obj 194 271 outlet;
#X msg 172 157 0 8 1;
#X obj 194 232 unpack f f;
#X msg 97 142 0;
#X obj 261 271 s \$0-chan;
#X connect 0 0 9 0;
#X connect 1 0 0 0;
#X connect 2 0 1 0;
#X connect 3 0 6 0;
#X connect 3 1 4 0;
#X connect 6 0 5 0;
#X connect 7 0 9 0;
#X connect 8 0 9 0;
#X connect 9 0 4 0;
#X connect 9 1 12 0;
#X connect 9 2 3 0;
#X connect 11 0 9 0;
#X connect 12 0 10 0;
#X connect 12 1 14 0;
#X connect 13 0 9 0;
#X restore 335 191 pd args;
#X text 35 12 digital touch;
#X text 211 11 bend 0-N & soft N-N*2;
#X obj 41 67 pack f f f;
#X obj 213 67 pack f f f;
#X text 394 190 id maxpanels [chan];
#X obj 329 97 r \$0-chan;
#X obj 436 67 route on chan;
#X obj 500 97 s \$0-chan;
#X obj 335 225 + 8;
#X msg 213 97 \$3 \$2 \$1;
#X msg 41 97 \$3 \$1 \$2;
#X obj 41 129 oi.m.routechan \$3;
#X obj 213 129 oi.m.routechan \$3;
#X connect 0 0 13 0;
#X connect 2 0 0 0;
#X connect 2 1 3 0;
#X connect 3 0 14 0;
#X connect 4 0 19 0;
#X connect 4 1 19 1;
#X connect 4 2 19 2;
#X connect 5 0 12 0;
#X connect 6 0 18 0;
#X connect 6 1 18 1;
#X connect 6 2 18 2;
#X connect 7 0 22 0;
#X connect 8 0 5 0;
#X connect 9 0 2 0;
#X connect 10 0 8 1;
#X connect 10 0 9 1;
#X connect 12 0 1 0;
#X connect 13 0 1 0;
#X connect 14 0 1 0;
#X connect 15 0 2 1;
#X connect 15 0 24 0;
#X connect 15 1 24 1;
#X connect 18 0 26 0;
#X connect 19 0 25 0;
#X connect 21 0 27 1;
#X connect 21 0 28 1;
#X connect 22 0 11 0;
#X connect 22 1 23 0;
#X connect 24 0 3 1;
#X connect 25 0 28 0;
#X connect 26 0 27 0;
#X connect 27 0 8 0;
#X connect 28 0 9 0;
