#N canvas 187 436 603 387 12;
#X obj 213 260 change;
#X obj 41 336 outlet;
#X obj 213 225 route -1;
#X obj 282 260 route -1;
#X obj 213 36 ctlin;
#X obj 41 225 route \$1;
#X obj 41 36 notein;
#X obj 436 36 inlet;
#X obj 41 191 spigot 1;
#X obj 213 191 spigot 1;
#X obj 266 159 r \$0-on;
#X obj 436 97 s \$0-on;
#X msg 41 296 d \$1;
#X msg 213 296 b \$1;
#X msg 282 296 s \$1;
#N canvas 351 226 353 390 args 0;
#X obj 47 91 pdcontrol;
#X msg 47 53 args 0;
#X obj 47 15 loadbang;
#X obj 48 232 route bang float;
#X obj 102 271 outlet;
#X obj 48 342 print oi.panel warning;
#X msg 48 304 missing panel id arg;
#X msg 78 119 list;
#X msg 135 147 0 8;
#X obj 47 187 list split 1;
#X obj 194 271 outlet;
#X msg 172 157 0 8 1;
#X obj 194 232 unpack f f;
#X msg 97 142 0;
#X obj 261 271 s \$0-chan;
#X connect 0 0 9 0;
#X connect 1 0 0 0;
#X connect 2 0 1 0;
#X connect 3 0 6 0;
#X connect 3 1 4 0;
#X connect 6 0 5 0;
#X connect 7 0 9 0;
#X connect 8 0 9 0;
#X connect 9 0 4 0;
#X connect 9 1 12 0;
#X connect 9 2 3 0;
#X connect 11 0 9 0;
#X connect 12 0 10 0;
#X connect 12 1 14 0;
#X connect 13 0 9 0;
#X restore 335 191 pd args;
#X text 35 12 digital touch;
#X text 211 11 bend 0-N & soft N-N*2;
#X obj 41 67 pack f f f;
#X obj 213 67 pack f f f;
#X obj 329 97 r \$0-chan;
#X obj 436 67 route on chan;
#X obj 500 97 s \$0-chan;
#X obj 335 225 + 8;
#X msg 213 97 \$3 \$2 \$1;
#X msg 41 97 \$3 \$1 \$2;
#X obj 41 129 oi.m.routechan \$3;
#X obj 213 129 oi.m.routechan \$3;
#N canvas 172 83 546 380 LICENSE-GPL 0;
#X text 57 80 This program is free software: you can redistribute it and/or modify it under the terms of the GNU General Public License as published by the Free Software Foundation \, either version 3 of the License \, or (at your option) any later version.;
#X text 57 172 This program is distributed in the hope that it will be useful \, but WITHOUT ANY WARRANTY \; without even the implied warranty of MERCHANTABILITY or FITNESS FOR A PARTICULAR PURPOSE. See the GNU General Public License for more details.;
#X text 57 264 You should have received a copy of the GNU General Public License along with this program. If not \, see <http://www.gnu.org/licenses/>.;
#X text 57 328 See the file LICENSE.txt for the full license text.;
#X text 57 30 Copyright (C) 2023 Dan Wilcox \, Matthew Gardiner \, Oribotic Instruments team;
#X restore 464 336 pd LICENSE-GPL;
#X text 394 190 args: id maxpanels [chan];
#X connect 0 0 13 0;
#X connect 2 0 0 0;
#X connect 2 1 3 0;
#X connect 3 0 14 0;
#X connect 4 0 19 0;
#X connect 4 1 19 1;
#X connect 4 2 19 2;
#X connect 5 0 12 0;
#X connect 6 0 18 0;
#X connect 6 1 18 1;
#X connect 6 2 18 2;
#X connect 7 0 21 0;
#X connect 8 0 5 0;
#X connect 9 0 2 0;
#X connect 10 0 8 1;
#X connect 10 0 9 1;
#X connect 12 0 1 0;
#X connect 13 0 1 0;
#X connect 14 0 1 0;
#X connect 15 0 2 1;
#X connect 15 0 23 0;
#X connect 15 1 23 1;
#X connect 18 0 25 0;
#X connect 19 0 24 0;
#X connect 20 0 26 1;
#X connect 20 0 27 1;
#X connect 21 0 11 0;
#X connect 21 1 22 0;
#X connect 23 0 3 1;
#X connect 24 0 27 0;
#X connect 25 0 26 0;
#X connect 26 0 8 0;
#X connect 27 0 9 0;
