#N canvas 539 87 645 603 12;
#X listbox 76 548 20 0 0 0 digital - - 0;
#X listbox 128 517 20 0 0 0 bend - - 0;
#X listbox 180 485 20 0 0 0 soft - - 0;
#X obj 76 403 route 1;
#X obj 76 442 route d b s;
#X obj 232 403 spigot;
#X obj 271 375 tgl 19 0 empty empty empty 0 -10 0 12 #fcfcfc #000000 #000000 0 1;
#X obj 232 442 print;
#X msg 76 76 calibrate;
#X msg 90 105 set folded;
#X msg 103 138 set unfolded;
#X text 154 78 calibrate panels;
#X text 173 106 set min (folded) pos;
#X text 199 138 set max (unfolded) pos;
#X obj 193 227 oi.allcontrols;
#X text 123 200 see additional messages:;
#X obj 191 334 print status;
#X text 21 26 N-panel instrument MIDI receiver;
#X text 238 301 creation args: numpanels [chan];
#X text 316 326 numpanels: num instrument panels (required);
#X text 316 348 channel: input chan (1 + 16*port);
#X text 353 368 ie. port 1 -> 1 \, port 2 -> 17 \, etc;
#X text 353 390 default: 0 -> omni (all ports);
#X obj 75 300 oi.m.instrument 8;
#X connect 3 0 4 0;
#X connect 4 0 0 0;
#X connect 4 1 1 0;
#X connect 4 2 2 0;
#X connect 5 0 7 0;
#X connect 6 0 5 1;
#X connect 8 0 23 0;
#X connect 9 0 23 0;
#X connect 10 0 23 0;
#X connect 14 0 23 0;
#X connect 23 0 3 0;
#X connect 23 0 5 0;
#X connect 23 1 16 0;
