#N canvas 465 322 323 223 12;
#X obj 40 159 outlet;
#X obj 40 20 inlet;
#X obj 40 68 oi.m.control;
#X obj 227 117 outlet;
#X obj 40 117 clone oi.m.panel 8 8;
#X connect 1 0 2 0;
#X connect 2 0 3 0;
#X connect 2 1 4 0;
#X connect 4 0 0 0;
