#N canvas 465 322 323 223 12;
#X obj 40 169 outlet;
#X obj 40 30 inlet;
#X obj 237 127 outlet;
#N canvas 92 117 319 307 check 0;
#X obj 56 98 pdcontrol;
#X msg 56 60 args 0;
#X obj 56 22 loadbang;
#X obj 57 189 route bang float;
#X obj 56 144 list split 1;
#X obj 57 263 print oi.m.instrument warning;
#X msg 57 225 missing numpanels arg;
#X connect 0 0 4 0;
#X connect 1 0 0 0;
#X connect 2 0 1 0;
#X connect 3 0 6 0;
#X connect 4 2 3 0;
#X connect 6 0 5 0;
#X restore 193 29 pd check arg;
#X obj 40 127 clone oi.m.panel \$1 \$1 \$2;
#X obj 40 78 oi.m.control \$2;
#X connect 1 0 5 0;
#X connect 4 0 0 0;
#X connect 5 0 2 0;
#X connect 5 1 4 0;
