#N canvas 112 250 530 361 12;
#X obj 210 234 change;
#X obj 38 101 pack f f;
#X obj 38 310 outlet;
#X obj 210 199 route -1;
#X obj 279 234 route -1;
#X obj 210 101 pack f f;
#X obj 210 65 swap;
#X obj 210 30 ctlin;
#X obj 332 199 + 8;
#X obj 38 199 route \$1;
#X obj 38 30 notein;
#X obj 433 30 inlet;
#X obj 38 165 spigot 1;
#X obj 210 165 spigot 1;
#X obj 433 65 route on;
#X obj 263 131 r \$0-on;
#X obj 433 101 s \$0-on;
#X msg 38 270 d \$1;
#X msg 210 270 b \$1;
#X msg 279 270 s \$1;
#N canvas 351 226 312 399 args 0;
#X obj 47 91 pdcontrol;
#X msg 47 53 args 0;
#X obj 47 15 loadbang;
#X obj 48 232 route bang float;
#X obj 102 271 outlet;
#X obj 48 342 print oi.panel warning;
#X msg 48 304 missing panel id arg;
#X msg 78 119 list;
#X msg 142 157 0 8;
#X msg 129 129 0;
#X obj 47 187 list split 1;
#X obj 194 271 outlet;
#X obj 194 232 route float;
#X connect 0 0 10 0;
#X connect 1 0 0 0;
#X connect 2 0 1 0;
#X connect 3 0 6 0;
#X connect 3 1 4 0;
#X connect 6 0 5 0;
#X connect 7 0 10 0;
#X connect 8 0 10 0;
#X connect 9 0 10 0;
#X connect 10 0 4 0;
#X connect 10 1 12 0;
#X connect 10 2 3 0;
#X connect 12 0 11 0;
#X restore 332 165 pd args;
#X text 32 6 digital touch;
#X text 208 5 bend 0-N & soft N-N*2;
#X connect 0 0 18 0;
#X connect 1 0 12 0;
#X connect 3 0 0 0;
#X connect 3 1 4 0;
#X connect 4 0 19 0;
#X connect 5 0 13 0;
#X connect 6 0 5 0;
#X connect 6 1 5 1;
#X connect 7 0 6 0;
#X connect 7 1 6 1;
#X connect 8 0 4 1;
#X connect 9 0 17 0;
#X connect 10 0 1 0;
#X connect 10 1 1 1;
#X connect 11 0 14 0;
#X connect 12 0 9 0;
#X connect 13 0 3 0;
#X connect 14 0 16 0;
#X connect 15 0 12 1;
#X connect 15 0 13 1;
#X connect 17 0 2 0;
#X connect 18 0 2 0;
#X connect 19 0 2 0;
#X connect 20 0 3 1;
#X connect 20 0 8 0;
#X connect 20 1 8 1;
