#N canvas 760 213 377 473 12;
#X obj 31 48 inlet;
#X obj 161 151 outlet;
#X obj 31 341 ctlout;
#N canvas 188 374 397 332 ctlin 1;
#X obj 111 268 outlet;
#X obj 94 32 ctlin;
#X obj 94 164 route 111 110;
#N canvas 304 82 364 263 mpr 0;
#X obj 32 30 inlet;
#X obj 32 66 route 107 106 105 104;
#X obj 32 182 outlet;
#X msg 32 128 mpr A \$1;
#X msg 111 128 mpr B \$1;
#X msg 181 128 mpr C \$1;
#X msg 254 128 mpr D \$1;
#X connect 0 0 1 0;
#X connect 1 0 3 0;
#X connect 1 1 4 0;
#X connect 1 2 5 0;
#X connect 1 3 6 0;
#X connect 3 0 2 0;
#X connect 4 0 2 0;
#X connect 5 0 2 0;
#X connect 6 0 2 0;
#X restore 305 230 pd mpr;
#X msg 138 196 set mode \$1;
#X msg 94 231 set calibrate \$1;
#N canvas 585 68 381 323 notes 0;
#X obj 42 57 inlet;
#X obj 42 94 route 103;
#X obj 42 136 moses 100;
#X msg 42 198 n \$1;
#X obj 42 241 outlet;
#X msg 102 198 set scale;
#X obj 102 168 - 100;
#X obj 240 241 outlet;
#X connect 0 0 1 0;
#X connect 1 0 2 0;
#X connect 1 1 7 0;
#X connect 2 0 3 0;
#X connect 2 1 6 0;
#X connect 3 0 4 0;
#X connect 5 0 4 0;
#X connect 6 0 5 0;
#X restore 252 198 pd notes;
#X obj 94 65 pack f f f;
#X msg 94 98 \$3 \$2 \$1;
#X obj 94 131 oi.m.routechan \$1;
#X connect 1 0 7 0;
#X connect 1 1 7 1;
#X connect 1 2 7 2;
#X connect 2 0 5 0;
#X connect 2 1 4 0;
#X connect 2 2 6 0;
#X connect 3 0 0 0;
#X connect 4 0 0 0;
#X connect 5 0 0 0;
#X connect 6 0 0 0;
#X connect 6 1 3 0;
#X connect 7 0 8 0;
#X connect 8 0 9 0;
#X connect 9 0 2 0;
#X restore 31 393 pd ctlin;
#X obj 31 425 outlet;
#N canvas 246 472 281 274 mode 0;
#X obj 44 35 inlet;
#X obj 44 134 route float;
#X obj 44 212 outlet;
#X obj 44 69 route mode;
#X obj 111 100 outlet;
#X text 151 172 val ctl chan;
#X obj 44 172 pack f 110 \$1;
#X connect 0 0 3 0;
#X connect 1 0 6 0;
#X connect 3 0 1 0;
#X connect 3 1 4 0;
#X connect 6 0 2 0;
#X restore 112 182 pd mode;
#N canvas 243 199 544 373 calibrate 0;
#X msg 31 178 100;
#X msg 101 178 10;
#X msg 170 178 15;
#X text 109 159 bendLO;
#X text 184 159 bendHI;
#X obj 170 304 outlet;
#X obj 31 39 inlet;
#X msg 262 178 0;
#X msg 309 178 5;
#X msg 355 178 20;
#X text 392 177 bendLO Hard Soft;
#X msg 31 76 bang;
#X obj 159 40 inlet;
#X obj 448 145 outlet;
#X obj 31 113 route bang belo folded behi unfolded hard soft loHS hardsoft;
#X text 277 267 val ctl chan;
#X obj 170 267 pack f 111 \$1;
#X connect 0 0 16 0;
#X connect 1 0 16 0;
#X connect 2 0 16 0;
#X connect 6 0 11 0;
#X connect 7 0 16 0;
#X connect 8 0 16 0;
#X connect 9 0 16 0;
#X connect 11 0 14 0;
#X connect 12 0 14 0;
#X connect 14 0 0 0;
#X connect 14 1 1 0;
#X connect 14 2 1 0;
#X connect 14 3 2 0;
#X connect 14 4 2 0;
#X connect 14 5 7 0;
#X connect 14 6 8 0;
#X connect 14 7 9 0;
#X connect 14 8 9 0;
#X connect 14 9 13 0;
#X connect 16 0 5 0;
#X restore 31 152 pd calibrate;
#N canvas 536 534 377 295 notes 0;
#X obj 36 26 inlet;
#X obj 36 229 outlet;
#X obj 36 69 route root scale;
#X obj 36 137 route float;
#X obj 156 137 route float;
#X obj 145 101 outlet;
#X text 263 176 val ctl chan;
#X obj 36 177 pack f 109 \$1;
#X obj 156 177 pack f 108 \$1;
#X connect 0 0 2 0;
#X connect 2 0 3 0;
#X connect 2 1 4 0;
#X connect 2 2 5 0;
#X connect 3 0 7 0;
#X connect 4 0 8 0;
#X connect 7 0 1 0;
#X connect 8 0 1 0;
#X restore 158 215 pd notes;
#N canvas 275 53 610 332 mpr 0;
#X obj 54 30 inlet;
#X obj 54 170 route float;
#X obj 54 266 outlet;
#X obj 161 170 route float;
#X obj 270 170 route float;
#X obj 379 170 route float;
#X obj 114 98 outlet;
#X obj 54 131 route A B C D;
#X obj 54 68 route mpr;
#X text 484 204 val ctl chan;
#X obj 54 205 pack f 107 \$1;
#X obj 161 205 pack f 106 \$1;
#X obj 270 205 pack f 105 \$1;
#X obj 379 205 pack f 104 \$1;
#X connect 0 0 8 0;
#X connect 1 0 10 0;
#X connect 3 0 11 0;
#X connect 4 0 12 0;
#X connect 5 0 13 0;
#X connect 7 0 1 0;
#X connect 7 1 3 0;
#X connect 7 2 4 0;
#X connect 7 3 5 0;
#X connect 8 0 7 0;
#X connect 8 1 6 0;
#X connect 10 0 2 0;
#X connect 11 0 2 0;
#X connect 12 0 2 0;
#X connect 13 0 2 0;
#X restore 211 245 pd mpr;
#N canvas 275 53 618 281 lowlevel 0;
#X obj 54 30 inlet;
#X obj 165 223 outlet;
#X obj 54 127 route float;
#X obj 165 127 route float;
#X obj 277 127 route float;
#X obj 389 127 route float;
#X obj 54 68 route FFI SFI interval CDT;
#X text 498 169 val ctl chan;
#X obj 54 170 pack f 112 \$1;
#X obj 165 170 pack f 113 \$1;
#X obj 277 170 pack f 114 \$1;
#X obj 389 170 pack f 115 \$1;
#X connect 0 0 6 0;
#X connect 2 0 8 0;
#X connect 3 0 9 0;
#X connect 4 0 10 0;
#X connect 5 0 11 0;
#X connect 6 0 2 0;
#X connect 6 1 3 0;
#X connect 6 2 4 0;
#X connect 6 3 5 0;
#X connect 8 0 1 0;
#X connect 9 0 1 0;
#X connect 10 0 1 0;
#X connect 11 0 1 0;
#X restore 250 275 pd lowlevel;
#X obj 31 113 route calibrate set;
#X connect 0 0 10 0;
#X connect 3 0 4 0;
#X connect 5 0 2 0;
#X connect 5 1 7 0;
#X connect 6 0 2 0;
#X connect 6 1 5 0;
#X connect 7 0 2 0;
#X connect 7 1 8 0;
#X connect 8 0 2 0;
#X connect 8 1 9 0;
#X connect 9 0 2 0;
#X connect 10 0 6 0;
#X connect 10 1 6 1;
#X connect 10 2 1 0;
