#N canvas 465 322 323 245 12;
#X obj 40 194 outlet;
#X obj 40 50 inlet;
#X obj 237 147 outlet;
#N canvas 92 117 319 307 check 0;
#X obj 56 98 pdcontrol;
#X msg 56 60 args 0;
#X obj 56 22 loadbang;
#X obj 57 189 route bang float;
#X obj 56 144 list split 1;
#X obj 57 263 print oi.m.instrument warning;
#X msg 57 225 missing numpanels arg;
#X connect 0 0 4 0;
#X connect 1 0 0 0;
#X connect 2 0 1 0;
#X connect 3 0 6 0;
#X connect 4 2 3 0;
#X connect 6 0 5 0;
#X restore 193 49 pd check arg;
#X obj 40 147 clone oi.m.panel \$1 \$1 \$2;
#X obj 40 98 oi.m.control \$2;
#N canvas 172 83 546 380 LICENSE-GPL 0;
#X text 57 80 This program is free software: you can redistribute it and/or modify it under the terms of the GNU General Public License as published by the Free Software Foundation \, either version 3 of the License \, or (at your option) any later version.;
#X text 57 172 This program is distributed in the hope that it will be useful \, but WITHOUT ANY WARRANTY \; without even the implied warranty of MERCHANTABILITY or FITNESS FOR A PARTICULAR PURPOSE. See the GNU General Public License for more details.;
#X text 57 264 You should have received a copy of the GNU General Public License along with this program. If not \, see <http://www.gnu.org/licenses/>.;
#X text 57 328 See the file LICENSE.txt for the full license text.;
#X text 57 30 Copyright (C) 2023 Dan Wilcox \, Matthew Gardiner \, Oribotic Instruments team;
#X restore 180 194 pd LICENSE-GPL;
#X text 38 11 args: numpanels [chan];
#X connect 1 0 5 0;
#X connect 4 0 0 0;
#X connect 5 0 2 0;
#X connect 5 1 4 0;
