#N canvas 237 262 345 322 12;
#X obj 80 209 spigot 1;
#X obj 133 136 moses 1;
#X msg 133 175 1;
#X msg 179 175 0;
#X obj 34 175 route 0;
#X obj 34 63 inlet;
#X obj 34 282 outlet;
#X obj 238 100 f \$1;
#X obj 133 63 inlet;
#X obj 238 63 loadbang;
#X obj 80 243 list split 1;
#N canvas 172 83 546 380 LICENSE-GPL 0;
#X text 57 80 This program is free software: you can redistribute it and/or modify it under the terms of the GNU General Public License as published by the Free Software Foundation \, either version 3 of the License \, or (at your option) any later version.;
#X text 57 172 This program is distributed in the hope that it will be useful \, but WITHOUT ANY WARRANTY \; without even the implied warranty of MERCHANTABILITY or FITNESS FOR A PARTICULAR PURPOSE. See the GNU General Public License for more details.;
#X text 57 264 You should have received a copy of the GNU General Public License along with this program. If not \, see <http://www.gnu.org/licenses/>.;
#X text 57 328 See the file LICENSE.txt for the full license text.;
#X text 57 30 Copyright (C) 2023 Dan Wilcox \, Matthew Gardiner \, Oribotic Instruments team;
#X restore 200 282 pd LICENSE-GPL;
#X text 34 9 args: chan;
#X text 34 32 chan: 0 omni no filter \, 1-N filter;
#X connect 0 0 10 0;
#X connect 1 0 2 0;
#X connect 1 1 3 0;
#X connect 1 1 4 1;
#X connect 2 0 0 1;
#X connect 3 0 0 1;
#X connect 4 0 6 0;
#X connect 4 1 0 0;
#X connect 5 0 4 0;
#X connect 7 0 1 0;
#X connect 8 0 1 0;
#X connect 9 0 7 0;
#X connect 10 1 6 0;
