#N canvas 237 262 345 322 12;
#X obj 80 209 spigot 1;
#X obj 133 136 moses 1;
#X msg 133 175 1;
#X msg 179 175 0;
#X obj 34 175 route 0;
#X obj 34 63 inlet;
#X obj 34 282 outlet;
#X text 34 13 0: omni no filter \, 1-N: filter;
#X obj 238 100 f \$1;
#X obj 133 63 inlet;
#X obj 238 63 loadbang;
#X obj 80 243 list split 1;
#X connect 0 0 11 0;
#X connect 1 0 2 0;
#X connect 1 1 3 0;
#X connect 1 1 4 1;
#X connect 2 0 0 1;
#X connect 3 0 0 1;
#X connect 4 0 6 0;
#X connect 4 1 0 0;
#X connect 5 0 4 0;
#X connect 8 0 1 0;
#X connect 9 0 1 0;
#X connect 10 0 8 0;
#X connect 11 1 6 0;
