#N canvas 730 165 480 385 12;
#X floatatom 116 303 5 0 0 0 bend - - 0;
#X floatatom 76 333 5 0 0 0 digital - - 0;
#X floatatom 157 270 5 0 0 0 soft - - 0;
#X text 22 20 a single panel MIDI receiver;
#X msg 76 92 on \$1;
#X obj 76 62 tgl 19 0 empty empty empty 0 -10 0 12 #fcfcfc #000000 #000000 0 1;
#X text 102 63 enable input \, default on;
#X obj 76 219 route d b s;
#X text 194 195 id: panel id 0-N (required);
#X msg 149 123 chan \$1;
#X msg 229 95 1;
#X text 194 174 creation args: id [maxpanels] [chan];
#X obj 76 173 oi.m.panel 0 8;
#X text 194 216 maxpanels: max num panels (default 8);
#X msg 328 95 17;
#X text 212 123 change input channel;
#X text 261 94 port 1;
#X text 363 94 port 2;
#X text 194 237 chan: input channel (16*port + chan);
#X msg 149 95 0;
#X text 181 94 omni;
#X connect 4 0 12 0;
#X connect 5 0 4 0;
#X connect 7 0 1 0;
#X connect 7 1 0 0;
#X connect 7 2 2 0;
#X connect 9 0 12 0;
#X connect 10 0 9 0;
#X connect 12 0 7 0;
#X connect 14 0 9 0;
#X connect 19 0 9 0;
