#N canvas 415 310 649 376 12;
#X msg 64 86 1 7 \$1;
#X text 125 85 chan ctl value;
#X msg 106 146 17 7 \$1;
#X text 170 148 port 2: chan 1 + 16;
#X obj 106 116 tgl 19 0 empty empty empty 0 -10 0 12 #fcfcfc #000000 #000000 0 1;
#X obj 64 55 tgl 19 0 empty empty empty 0 -10 0 12 #fcfcfc #000000 #000000 0 1;
#X obj 64 306 print omni;
#X obj 202 306 print chan 1;
#X obj 337 306 print chan 17;
#X obj 64 207 t a;
#X msg 453 207 1;
#X msg 538 207 17;
#X text 417 180 change chan;
#X obj 64 252 oi.m.routechan 0;
#X obj 202 252 oi.m.routechan 1;
#X obj 337 252 oi.m.routechan 17;
#X msg 380 207 0;
#X text 482 206 port 1;
#X text 571 206 port 2;
#X text 408 206 omni;
#X text 27 19 route messages by channel like the MIDI input objects \, ie. [ctlin], f 66;
#X obj 148 306 bng 19 250 50 0 empty empty empty 0 -10 0 12 #fcfcfc #000000 #000000;
#X obj 299 306 bng 19 250 50 0 empty empty empty 0 -10 0 12 #fcfcfc #000000 #000000;
#X obj 441 306 bng 19 250 50 0 empty empty empty 0 -10 0 12 #fcfcfc #000000 #000000;
#X connect 0 0 9 0;
#X connect 2 0 9 0;
#X connect 4 0 2 0;
#X connect 5 0 0 0;
#X connect 9 0 13 0;
#X connect 9 0 14 0;
#X connect 9 0 15 0;
#X connect 10 0 15 1;
#X connect 11 0 15 1;
#X connect 13 0 6 0;
#X connect 13 0 21 0;
#X connect 14 0 7 0;
#X connect 14 0 22 0;
#X connect 15 0 8 0;
#X connect 15 0 23 0;
#X connect 16 0 15 1;
