#N canvas 760 213 377 473 12;
#X obj 31 48 inlet;
#X obj 161 151 outlet;
#X obj 31 341 ctlout;
#N canvas 188 374 397 332 ctlin 0;
#X obj 111 268 outlet;
#X obj 94 32 ctlin;
#X obj 94 115 pack f f;
#X obj 94 71 swap;
#X obj 94 161 route 111 110;
#N canvas 304 82 364 263 mpr 0;
#X obj 32 30 inlet;
#X obj 32 66 route 107 106 105 104;
#X obj 32 182 outlet;
#X msg 32 128 mpr A \$1;
#X msg 111 128 mpr B \$1;
#X msg 181 128 mpr C \$1;
#X msg 254 128 mpr D \$1;
#X connect 0 0 1 0;
#X connect 1 0 3 0;
#X connect 1 1 4 0;
#X connect 1 2 5 0;
#X connect 1 3 6 0;
#X connect 3 0 2 0;
#X connect 4 0 2 0;
#X connect 5 0 2 0;
#X connect 6 0 2 0;
#X restore 305 230 pd mpr;
#X msg 138 196 set mode \$1;
#X msg 94 231 set calibrate \$1;
#N canvas 585 68 381 323 notes 0;
#X obj 42 57 inlet;
#X obj 42 94 route 103;
#X obj 42 136 moses 100;
#X msg 42 198 n \$1;
#X obj 42 241 outlet;
#X msg 102 198 set scale;
#X obj 102 168 - 100;
#X obj 240 241 outlet;
#X connect 0 0 1 0;
#X connect 1 0 2 0;
#X connect 1 1 7 0;
#X connect 2 0 3 0;
#X connect 2 1 6 0;
#X connect 3 0 4 0;
#X connect 5 0 4 0;
#X connect 6 0 5 0;
#X restore 252 198 pd notes;
#X connect 1 0 3 0;
#X connect 1 1 3 1;
#X connect 2 0 4 0;
#X connect 3 0 2 0;
#X connect 3 1 2 1;
#X connect 4 0 7 0;
#X connect 4 1 6 0;
#X connect 4 2 8 0;
#X connect 5 0 0 0;
#X connect 6 0 0 0;
#X connect 7 0 0 0;
#X connect 8 0 0 0;
#X connect 8 1 5 0;
#X restore 31 393 pd ctlin;
#X obj 31 425 outlet;
#N canvas 246 472 329 267 mode 0;
#X obj 44 35 inlet;
#X obj 44 114 route float;
#X text 106 158 val ctl port;
#X msg 44 159 \$1 110;
#X obj 44 192 outlet;
#X obj 44 69 route mode;
#X obj 236 190 outlet;
#X connect 0 0 5 0;
#X connect 1 0 3 0;
#X connect 3 0 4 0;
#X connect 5 0 1 0;
#X connect 5 1 6 0;
#X restore 112 182 pd mode;
#N canvas 243 199 544 373 calibrate 0;
#X msg 31 178 100;
#X msg 101 178 10;
#X msg 170 178 15;
#X text 109 159 bendLO;
#X text 184 159 bendHI;
#X obj 170 304 outlet;
#X obj 31 39 inlet;
#X text 243 266 val ctl port;
#X msg 262 178 0;
#X msg 309 178 5;
#X msg 355 178 20;
#X text 392 177 bendLO Hard Soft;
#X msg 31 76 bang;
#X obj 159 40 inlet;
#X obj 448 145 outlet;
#X obj 31 113 route bang belo folded behi unfolded hard soft loHS hardsoft;
#X msg 170 265 \$1 111;
#X connect 0 0 16 0;
#X connect 1 0 16 0;
#X connect 2 0 16 0;
#X connect 6 0 12 0;
#X connect 8 0 16 0;
#X connect 9 0 16 0;
#X connect 10 0 16 0;
#X connect 12 0 15 0;
#X connect 13 0 15 0;
#X connect 15 0 0 0;
#X connect 15 1 1 0;
#X connect 15 2 1 0;
#X connect 15 3 2 0;
#X connect 15 4 2 0;
#X connect 15 5 8 0;
#X connect 15 6 9 0;
#X connect 15 7 10 0;
#X connect 15 8 10 0;
#X connect 15 9 14 0;
#X connect 16 0 5 0;
#X restore 31 152 pd calibrate;
#N canvas 543 618 450 300 notes 0;
#X obj 36 26 inlet;
#X obj 86 233 outlet;
#X obj 36 69 route root scale;
#X obj 36 117 route float;
#X obj 140 117 route float;
#X msg 36 156 \$1 109;
#X msg 140 156 \$1 108;
#X obj 288 232 outlet;
#X connect 0 0 2 0;
#X connect 2 0 3 0;
#X connect 2 1 4 0;
#X connect 2 2 7 0;
#X connect 3 0 5 0;
#X connect 4 0 6 0;
#X connect 5 0 1 0;
#X connect 6 0 1 0;
#X restore 158 215 pd notes;
#N canvas 275 53 568 338 mpr 0;
#X obj 54 30 inlet;
#X obj 54 170 route float;
#X obj 54 266 outlet;
#X obj 151 169 route float;
#X obj 251 169 route float;
#X obj 351 169 route float;
#X obj 460 136 outlet;
#X obj 54 131 route A B C D;
#X msg 54 203 \$1 107;
#X msg 151 202 \$1 106;
#X msg 251 202 \$1 105;
#X msg 351 202 \$1 104;
#X obj 54 68 route mpr;
#X connect 0 0 12 0;
#X connect 1 0 8 0;
#X connect 3 0 9 0;
#X connect 4 0 10 0;
#X connect 5 0 11 0;
#X connect 7 0 1 0;
#X connect 7 1 3 0;
#X connect 7 2 4 0;
#X connect 7 3 5 0;
#X connect 8 0 2 0;
#X connect 9 0 2 0;
#X connect 10 0 2 0;
#X connect 11 0 2 0;
#X connect 12 0 7 0;
#X connect 12 1 6 0;
#X restore 211 245 pd mpr;
#N canvas 275 53 569 305 lowlevel 0;
#X obj 54 30 inlet;
#X obj 145 225 outlet;
#X obj 469 119 outlet;
#X obj 54 127 route float;
#X obj 145 127 route float;
#X obj 237 127 route float;
#X obj 330 127 route float;
#X obj 54 68 route FFI SFI interval CDT;
#X msg 330 162 \$1 115;
#X msg 237 162 \$1 114;
#X msg 145 162 \$1 113;
#X msg 54 162 \$1 112;
#X connect 0 0 7 0;
#X connect 3 0 11 0;
#X connect 4 0 10 0;
#X connect 5 0 9 0;
#X connect 6 0 8 0;
#X connect 7 0 3 0;
#X connect 7 1 4 0;
#X connect 7 2 5 0;
#X connect 7 3 6 0;
#X connect 7 4 2 0;
#X connect 8 0 1 0;
#X connect 9 0 1 0;
#X connect 10 0 1 0;
#X connect 11 0 1 0;
#X restore 250 275 pd lowlevel;
#X obj 31 113 route calibrate set;
#X connect 0 0 10 0;
#X connect 3 0 4 0;
#X connect 5 0 2 0;
#X connect 5 1 7 0;
#X connect 6 0 2 0;
#X connect 6 1 5 0;
#X connect 7 0 2 0;
#X connect 7 1 8 0;
#X connect 8 0 2 0;
#X connect 8 1 9 0;
#X connect 9 0 2 0;
#X connect 10 0 6 0;
#X connect 10 1 6 1;
#X connect 10 2 1 0;
