#N canvas 357 153 508 363 12;
#X listbox 30 310 20 0 0 0 - - - 0;
#X obj 30 279 list;
#X obj 65 243 print;
#X obj 30 202 oi.o.control 8;
#X text 141 203 creation args: maxpanels (required);
#X text 78 279 outputs OSC messages for device;
#X msg 208 110 /setMode \$1;
#X obj 208 81 hradio 19 1 0 7 empty empty empty 0 -10 0 12 #fcfcfc #000000 #000000 0;
#X text 26 15 device control OSC message formatter;
#X msg 360 112 /set/SFI;
#X obj 360 81 hradio 19 1 0 4 empty empty empty 0 -10 0 12 #fcfcfc #000000 #000000 0;
#X obj 30 81 oi.allcontrols;
#X text 27 55 see all messages:;
#X text 207 55 also passes through raw OSC messages;
#X connect 1 0 0 0;
#X connect 3 0 2 0;
#X connect 3 0 1 0;
#X connect 6 0 3 0;
#X connect 7 0 6 0;
#X connect 9 0 3 0;
#X connect 10 0 9 0;
#X connect 11 0 3 0;
