#N canvas 63 88 324 328 12;
#X obj 40 49 inlet;
#X obj 40 279 outlet;
#N canvas 92 117 319 307 check 0;
#X obj 56 98 pdcontrol;
#X msg 56 60 args 0;
#X obj 56 22 loadbang;
#X obj 57 189 route bang float;
#X obj 56 144 list split 1;
#X obj 57 263 print oi.o.control warning;
#X msg 57 225 missing maxpanels arg;
#X connect 0 0 4 0;
#X connect 1 0 0 0;
#X connect 2 0 1 0;
#X connect 3 0 6 0;
#X connect 4 2 3 0;
#X connect 6 0 5 0;
#X restore 201 50 pd check arg;
#N canvas 551 348 494 270 calibrate 0;
#X obj 39 23 inlet;
#N canvas 318 343 277 429 setKey 0;
#X obj 57 250 until;
#X obj 57 217 t f b;
#X obj 57 284 f;
#X obj 105 284 + 1;
#X msg 105 250 0;
#X obj 57 119 makefilename /setKey/%s;
#X obj 57 82 symbol;
#X obj 57 385 outlet;
#X obj 57 321 pack f s;
#X obj 57 153 t b s;
#X msg 57 354 \$2 \$1;
#X msg 119 33 behi;
#X msg 175 33 belo;
#X obj 57 31 inlet;
#X obj 57 184 f \$1;
#X connect 0 0 2 0;
#X connect 1 0 0 0;
#X connect 1 1 4 0;
#X connect 2 0 3 0;
#X connect 2 0 8 0;
#X connect 3 0 2 1;
#X connect 4 0 2 1;
#X connect 5 0 9 0;
#X connect 6 0 5 0;
#X connect 8 0 10 0;
#X connect 9 0 14 0;
#X connect 9 1 8 1;
#X connect 10 0 7 0;
#X connect 11 0 6 0;
#X connect 12 0 6 0;
#X connect 13 0 6 0;
#X connect 14 0 1 0;
#X restore 138 168 pd setKey;
#X msg 39 129 belo;
#X msg 138 129 behi;
#X obj 138 218 outlet;
#X msg 185 129 hard;
#X msg 233 129 loHS;
#X obj 386 215 outlet;
#X obj 39 88 route belo folded behi unfolded hard loHS hardsoft;
#X connect 0 0 8 0;
#X connect 1 0 4 0;
#X connect 2 0 1 0;
#X connect 3 0 1 0;
#X connect 5 0 1 0;
#X connect 6 0 1 0;
#X connect 8 0 2 0;
#X connect 8 1 2 0;
#X connect 8 2 3 0;
#X connect 8 3 3 0;
#X connect 8 4 5 0;
#X connect 8 5 6 0;
#X connect 8 6 6 0;
#X connect 8 7 7 0;
#X restore 92 160 pd calibrate;
#N canvas 150 175 322 261 mode 0;
#X obj 35 22 inlet;
#X obj 35 107 route float;
#X msg 35 150 /setMode \$1;
#X obj 35 188 outlet;
#X obj 35 67 route mode;
#X obj 199 188 outlet;
#X connect 0 0 4 0;
#X connect 1 0 2 0;
#X connect 2 0 3 0;
#X connect 4 0 1 0;
#X connect 4 1 5 0;
#X restore 173 201 pd mode;
#X msg 40 201 /calibrate;
#X obj 40 92 route calibrate set get;
#N canvas 208 233 287 304 notes 0;
#X obj 36 26 inlet;
#X msg 36 174 /setRoot \$1;
#X msg 140 154 /setScale \$1;
#X obj 86 233 outlet;
#X obj 36 69 route root scale;
#X obj 36 117 route float;
#X obj 140 115 route float;
#X connect 0 0 4 0;
#X connect 1 0 3 0;
#X connect 2 0 3 0;
#X connect 4 0 5 0;
#X connect 4 1 6 0;
#X connect 5 0 1 0;
#X connect 6 0 2 0;
#X restore 219 235 pd notes;
#N canvas 266 541 294 212 notes 0;
#X obj 38 56 route notes;
#X msg 38 90 /getNotes;
#X obj 38 22 inlet;
#X obj 38 124 outlet;
#X connect 0 0 1 0;
#X connect 1 0 3 0;
#X connect 2 0 0 0;
#X restore 145 127 pd notes;
#N canvas 172 83 546 380 LICENSE-GPL 0;
#X text 57 80 This program is free software: you can redistribute it and/or modify it under the terms of the GNU General Public License as published by the Free Software Foundation \, either version 3 of the License \, or (at your option) any later version.;
#X text 57 172 This program is distributed in the hope that it will be useful \, but WITHOUT ANY WARRANTY \; without even the implied warranty of MERCHANTABILITY or FITNESS FOR A PARTICULAR PURPOSE. See the GNU General Public License for more details.;
#X text 57 264 You should have received a copy of the GNU General Public License along with this program. If not \, see <http://www.gnu.org/licenses/>.;
#X text 57 328 See the file LICENSE.txt for the full license text.;
#X text 57 30 Copyright (C) 2023 Dan Wilcox \, Matthew Gardiner \, Oribotic Instruments team;
#X restore 176 279 pd LICENSE-GPL;
#X text 39 15 args: maxpanels;
#X connect 0 0 6 0;
#X connect 3 0 1 0;
#X connect 3 1 4 0;
#X connect 4 0 1 0;
#X connect 4 1 7 0;
#X connect 5 0 1 0;
#X connect 6 0 5 0;
#X connect 6 1 3 0;
#X connect 6 2 8 0;
#X connect 6 3 1 0;
#X connect 7 0 1 0;
#X connect 8 0 1 0;
