#N canvas 539 179 342 461 12;
#X obj 55 119 oi.o.serial;
#X obj 55 47 inlet;
#X obj 55 408 outlet;
#X obj 241 408 outlet;
#X obj 55 160 route d b s;
#X msg 104 362 \$1 s \$2;
#X msg 55 292 \$1 d \$2;
#X msg 79 327 \$1 b \$2;
#X text 146 324 swap id & type;
#X obj 55 83 oi.o.control \$1;
#N canvas 92 117 319 307 check 0;
#X obj 56 98 pdcontrol;
#X msg 56 60 args 0;
#X obj 56 22 loadbang;
#X obj 57 189 route bang float;
#X obj 56 144 list split 1;
#X msg 57 225 missing numpanels arg;
#X obj 57 263 print oi.o.instrument warning;
#X connect 0 0 4 0;
#X connect 1 0 0 0;
#X connect 2 0 1 0;
#X connect 3 0 5 0;
#X connect 4 2 3 0;
#X connect 5 0 6 0;
#X restore 205 183 pd check arg;
#N canvas 567 379 384 289 range 0;
#X obj 57 26 inlet;
#X obj 57 102 spigot 1;
#X obj 146 102 spigot 0;
#X obj 57 246 outlet;
#X obj 146 140 unpack f f;
#X obj 146 206 pack f f;
#X obj 244 22 r \$0-range;
#X obj 213 175 expr $f1/255 * 127;
#X obj 244 49 - 1;
#X obj 244 75 abs;
#X connect 0 0 1 0;
#X connect 0 0 2 0;
#X connect 1 0 3 0;
#X connect 2 0 4 0;
#X connect 4 0 5 0;
#X connect 4 1 7 0;
#X connect 5 0 3 0;
#X connect 6 0 8 0;
#X connect 6 0 2 1;
#X connect 7 0 5 1;
#X connect 8 0 9 0;
#X connect 9 0 1 1;
#X restore 55 195 pd range;
#N canvas 567 379 384 289 range 0;
#X obj 57 26 inlet;
#X obj 57 102 spigot 1;
#X obj 146 102 spigot 0;
#X obj 57 246 outlet;
#X obj 146 140 unpack f f;
#X obj 146 206 pack f f;
#X obj 244 22 r \$0-range;
#X obj 213 175 expr $f1/255 * 127;
#X obj 244 49 - 1;
#X obj 244 75 abs;
#X connect 0 0 1 0;
#X connect 0 0 2 0;
#X connect 1 0 3 0;
#X connect 2 0 4 0;
#X connect 4 0 5 0;
#X connect 4 1 7 0;
#X connect 5 0 3 0;
#X connect 6 0 8 0;
#X connect 6 0 2 1;
#X connect 7 0 5 1;
#X connect 8 0 9 0;
#X connect 9 0 1 1;
#X restore 79 225 pd range;
#N canvas 567 379 384 289 range 0;
#X obj 57 26 inlet;
#X obj 57 102 spigot 1;
#X obj 146 102 spigot 0;
#X obj 57 246 outlet;
#X obj 146 140 unpack f f;
#X obj 146 206 pack f f;
#X obj 244 22 r \$0-range;
#X obj 213 175 expr $f1/255 * 127;
#X obj 244 49 - 1;
#X obj 244 75 abs;
#X connect 0 0 1 0;
#X connect 0 0 2 0;
#X connect 1 0 3 0;
#X connect 2 0 4 0;
#X connect 4 0 5 0;
#X connect 4 1 7 0;
#X connect 5 0 3 0;
#X connect 6 0 8 0;
#X connect 6 0 2 1;
#X connect 7 0 5 1;
#X connect 8 0 9 0;
#X connect 9 0 1 1;
#X restore 104 257 pd range;
#X obj 205 45 inlet;
#X obj 205 113 route float;
#X obj 205 144 s \$0-range;
#X obj 205 79 route midi;
#N canvas 172 83 546 380 LICENSE-GPL 0;
#X text 57 80 This program is free software: you can redistribute it and/or modify it under the terms of the GNU General Public License as published by the Free Software Foundation \, either version 3 of the License \, or (at your option) any later version.;
#X text 57 172 This program is distributed in the hope that it will be useful \, but WITHOUT ANY WARRANTY \; without even the implied warranty of MERCHANTABILITY or FITNESS FOR A PARTICULAR PURPOSE. See the GNU General Public License for more details.;
#X text 57 264 You should have received a copy of the GNU General Public License along with this program. If not \, see <http://www.gnu.org/licenses/>.;
#X text 57 328 See the file LICENSE.txt for the full license text.;
#X text 57 30 Copyright (C) 2023 Dan Wilcox \, Matthew Gardiner \, Oribotic Instruments team;
#X restore 204 221 pd LICENSE-GPL;
#X text 54 12 args: numpanels;
#X connect 0 0 4 0;
#X connect 1 0 9 0;
#X connect 4 0 11 0;
#X connect 4 1 12 0;
#X connect 4 2 13 0;
#X connect 4 3 3 0;
#X connect 5 0 2 0;
#X connect 6 0 2 0;
#X connect 7 0 2 0;
#X connect 9 0 0 0;
#X connect 11 0 6 0;
#X connect 12 0 7 0;
#X connect 13 0 5 0;
#X connect 14 0 17 0;
#X connect 15 0 16 0;
#X connect 17 0 15 0;
