#N canvas 487 87 462 458 12;
#X obj 71 338 oi.o.serial;
#X msg 71 119 close;
#X msg 85 152 devices;
#X msg 125 237 /calibrate;
#X obj 71 402 print;
#X text 123 119 close connection;
#X text 147 153 list detected devices;
#X text 118 403 OSC-style output;
#X text 123 206 OSC-style input;
#X text 25 19 OSC-style communication over a serial connection;
#X msg 53 90 open /dev/tty.usbmodemMIDI1;
#X text 260 89 open connection by name;
#X obj 263 207 hradio 19 1 0 7 empty empty empty 0 -10 0 12 #fcfcfc #000000 #000000 0;
#X msg 263 237 /setMode \$1;
#X text 60 53 required external libraries: comport \, slip;
#X connect 0 0 4 0;
#X connect 1 0 0 0;
#X connect 2 0 0 0;
#X connect 3 0 0 0;
#X connect 10 0 0 0;
#X connect 12 0 13 0;
#X connect 13 0 0 0;
