#N canvas 267 210 348 362 12;
#X obj 55 109 oi.o.serial;
#X obj 55 37 inlet;
#X obj 55 308 outlet;
#X obj 241 308 outlet;
#X obj 55 150 route d b s;
#X obj 55 73 oi.o.control 8;
#X msg 104 262 \$1 s \$2;
#X msg 55 192 \$1 d \$2;
#X msg 79 227 \$1 b \$2;
#X text 204 227 swap id & type;
#X connect 0 0 4 0;
#X connect 1 0 5 0;
#X connect 4 0 7 0;
#X connect 4 1 8 0;
#X connect 4 2 6 0;
#X connect 4 3 3 0;
#X connect 5 0 0 0;
#X connect 6 0 2 0;
#X connect 7 0 2 0;
#X connect 8 0 2 0;
