#N canvas 500 187 409 441 12;
#X obj 51 26 inlet;
#X obj 51 375 outlet;
#X msg 106 94 close;
#X msg 161 94 devices;
#X msg 51 128 devicename \$1 \, baud 115200 \, pollintervall 1;
#X obj 51 94 symbol;
#X obj 51 60 route open close devices;
#X obj 216 193 slip/slipenc 65536;
#X obj 51 225 comport/comport;
#X obj 51 266 slip/slipdec 65536;
#N canvas 179 204 299 284 oscformat 0;
#X obj 39 25 inlet;
#X obj 79 229 outlet;
#X obj 79 189 oscformat;
#X obj 151 97 list split 1;
#X obj 39 62 t a a;
#X msg 151 141 set \$1;
#X obj 39 97 list split 1;
#X text 207 140 address;
#X text 39 140 args;
#X connect 0 0 4 0;
#X connect 2 0 1 0;
#X connect 3 0 5 0;
#X connect 4 0 6 0;
#X connect 4 1 3 0;
#X connect 5 0 2 0;
#X connect 6 1 2 0;
#X restore 216 162 pd oscformat;
#X obj 51 340 list trim;
#X obj 51 303 oscparse;
#X connect 0 0 6 0;
#X connect 2 0 8 0;
#X connect 3 0 8 0;
#X connect 4 0 8 0;
#X connect 5 0 4 0;
#X connect 6 0 5 0;
#X connect 6 1 2 0;
#X connect 6 2 3 0;
#X connect 6 3 10 0;
#X connect 7 0 8 0;
#X connect 8 0 9 0;
#X connect 9 0 12 0;
#X connect 10 0 7 0;
#X connect 11 0 1 0;
#X connect 12 0 11 0;
