#N canvas 267 210 348 362 12;
#X obj 55 109 oi.o.serial;
#X obj 55 37 inlet;
#X obj 55 308 outlet;
#X obj 241 308 outlet;
#X obj 55 150 route d b s;
#X msg 104 262 \$1 s \$2;
#X msg 55 192 \$1 d \$2;
#X msg 79 227 \$1 b \$2;
#X text 204 227 swap id & type;
#X obj 55 73 oi.o.control \$1;
#N canvas 92 117 319 307 check 0;
#X obj 56 98 pdcontrol;
#X msg 56 60 args 0;
#X obj 56 22 loadbang;
#X obj 57 189 route bang float;
#X obj 56 144 list split 1;
#X msg 57 225 missing numpanels arg;
#X obj 57 263 print oi.o.instrument warning;
#X connect 0 0 4 0;
#X connect 1 0 0 0;
#X connect 2 0 1 0;
#X connect 3 0 5 0;
#X connect 4 2 3 0;
#X connect 5 0 6 0;
#X restore 204 35 pd check arg;
#X connect 0 0 4 0;
#X connect 1 0 9 0;
#X connect 4 0 6 0;
#X connect 4 1 7 0;
#X connect 4 2 5 0;
#X connect 4 3 3 0;
#X connect 5 0 2 0;
#X connect 6 0 2 0;
#X connect 7 0 2 0;
#X connect 9 0 0 0;
