#N canvas 147 40 424 780 12;
#X listbox 76 728 20 0 0 0 digital - - 0;
#X listbox 128 697 20 0 0 0 bend - - 0;
#X listbox 180 665 20 0 0 0 soft - - 0;
#X obj 76 622 route d b s;
#X obj 211 583 spigot;
#X obj 250 555 tgl 19 0 empty empty empty 0 -10 0 12 #fcfcfc #000000 #000000 0 1;
#X obj 211 622 print;
#X msg 62 161 close;
#X msg 76 194 devices;
#X text 114 162 close connection;
#X text 138 195 list detected devices;
#X msg 44 127 open /dev/tty.usbmodemMIDI1;
#X text 229 95 open connection by name;
#X obj 76 583 route 1;
#X text 62 57 required external libraries: comport \, slip;
#X msg 108 242 calibrate;
#X msg 122 271 set folded;
#X msg 135 304 set unfolded;
#X text 186 244 calibrate panels;
#X text 205 272 set min (folded) pos;
#X text 231 304 set max (unfolded) pos;
#X obj 160 373 oi.allcontrols;
#X text 142 349 see additional messages:;
#X text 21 26 N-panel instrument serial OSC receiver;
#X obj 192 512 print status;
#X text 208 477 creation args: numpanels;
#X obj 76 478 oi.o.instrument 8;
#X msg 24 95 open /dev/tty.usbmodem1101;
#X msg 192 443 midi \$1;
#X obj 192 416 tgl 19 0 empty empty empty 0 -10 0 12 #fcfcfc #000000 #000000 0 1;
#X text 220 417 midi output range? 0-127;
#X text 227 728 default output range 0-255;
#X connect 3 0 0 0;
#X connect 3 1 1 0;
#X connect 3 2 2 0;
#X connect 4 0 6 0;
#X connect 5 0 4 1;
#X connect 7 0 26 0;
#X connect 8 0 26 0;
#X connect 11 0 26 0;
#X connect 13 0 3 0;
#X connect 15 0 26 0;
#X connect 16 0 26 0;
#X connect 17 0 26 0;
#X connect 21 0 26 0;
#X connect 26 0 4 0;
#X connect 26 0 13 0;
#X connect 26 1 24 0;
#X connect 27 0 26 0;
#X connect 28 0 26 1;
#X connect 29 0 28 0;
