#N canvas 79 65 1225 1098 12;
#X obj 50 90 inlet;
#X obj 50 320 outlet;
#X obj 50 240 spigot;
#X obj 110 240 spigot;
#X obj 50 270 expr 1-$f1;
#X obj 190 153 - 1;
#X obj 191 179 abs;
#X obj 50 177 m_scale 0 255 0 1;
#X obj 189 120 r invert;
#X connect 0 0 7 0;
#X connect 2 0 4 0;
#X connect 3 0 1 0;
#X connect 4 0 1 0;
#X connect 5 0 6 0;
#X connect 6 0 3 1;
#X connect 7 0 2 0;
#X connect 7 0 3 0;
#X connect 8 0 5 0;
#X connect 8 0 2 1;
